<?xml version="1.0" encoding="UTF-8" standalone="no"?>
<!-- Created with Inkscape (http://www.inkscape.org/) -->

<svg
   width="48"
   height="48"
   viewBox="0 0 48 48"
   version="1.1"
   id="svg1"
   xml:space="preserve"
   inkscape:version="1.3 (0e150ed, 2023-07-21)"
   sodipodi:docname="LogicalOperationsV3.svg"
   inkscape:export-filename="../../../../../../../Desktop/m-48.png"
   inkscape:export-xdpi="96"
   inkscape:export-ydpi="96"
   xmlns:inkscape="http://www.inkscape.org/namespaces/inkscape"
   xmlns:sodipodi="http://sodipodi.sourceforge.net/DTD/sodipodi-0.dtd"
   xmlns="http://www.w3.org/2000/svg"
   xmlns:svg="http://www.w3.org/2000/svg"><sodipodi:namedview
     id="namedview1"
     pagecolor="#ffffff"
     bordercolor="#111111"
     borderopacity="1"
     inkscape:showpageshadow="0"
     inkscape:pageopacity="0"
     inkscape:pagecheckerboard="1"
     inkscape:deskcolor="#d1d1d1"
     inkscape:document-units="px"
     showgrid="true"
     inkscape:zoom="10.041667"
     inkscape:cx="21.809128"
     inkscape:cy="30.622406"
     inkscape:window-width="1440"
     inkscape:window-height="771"
     inkscape:window-x="0"
     inkscape:window-y="25"
     inkscape:window-maximized="0"
     inkscape:current-layer="layer4"
     showguides="true"><inkscape:grid
       id="grid1"
       units="px"
       originx="0"
       originy="0"
       spacingx="1"
       spacingy="1"
       empcolor="#0099e5"
       empopacity="0.30196078"
       color="#0099e5"
       opacity="0.14901961"
       empspacing="2"
       dotted="false"
       gridanglex="30"
       gridanglez="30"
       visible="true" /><inkscape:grid
       id="grid2"
       units="px"
       originx="20"
       originy="20"
       spacingx="40"
       spacingy="40"
       empcolor="#cd0000"
       empopacity="0.30196078"
       color="#e5001a"
       opacity="0.14901961"
       empspacing="40"
       dotted="false"
       gridanglex="30"
       gridanglez="30"
       visible="true" /></sodipodi:namedview><defs
     id="defs1"><inkscape:perspective
       sodipodi:type="inkscape:persp3d"
       inkscape:vp_x="0 : 24 : 1"
       inkscape:vp_y="0 : 1000 : 0"
       inkscape:vp_z="48 : 24 : 1"
       inkscape:persp3d-origin="24 : 16 : 1"
       id="perspective8" /><inkscape:perspective
       sodipodi:type="inkscape:persp3d"
       inkscape:vp_x="0 : 24 : 1"
       inkscape:vp_y="0 : 1000 : 0"
       inkscape:vp_z="48 : 24 : 1"
       inkscape:persp3d-origin="24 : 16 : 1"
       id="perspective8-2" /></defs><g
     inkscape:groupmode="layer"
     id="layer4"
     inkscape:label="EnabledLayer"
     sodipodi:insensitive="true"><path
       style="fill:#e5e5f6;stroke:#000000;stroke-width:2.00001;stroke-linecap:round;stroke-linejoin:miter;stroke-dasharray:none;stroke-opacity:1"
       d="M 6.0620539,13.018369 H 19.883629"
       id="path22" /><path
       style="fill:#e5e5f6;stroke:#000000;stroke-width:1.99999;stroke-linecap:round;stroke-linejoin:miter;stroke-dasharray:none;stroke-opacity:1"
       d="M 28.933507,13.000001 H 41.125801"
       id="path22-3" /><path
       style="fill:#e5e5f6;stroke:#000000;stroke-width:2.00001;stroke-linecap:round;stroke-linejoin:miter;stroke-dasharray:none;stroke-opacity:1"
       d="M 13,6.8851499 V 19.220895"
       id="path23" /><g
       id="g30"
       style="fill:#000000;stroke-width:1.06903"
       transform="matrix(1,0,0,0.87502645,0,5.2493123)"><path
         id="rect8"
         style="fill:#000000;stroke-width:1.60353;stroke-linecap:round;stroke-linejoin:round;paint-order:fill markers stroke"
         d="m 10.594234,41.997431 h 4.811534 v -2.198202 c 0,0 -1.613991,5.07e-4 -2.424243,0 -0.810251,-5.07e-4 -2.387291,0 -2.387291,0 z"
         sodipodi:nodetypes="ccczcc" /><path
         id="path29"
         style="-inkscape-font-specification:'Futura Medium';fill:#000000;stroke-width:1.06903"
         d="m 10.597884,42.003299 -0.0073,-2.209937 c -0.01153,1.66e-4 0.01155,0 0,0 -1.5171939,0 -2.6122321,-2.265265 -2.6122321,-4.807982 L 8,26 H 6 v 9.1 c 0,1.229329 0.115739,2.290424 0.3460981,3.183527 0.2224148,0.798555 0.6087911,1.519664 1.1568861,2.160598 0.9055514,1.040204 2.0556765,1.559216 3.4537198,1.559216 0.0138,0 -0.372601,1.02e-4 -0.358859,0 z"
         sodipodi:nodetypes="ccssccsccssc" /><path
         id="path30"
         style="-inkscape-font-specification:'Futura Medium';fill:#000000;stroke-width:1.06903"
         d="m 15.402118,42.003299 0.0073,-2.209937 c 0.01153,1.66e-4 -0.01155,0 0,0 1.517194,0 2.612232,-2.265265 2.612232,-4.807982 L 18,26 h 2 v 9.1 c 0,1.229329 -0.115739,2.290424 -0.346098,3.183527 -0.222415,0.798555 -0.608791,1.519664 -1.156886,2.160598 -0.905552,1.040204 -2.055677,1.559216 -3.45372,1.559216 -0.0138,0 0.372601,1.02e-4 0.358859,0 z"
         sodipodi:nodetypes="ccssccsccssc" /></g><g
       id="g33"
       transform="matrix(1,0,0,-0.8871006,22,65.164616)"
       style="fill:#000000;stroke-width:1.06173"><path
         id="path31"
         style="fill:#000000;stroke-width:1.59258;stroke-linecap:round;stroke-linejoin:round;paint-order:fill markers stroke"
         d="m 10.594234,41.997431 h 4.811534 v -2.198202 c 0,0 -1.613991,5.07e-4 -2.424243,0 -0.810251,-5.07e-4 -2.387291,0 -2.387291,0 z"
         sodipodi:nodetypes="ccczcc" /><path
         id="path32"
         style="-inkscape-font-specification:'Futura Medium';fill:#000000;stroke-width:1.06173"
         d="m 10.597884,42.003299 -0.0073,-2.209937 c -0.01153,1.66e-4 0.01155,0 0,0 -1.5171939,0 -2.6122321,-2.265265 -2.6122321,-4.807982 L 8,26 H 6 v 9.1 c 0,1.229329 0.115739,2.290424 0.3460981,3.183527 0.2224148,0.798555 0.6087911,1.519664 1.1568861,2.160598 0.9055514,1.040204 2.0556765,1.559216 3.4537198,1.559216 0.0138,0 -0.372601,1.02e-4 -0.358859,0 z"
         sodipodi:nodetypes="ccssccsccssc" /><path
         id="path33"
         style="-inkscape-font-specification:'Futura Medium';fill:#000000;stroke-width:1.06173"
         d="m 15.402118,42.003299 0.0073,-2.209937 c 0.01153,1.66e-4 -0.01155,0 0,0 1.517194,0 2.612232,-2.265265 2.612232,-4.807982 L 18,26 h 2 v 9.1 c 0,1.229329 -0.115739,2.290424 -0.346098,3.183527 -0.222415,0.798555 -0.608791,1.519664 -1.156886,2.160598 -0.905552,1.040204 -2.055677,1.559216 -3.45372,1.559216 -0.0138,0 0.372601,1.02e-4 0.358859,0 z"
         sodipodi:nodetypes="ccssccsccssc" /></g></g></svg>
