<?xml version="1.0" encoding="UTF-8" standalone="no"?>
<!-- Created with Inkscape (http://www.inkscape.org/) -->

<svg
   width="48"
   height="48"
   viewBox="0 0 48 48"
   version="1.1"
   id="svg1"
   xml:space="preserve"
   inkscape:version="1.3 (0e150ed, 2023-07-21)"
   sodipodi:docname="SlicePlanes.svg"
   inkscape:export-filename="PNG/SlicerUpArrowV1-24.png"
   inkscape:export-xdpi="48"
   inkscape:export-ydpi="48"
   xmlns:inkscape="http://www.inkscape.org/namespaces/inkscape"
   xmlns:sodipodi="http://sodipodi.sourceforge.net/DTD/sodipodi-0.dtd"
   xmlns="http://www.w3.org/2000/svg"
   xmlns:svg="http://www.w3.org/2000/svg"><sodipodi:namedview
     id="namedview1"
     pagecolor="#ffffff"
     bordercolor="#111111"
     borderopacity="1"
     inkscape:showpageshadow="0"
     inkscape:pageopacity="0"
     inkscape:pagecheckerboard="1"
     inkscape:deskcolor="#d1d1d1"
     inkscape:document-units="px"
     showgrid="true"
     inkscape:zoom="9.6170655"
     inkscape:cx="25.007628"
     inkscape:cy="23.96781"
     inkscape:window-width="1384"
     inkscape:window-height="773"
     inkscape:window-x="0"
     inkscape:window-y="25"
     inkscape:window-maximized="0"
     inkscape:current-layer="DarkThemeEnabledLayer"
     showguides="true"><inkscape:grid
       id="grid1"
       units="px"
       originx="0"
       originy="0"
       spacingx="2"
       spacingy="2"
       empcolor="#0099e5"
       empopacity="0.30196078"
       color="#0099e5"
       opacity="0.14902"
       empspacing="1"
       dotted="false"
       gridanglex="30"
       gridanglez="30"
       visible="true" /></sodipodi:namedview><defs
     id="defs1" /><g
     id="DarkThemeEnabledLayer"
     inkscape:label="DarkThemeEnabledLayer"
     inkscape:groupmode="layer"
     style="display:inline"
     sodipodi:insensitive="true"><path
       style="opacity:1;fill:none;stroke:#f7ce63;stroke-width:2;stroke-linecap:butt;stroke-linejoin:miter;stroke-dasharray:none;stroke-opacity:1"
       d="M 25.013878,1.9999999 V 45.999999"
       id="path2" /><path
       style="display:inline;opacity:1;fill:none;stroke:#8ed595;stroke-width:2;stroke-linecap:butt;stroke-linejoin:miter;stroke-dasharray:none;stroke-opacity:1"
       d="M 46,25.041303 H 4"
       id="path2-8" /><path
       id="path1"
       style="fill:#e5e5f6;fill-opacity:0.45;stroke:#e5e5f6;stroke-width:2.03274;paint-order:fill markers stroke"
       d="m 36.983629,25.910972 v 0 c 0,8.324532 -5.39655,15.072897 -12.053533,15.072898 -6.656983,-1e-6 -12.074246,-6.748393 -12.053533,-15.072898 0.008,-3.21195 0.598147,-6.060984 2.365132,-9.669446 1.188493,-2.427089 3.679074,-3.818729 6.306958,-4.90245 l 0.521479,-0.426833 c 0.252081,-0.204962 0.572679,-1.2278922 0.90173,-1.7773509 0.314844,-0.5257331 0.680699,-1.0445223 1.189354,-1.555638 0.469508,-0.4717794 0.919392,-0.595892 0.919392,-0.595892 0,0 0.449884,0.1241126 0.919392,0.595892 0.508656,0.5111156 0.87451,1.0299049 1.189354,1.555638 0.329052,0.5494587 0.649649,1.5723889 0.90173,1.7773509 l 0.317278,0.406066 c 2.552896,1.051573 5.205518,2.499368 6.49729,4.923218 1.094348,2.053408 2.077977,6.352002 2.077977,9.669445"
       sodipodi:nodetypes="csssscssscssscsc" /><ellipse
       style="display:inline;fill:none;fill-opacity:0.966805;stroke:#e5e5f6;stroke-width:1.00224;stroke-linecap:round;stroke-linejoin:round;stroke-dasharray:none;stroke-opacity:1;paint-order:fill markers stroke"
       id="path2-3"
       cx="35.53344"
       cy="33.67046"
       rx="0.5049895"
       ry="3.3827956"
       transform="matrix(0.97838153,-0.20680807,0.11345989,0.99354258,0,0)" /><ellipse
       style="display:inline;fill:none;fill-opacity:0.966805;stroke:#e5e5f6;stroke-width:1.00224;stroke-linecap:round;stroke-linejoin:round;stroke-dasharray:none;stroke-opacity:1;paint-order:fill markers stroke"
       id="path2-3-1"
       cx="-14.333864"
       cy="23.307734"
       rx="0.5049895"
       ry="3.3827956"
       transform="matrix(-0.97838153,-0.20680807,-0.11345989,0.99354258,0,0)" /><rect
       style="opacity:1;fill:none;fill-opacity:0.3;stroke:#ed726c;stroke-width:2;stroke-linecap:round;stroke-linejoin:round;stroke-dasharray:none;stroke-opacity:1;paint-order:fill markers stroke"
       id="rect3"
       width="35.972244"
       height="38"
       x="7.0277557"
       y="5" /></g></svg>
