<?xml version="1.0" encoding="UTF-8" standalone="no"?>
<!-- Created with Inkscape (http://www.inkscape.org/) -->

<svg
   width="48"
   height="48"
   viewBox="0 0 48 48"
   version="1.1"
   id="svg1"
   xml:space="preserve"
   inkscape:version="1.3 (0e150ed, 2023-07-21)"
   sodipodi:docname="SlicerConfigureV1.svg"
   inkscape:export-filename="../../../../../../Desktop/m-24.png"
   inkscape:export-xdpi="48"
   inkscape:export-ydpi="48"
   xmlns:inkscape="http://www.inkscape.org/namespaces/inkscape"
   xmlns:sodipodi="http://sodipodi.sourceforge.net/DTD/sodipodi-0.dtd"
   xmlns="http://www.w3.org/2000/svg"
   xmlns:svg="http://www.w3.org/2000/svg"><sodipodi:namedview
     id="namedview1"
     pagecolor="#ffffff"
     bordercolor="#111111"
     borderopacity="1"
     inkscape:showpageshadow="0"
     inkscape:pageopacity="0"
     inkscape:pagecheckerboard="1"
     inkscape:deskcolor="#d1d1d1"
     inkscape:document-units="px"
     showgrid="true"
     inkscape:zoom="13.560062"
     inkscape:cx="24.078062"
     inkscape:cy="24.92614"
     inkscape:window-width="1440"
     inkscape:window-height="773"
     inkscape:window-x="0"
     inkscape:window-y="25"
     inkscape:window-maximized="0"
     inkscape:current-layer="layer1"
     showguides="true"><inkscape:grid
       id="grid1"
       units="px"
       originx="0"
       originy="0"
       spacingx="1"
       spacingy="1"
       empcolor="#0099e5"
       empopacity="0.30196078"
       color="#0099e5"
       opacity="0.14901961"
       empspacing="2"
       dotted="false"
       gridanglex="30"
       gridanglez="30"
       visible="true" /><inkscape:grid
       id="grid2"
       units="px"
       originx="20"
       originy="20"
       spacingx="40"
       spacingy="40"
       empcolor="#cd0000"
       empopacity="0.30196078"
       color="#e5001a"
       opacity="0.14901961"
       empspacing="40"
       dotted="false"
       gridanglex="30"
       gridanglez="30"
       visible="true" /><sodipodi:guide
       position="27,40"
       orientation="-1,0"
       id="guide38"
       inkscape:locked="false" /></sodipodi:namedview><defs
     id="defs1"><inkscape:perspective
       sodipodi:type="inkscape:persp3d"
       inkscape:vp_x="0 : 24 : 1"
       inkscape:vp_y="0 : 1000 : 0"
       inkscape:vp_z="48 : 24 : 1"
       inkscape:persp3d-origin="24 : 16 : 1"
       id="perspective8" /></defs><g
     inkscape:label="Layer 1"
     inkscape:groupmode="layer"
     id="layer1"
     style="display:inline"><path
       id="path7-0"
       style="display:inline;fill:#ebebff;fill-opacity:1;stroke:#000000;stroke-width:2;stroke-linecap:round;stroke-linejoin:round;stroke-dasharray:none;paint-order:markers fill stroke"
       d="m 23.993659,43.05047 c -3.849218,-0.07594 -5.46332,-0.427021 -7.016172,-1.481107 l -0.09563,-7.276541 C 15.226466,33.031014 15.53279,33.458638 13.960483,32.095018 9.2125388,27.896719 7.6448955,18.840619 10.402824,12.584437 c 1.530761,-2.9667625 3.440728,-6.1176258 6.560763,-7.5171748 -6.46e-4,3.9807888 -9.2e-5,5.7129138 -2.76e-4,9.6942118 0.220115,4.004567 1.559335,5.651273 3.074866,6.08752 1.861866,0.174792 2.723593,0.10319 3.955482,0.11189 1.305636,0.06505 2.592391,0.0629 4.380511,-0.11189 1.242536,-0.540229 2.454751,-2.082953 2.674866,-6.08752 -1.85e-4,-3.981298 3.69e-4,-5.713423 -2.76e-4,-9.6942118 3.120034,1.3995488 5.202713,4.5504114 6.629492,7.5171748 2.757928,6.256182 1.396878,15.497431 -3.557658,19.510581 -1.196779,0.911729 -1.693609,1.323555 -3.090101,2.197804 l -0.13939,7.276541 c -1.323995,0.949481 -2.865139,1.300561 -6.897444,1.481107 z"
       sodipodi:nodetypes="ccccccccccccccccc" /></g></svg>
