<?xml version="1.0" encoding="UTF-8" standalone="no"?>
<!-- Created with Inkscape (http://www.inkscape.org/) -->

<svg
   width="48"
   height="48"
   viewBox="0 0 48 48"
   version="1.1"
   id="svg1"
   xml:space="preserve"
   inkscape:version="1.3 (0e150ed, 2023-07-21)"
   sodipodi:docname="SlicerCancelV1.svg"
   inkscape:export-filename="SlicerCloseV1-24.png"
   inkscape:export-xdpi="48"
   inkscape:export-ydpi="48"
   xmlns:inkscape="http://www.inkscape.org/namespaces/inkscape"
   xmlns:sodipodi="http://sodipodi.sourceforge.net/DTD/sodipodi-0.dtd"
   xmlns="http://www.w3.org/2000/svg"
   xmlns:svg="http://www.w3.org/2000/svg"><sodipodi:namedview
     id="namedview1"
     pagecolor="#ffffff"
     bordercolor="#111111"
     borderopacity="1"
     inkscape:showpageshadow="0"
     inkscape:pageopacity="0"
     inkscape:pagecheckerboard="1"
     inkscape:deskcolor="#d1d1d1"
     inkscape:document-units="px"
     showgrid="true"
     inkscape:zoom="6.378224"
     inkscape:cx="27.045146"
     inkscape:cy="25.86927"
     inkscape:window-width="1392"
     inkscape:window-height="773"
     inkscape:window-x="15"
     inkscape:window-y="25"
     inkscape:window-maximized="0"
     inkscape:current-layer="layer2"
     showguides="true"><inkscape:grid
       id="grid1"
       units="px"
       originx="0"
       originy="0"
       spacingx="1"
       spacingy="1"
       empcolor="#0099e5"
       empopacity="0.30196078"
       color="#0099e5"
       opacity="0.14901961"
       empspacing="1"
       dotted="false"
       gridanglex="30"
       gridanglez="30"
       visible="true" /></sodipodi:namedview><defs
     id="defs1" /><g
     inkscape:groupmode="layer"
     id="layer2"
     inkscape:label="IconLayer1"><path
       d="M 16.65385,32.44615 24,25.1 l 7.34615,7.34615 1.1,-1.1 L 25.1,24 l 7.34615,-7.34615 -1.1,-1.1 L 24,22.9 l -7.34615,-7.34615 -1.1,1.1 L 22.9,24 15.55385,31.34615 Z M 24.0067,42 q -3.7221,0 -6.9897,-1.41695 -3.26765,-1.417 -5.72405,-3.8711 Q 8.8366,34.25785 7.4183,30.9933 6.0000001,27.72875 6.0000001,24.0067 q 0,-3.73365 1.4169499,-7.0205 1.417,-3.28685 3.8711,-5.71825 2.4541,-2.43135 5.71865,-3.8496499 3.26455,-1.4183 6.9866,-1.4183 3.73365,0 7.0205,1.41695 3.28685,1.4169999 5.71825,3.8460999 2.43135,2.4291 3.84965,5.71285 Q 42,20.2597 42,23.9933 q 0,3.7221 -1.41695,6.9897 -1.417,3.26765 -3.8461,5.72405 Q 34.30785,39.1634 31.0241,40.5817 27.7403,42 24.0067,42 Z M 24,40.46155 q 6.86925,0 11.6654,-4.80195 4.79615,-4.8019 4.79615,-11.6596 0,-6.86925 -4.79615,-11.6654 Q 30.86925,7.53845 24,7.53845 q -6.8577,0 -11.6596,4.79615 Q 7.53845,17.13075 7.53845,24 q 0,6.8577 4.80195,11.6596 Q 17.1423,40.46155 24,40.46155 Z M 24,24 Z"
       id="path1"
       style="stroke-width:0.05" /></g></svg>
