<?xml version="1.0" encoding="UTF-8" standalone="no"?>
<!-- Created with Inkscape (http://www.inkscape.org/) -->

<svg
   width="48"
   height="48"
   viewBox="0 0 48 48"
   version="1.1"
   id="svg1"
   xml:space="preserve"
   inkscape:version="1.3 (0e150ed, 2023-07-21)"
   sodipodi:docname="SlicerDelete.svg"
   inkscape:export-filename="PNG/SlicerUpArrowV1-24.png"
   inkscape:export-xdpi="48"
   inkscape:export-ydpi="48"
   xmlns:inkscape="http://www.inkscape.org/namespaces/inkscape"
   xmlns:sodipodi="http://sodipodi.sourceforge.net/DTD/sodipodi-0.dtd"
   xmlns="http://www.w3.org/2000/svg"
   xmlns:svg="http://www.w3.org/2000/svg"><sodipodi:namedview
     id="namedview1"
     pagecolor="#ffffff"
     bordercolor="#111111"
     borderopacity="1"
     inkscape:showpageshadow="0"
     inkscape:pageopacity="0"
     inkscape:pagecheckerboard="1"
     inkscape:deskcolor="#d1d1d1"
     inkscape:document-units="px"
     showgrid="true"
     inkscape:zoom="8.9932959"
     inkscape:cx="37.750343"
     inkscape:cy="41.808921"
     inkscape:window-width="1392"
     inkscape:window-height="773"
     inkscape:window-x="15"
     inkscape:window-y="43"
     inkscape:window-maximized="0"
     inkscape:current-layer="layer2"
     showguides="true"><inkscape:grid
       id="grid1"
       units="px"
       originx="0"
       originy="0"
       spacingx="1"
       spacingy="1"
       empcolor="#0099e5"
       empopacity="0.30196078"
       color="#0099e5"
       opacity="0.14901961"
       empspacing="1"
       dotted="false"
       gridanglex="30"
       gridanglez="30"
       visible="true" /></sodipodi:namedview><defs
     id="defs1" /><g
     inkscape:groupmode="layer"
     id="layer2"
     inkscape:label="IconLayer1"><path
       d="m 12.789308,43.971323 c -0.910724,0 -1.806586,-0.242637 -2.368705,-1.00262 C 10,42.40005 10.017984,41.510722 10.017984,40.599998 V 9.9402759 H 7.0690498 V 8.0672495 h 9.2836342 c 0,0 15.277751,-0.05711 15.320948,0 h 9.283634 V 9.9402759 H 38.008332 V 40.599998 c 0,0.935681 -0.0083,1.651691 -0.383871,2.387454 -0.655914,0.655914 -1.451732,0.983871 -2.387453,0.983871 z M 36.135367,9.9402759 H 11.890949 L 11.751285,40.560094 c 0,-0.0019 -0.01548,1.116848 -0.01548,1.116848 0.296527,0.280944 0.647697,0.421416 1.053508,0.421416 h 22.4477 c 0.374605,0 0.450842,-0.09622 0.762992,-0.40837 0.212391,-0.252335 0.135367,-0.715425 0.135367,-1.08999 z M 16.184448,37.750685 h 1.873026 V 14.727077 h -1.873026 z m 13.784394,0 h 1.873025 V 14.727077 H 29.968842 Z M 11.890949,9.9402759 11.7358,41.676942 Z"
       id="path1"
       style="stroke-width:0.05"
       sodipodi:nodetypes="sssccccccccscssccccsscscccccccccccccc" /><rect
       style="fill:#7f7f7f;fill-opacity:1;stroke:#666666;stroke-width:0.1;stroke-linecap:round;stroke-linejoin:bevel;stroke-opacity:0.99811;paint-order:fill markers stroke"
       id="rect2"
       width="24.287853"
       height="2.0101399"
       x="11.883647"
       y="6" /><rect
       style="fill:#000000;fill-opacity:1;stroke:none;stroke-width:0.0999991;stroke-linecap:round;stroke-linejoin:bevel;stroke-opacity:0.99811;paint-order:fill markers stroke"
       id="rect2-3"
       width="12.174362"
       height="1.8983624"
       x="17.909956"
       y="4.1016378" /><path
       d="m 23.241876,37.78109 h 1.442237 V 14.757483 h -1.442237 z"
       style="stroke-width:0.05"
       id="path1-0"
       sodipodi:nodetypes="ccccc" /></g></svg>
