<?xml version="1.0" encoding="UTF-8" standalone="no"?>
<svg
   height="48"
   viewBox="0 0 48 48"
   width="48"
   version="1.1"
   id="svg1"
   sodipodi:docname="DICOMio-V13.svg"
   inkscape:version="1.3 (0e150ed, 2023-07-21)"
   inkscape:export-filename="../../../../../../Desktop/m-48.png"
   inkscape:export-xdpi="96"
   inkscape:export-ydpi="96"
   xml:space="preserve"
   xmlns:inkscape="http://www.inkscape.org/namespaces/inkscape"
   xmlns:sodipodi="http://sodipodi.sourceforge.net/DTD/sodipodi-0.dtd"
   xmlns="http://www.w3.org/2000/svg"
   xmlns:svg="http://www.w3.org/2000/svg"><defs
     id="defs1" /><sodipodi:namedview
     id="namedview1"
     pagecolor="#ffffff"
     bordercolor="#111111"
     borderopacity="1"
     inkscape:showpageshadow="0"
     inkscape:pageopacity="0"
     inkscape:pagecheckerboard="1"
     inkscape:deskcolor="#d1d1d1"
     showgrid="true"
     inkscape:zoom="6.279551"
     inkscape:cx="26.275764"
     inkscape:cy="32.566023"
     inkscape:window-width="1392"
     inkscape:window-height="773"
     inkscape:window-x="48"
     inkscape:window-y="25"
     inkscape:window-maximized="0"
     inkscape:current-layer="LightThemeEnabledLayer"
     showguides="true"><inkscape:grid
       id="grid1"
       units="px"
       originx="0"
       originy="0"
       spacingx="1"
       spacingy="1"
       empcolor="#0099e5"
       empopacity="0.30196078"
       color="#0099e5"
       opacity="0.14901961"
       empspacing="2"
       dotted="false"
       gridanglex="30"
       gridanglez="30"
       visible="true" /></sodipodi:namedview><g
     id="DarkThemeDisabledLayer"
     inkscape:groupmode="layer"
     inkscape:label="DarkThemeDisabledLayer"
     sodipodi:insensitive="true"
     style="display:none"><path
       style="display:inline;fill:#666666;stroke:#666666;stroke-width:2;stroke-linecap:round;stroke-linejoin:round;stroke-dasharray:none;stroke-opacity:1"
       d="m 33.095801,29.027848 -6.502965,6.402681 M 33.095801,29.027848 40.718952,36.6"
       id="path3-9-30-9-1"
       sodipodi:nodetypes="cccc"
       inkscape:label="path3-9-30" /><path
       style="display:inline;fill:#666666;stroke:#666666;stroke-width:2;stroke-linecap:round;stroke-linejoin:round;stroke-dasharray:none;stroke-opacity:1"
       d="m 17.04955,44.882179 6.502965,-6.402681 M 17.04955,44.882179 9.4263994,37.310027"
       id="path3-9-5-8"
       sodipodi:nodetypes="cccc"
       inkscape:label="path3-9" /><path
       style="display:inline;fill:none;stroke:#666666;stroke-width:2;stroke-linecap:round;stroke-linejoin:round;stroke-dasharray:none;stroke-opacity:1"
       d="M 33.018952,30.871416 V 45.044553"
       id="path1-7-5-9-4"
       sodipodi:nodetypes="cc" /><path
       style="display:inline;fill:none;stroke:#666666;stroke-width:2;stroke-linecap:round;stroke-linejoin:round;stroke-dasharray:none;stroke-opacity:1"
       d="M 16.959395,29.007392 V 43.924394"
       id="path1-7-0-9"
       sodipodi:nodetypes="cc" /><path
       style="display:inline;fill:none;stroke:#666666;stroke-width:2;stroke-linecap:butt;stroke-linejoin:miter;stroke-dasharray:none;stroke-opacity:1"
       d="M 35.018952,7.3018978 V 19.95"
       id="path3-3-9-7"
       inkscape:label="path3-3" /><path
       style="display:inline;fill:none;stroke:#666666;stroke-width:2;stroke-linecap:butt;stroke-linejoin:miter;stroke-dasharray:none;stroke-opacity:1"
       d="M 12.968952,6.9500003 V 20.167012"
       id="path3-34-3" /><path
       id="path2-7-0-1"
       style="display:inline;fill:none;stroke:#666666;stroke-width:2;stroke-linecap:round;stroke-linejoin:round;paint-order:fill markers stroke"
       d="m 12.968952,19.95 a 11,4 0 0 0 11,4 11,4 0 0 0 11,-4" /><path
       id="path2-75-0"
       style="display:inline;fill:none;stroke:#666666;stroke-width:2;stroke-linecap:round;stroke-linejoin:round;paint-order:fill markers stroke"
       d="m 12.968952,7.05 a 11,4 0 0 1 11,-4 11,4 0 0 1 11,4" /><path
       id="path1-6-7-2"
       style="display:inline;fill:none;stroke:#666666;stroke-width:2;stroke-linecap:round;stroke-linejoin:round;paint-order:fill markers stroke"
       d="m 34.968952,13.541273 v 0 a 11,4 0 0 1 -11,4 11,4 0 0 1 -11,-4" /><path
       id="path1-5-3"
       style="display:inline;fill:none;stroke:#666666;stroke-width:2;stroke-linecap:round;stroke-linejoin:round;paint-order:fill markers stroke"
       d="m 34.968952,7.05 v 0 a 11,4 0 0 1 -11,4 11,4 0 0 1 -11,-4" /><path
       style="display:inline;fill:none;stroke:#666666;stroke-width:2;stroke-linecap:butt;stroke-linejoin:miter;stroke-dasharray:none;stroke-opacity:1"
       d="m 23.004804,38.977787 4.009343,-3.955574"
       id="path4-8-6-7"
       sodipodi:nodetypes="cc" /></g><g
     id="LightThemeDisabledLayer"
     inkscape:groupmode="layer"
     inkscape:label="LightThemeDisabledLayer"
     style="display:none"
     sodipodi:insensitive="true"><path
       style="display:inline;fill:#666666;stroke:#b2b2b2;stroke-width:2;stroke-linecap:round;stroke-linejoin:round;stroke-dasharray:none;stroke-opacity:1"
       d="M 33.086325,29.027848 26.58336,35.430529 M 33.086325,29.027848 40.709476,36.6"
       id="path3-9-30-9"
       sodipodi:nodetypes="cccc"
       inkscape:label="path3-9-30" /><path
       style="display:inline;fill:#666666;stroke:#b2b2b2;stroke-width:2;stroke-linecap:round;stroke-linejoin:round;stroke-dasharray:none;stroke-opacity:1"
       d="m 17.040074,44.882179 6.502965,-6.402681 m -6.502965,6.402681 -7.6231506,-7.572152"
       id="path3-9-5"
       sodipodi:nodetypes="cccc"
       inkscape:label="path3-9" /><path
       style="display:inline;fill:none;stroke:#b2b2b2;stroke-width:2;stroke-linecap:round;stroke-linejoin:round;stroke-dasharray:none;stroke-opacity:1"
       d="M 33.009476,30.871416 V 45.044553"
       id="path1-7-5-9"
       sodipodi:nodetypes="cc" /><path
       style="display:inline;fill:none;stroke:#b2b2b2;stroke-width:2;stroke-linecap:round;stroke-linejoin:round;stroke-dasharray:none;stroke-opacity:1"
       d="M 16.949919,29.007392 V 43.924394"
       id="path1-7-0"
       sodipodi:nodetypes="cc" /><path
       style="display:inline;fill:none;stroke:#b2b2b2;stroke-width:2;stroke-linecap:butt;stroke-linejoin:miter;stroke-dasharray:none;stroke-opacity:1"
       d="M 35.009476,7.3018978 V 19.95"
       id="path3-3-9"
       inkscape:label="path3-3" /><path
       style="display:inline;fill:none;stroke:#b2b2b2;stroke-width:2;stroke-linecap:butt;stroke-linejoin:miter;stroke-dasharray:none;stroke-opacity:1"
       d="M 12.959476,6.9500003 V 20.167012"
       id="path3-34" /><path
       id="path2-7-0"
       style="display:inline;fill:none;stroke:#b2b2b2;stroke-width:2;stroke-linecap:round;stroke-linejoin:round;paint-order:fill markers stroke"
       d="m 12.959476,19.95 a 11,4 0 0 0 11,4 11,4 0 0 0 11,-4" /><path
       id="path2-75"
       style="display:inline;fill:none;stroke:#b2b2b2;stroke-width:2;stroke-linecap:round;stroke-linejoin:round;paint-order:fill markers stroke"
       d="m 12.959476,7.05 a 11,4 0 0 1 11,-4 11,4 0 0 1 11,4" /><path
       id="path1-6-7"
       style="display:inline;fill:none;stroke:#b2b2b2;stroke-width:2;stroke-linecap:round;stroke-linejoin:round;paint-order:fill markers stroke"
       d="m 34.959476,13.541273 v 0 a 11,4 0 0 1 -11,4 11,4 0 0 1 -11,-4" /><path
       id="path1-5"
       style="display:inline;fill:none;stroke:#b2b2b2;stroke-width:2;stroke-linecap:round;stroke-linejoin:round;paint-order:fill markers stroke"
       d="m 34.959476,7.05 v 0 a 11,4 0 0 1 -11,4 11,4 0 0 1 -11,-4" /><path
       style="display:inline;fill:none;stroke:#e8e8ff;stroke-width:2;stroke-linecap:butt;stroke-linejoin:miter;stroke-dasharray:none;stroke-opacity:1"
       d="m 22.995328,38.977787 4.009343,-3.955574"
       id="path4-8-6"
       sodipodi:nodetypes="cc" /></g><g
     id="DarkThemeEnabledLayer"
     inkscape:groupmode="layer"
     inkscape:label="DarkThemeEnabledLayer"
     style="display:none"
     sodipodi:insensitive="true"><path
       style="display:inline;fill:none;stroke:#b2b2b2;stroke-width:2;stroke-linecap:butt;stroke-linejoin:miter;stroke-dasharray:none;stroke-opacity:1"
       d="m 23.59312,38.472106 4.009343,-3.955574"
       id="path4-8"
       sodipodi:nodetypes="cc" /><path
       style="display:inline;fill:#666666;stroke:#e5e5f6;stroke-width:2;stroke-linecap:round;stroke-linejoin:round;stroke-dasharray:none;stroke-opacity:1"
       d="m 33.136406,29.020456 -6.502965,6.402681 m 6.502965,-6.402681 7.623151,7.572152"
       id="path3-9-30-2"
       sodipodi:nodetypes="cccc"
       inkscape:label="path3-9-30" /><path
       style="display:inline;fill:#666666;stroke:#e5e5f6;stroke-width:2;stroke-linecap:round;stroke-linejoin:round;stroke-dasharray:none;stroke-opacity:1"
       d="M 17.090155,44.874787 23.59312,38.472106 M 17.090155,44.874787 9.4670044,37.302635"
       id="path3-9-9"
       sodipodi:nodetypes="cccc"
       inkscape:label="path3-9" /><path
       style="display:inline;fill:none;stroke:#e5e5f6;stroke-width:2;stroke-linecap:round;stroke-linejoin:round;stroke-dasharray:none;stroke-opacity:1"
       d="M 33.059557,30.864024 V 45.037161"
       id="path1-7-5-8"
       sodipodi:nodetypes="cc" /><path
       style="display:inline;fill:none;stroke:#e5e5f6;stroke-width:2;stroke-linecap:round;stroke-linejoin:round;stroke-dasharray:none;stroke-opacity:1"
       d="M 17,29 V 43.917002"
       id="path1-7-2"
       sodipodi:nodetypes="cc" /><path
       style="display:inline;fill:none;stroke:#e5e5f6;stroke-width:2;stroke-linecap:butt;stroke-linejoin:miter;stroke-dasharray:none;stroke-opacity:1"
       d="M 35.059557,7.2945058 V 19.942608"
       id="path3-3-0"
       inkscape:label="path3-3" /><path
       style="display:inline;fill:none;stroke:#e5e5f6;stroke-width:2;stroke-linecap:butt;stroke-linejoin:miter;stroke-dasharray:none;stroke-opacity:1"
       d="M 13,6.7829883 V 20"
       id="path3-7" /><path
       id="path2-7-4"
       style="display:inline;fill:none;stroke:#e5e5f6;stroke-width:2;stroke-linecap:round;stroke-linejoin:round;paint-order:fill markers stroke"
       d="m 13.009557,19.942608 a 11,4 0 0 0 11,4 11,4 0 0 0 11,-4" /><path
       id="path2-8"
       style="display:inline;fill:none;stroke:#e5e5f6;stroke-width:2;stroke-linecap:round;stroke-linejoin:round;paint-order:fill markers stroke"
       d="m 13.009557,7.042608 a 11,4 0 0 1 11,-4 11,4 0 0 1 11,4" /><path
       id="path1-6-5"
       style="display:inline;fill:none;stroke:#e5e5f6;stroke-width:2;stroke-linecap:round;stroke-linejoin:round;paint-order:fill markers stroke"
       d="m 35.009557,13.533881 v 0 a 11,4 0 0 1 -11,4 11,4 0 0 1 -11,-4" /><path
       id="path1-8"
       style="display:inline;fill:none;stroke:#e5e5f6;stroke-width:2;stroke-linecap:round;stroke-linejoin:round;paint-order:fill markers stroke"
       d="m 35.009557,7.042608 v 0 a 11,4 0 0 1 -11,4 11,4 0 0 1 -11,-4" /></g><g
       id="LightThemeEnabledLayer"
       inkscape:groupmode="layer"
       inkscape:label="LightThemeEnabledLayer"
       style="display:inline"
       sodipodi:insensitive="true"><path
       style="fill:#666666;stroke:#000000;stroke-width:2;stroke-linecap:round;stroke-linejoin:round;stroke-dasharray:none;stroke-opacity:1"
       d="m 33.126849,29.027848 -6.502965,6.402681 M 33.126849,29.027848 40.75,36.6"
       id="path3-9-30"
       sodipodi:nodetypes="cccc"
       inkscape:label="path3-9-30" /><path
       style="fill:#666666;stroke:#000000;stroke-width:2;stroke-linecap:round;stroke-linejoin:round;stroke-dasharray:none;stroke-opacity:1"
       d="m 17.080598,44.882179 6.502965,-6.402681 m -6.502965,6.402681 -7.6231506,-7.572152"
       id="path3-9"
       sodipodi:nodetypes="cccc"
       inkscape:label="path3-9" /><path
       style="fill:none;stroke:#000000;stroke-width:2;stroke-linecap:round;stroke-linejoin:round;stroke-dasharray:none;stroke-opacity:1"
       d="M 33.05,30.871416 V 45.044553"
       id="path1-7-5"
       sodipodi:nodetypes="cc" /><path
       style="fill:none;stroke:#000000;stroke-width:2;stroke-linecap:round;stroke-linejoin:round;stroke-dasharray:none;stroke-opacity:1"
       d="M 16.990443,29.007392 V 43.924394"
       id="path1-7"
       sodipodi:nodetypes="cc" /><path
       style="fill:none;stroke:#000000;stroke-width:2;stroke-linecap:butt;stroke-linejoin:miter;stroke-dasharray:none;stroke-opacity:1"
       d="M 35.05,7.3018978 V 19.95"
       id="path3-3"
       inkscape:label="path3-3" /><path
       style="fill:none;stroke:#000000;stroke-width:2;stroke-linecap:butt;stroke-linejoin:miter;stroke-dasharray:none;stroke-opacity:1"
       d="M 13,6.9500003 V 20.167012"
       id="path3" /><path
       id="path2-7"
       style="fill:none;stroke:#000000;stroke-width:2;stroke-linecap:round;stroke-linejoin:round;paint-order:fill markers stroke"
       d="m 13,19.95 a 11,4 0 0 0 11,4 11,4 0 0 0 11,-4" /><path
       id="path2"
       style="fill:none;stroke:#000000;stroke-width:2;stroke-linecap:round;stroke-linejoin:round;paint-order:fill markers stroke"
       d="m 13,7.05 a 11,4 0 0 1 11,-4 11,4 0 0 1 11,4" /><path
       id="path1-6"
       style="fill:none;stroke:#000000;stroke-width:2;stroke-linecap:round;stroke-linejoin:round;paint-order:fill markers stroke"
       d="m 35,13.541273 v 0 a 11,4 0 0 1 -11,4 11,4 0 0 1 -11,-4" /><path
       id="path1"
       style="fill:none;stroke:#000000;stroke-width:2;stroke-linecap:round;stroke-linejoin:round;paint-order:fill markers stroke"
       d="m 35,7.05 v 0 a 11,4 0 0 1 -11,4 11,4 0 0 1 -11,-4" /></g></svg>
