<?xml version="1.0" encoding="UTF-8" standalone="no"?>
<!-- Created with Inkscape (http://www.inkscape.org/) -->

<svg
   width="48"
   height="48"
   viewBox="0 0 48 48"
   version="1.1"
   id="svg1"
   xml:space="preserve"
   inkscape:version="1.3 (0e150ed, 2023-07-21)"
   sodipodi:docname="SlicerToggleLink.svg"
   inkscape:export-filename="PNG/SlicerUpArrowV1-24.png"
   inkscape:export-xdpi="48"
   inkscape:export-ydpi="48"
   xmlns:inkscape="http://www.inkscape.org/namespaces/inkscape"
   xmlns:sodipodi="http://sodipodi.sourceforge.net/DTD/sodipodi-0.dtd"
   xmlns="http://www.w3.org/2000/svg"
   xmlns:svg="http://www.w3.org/2000/svg"><sodipodi:namedview
     id="namedview1"
     pagecolor="#ffffff"
     bordercolor="#111111"
     borderopacity="1"
     inkscape:showpageshadow="0"
     inkscape:pageopacity="0"
     inkscape:pagecheckerboard="1"
     inkscape:deskcolor="#d1d1d1"
     inkscape:document-units="px"
     showgrid="true"
     inkscape:zoom="6.8614395"
     inkscape:cx="25.650594"
     inkscape:cy="26.306433"
     inkscape:window-width="1384"
     inkscape:window-height="773"
     inkscape:window-x="56"
     inkscape:window-y="25"
     inkscape:window-maximized="0"
     inkscape:current-layer="LightThemeEnabledLayer"
     showguides="true"><inkscape:grid
       id="grid1"
       units="px"
       originx="0"
       originy="0"
       spacingx="2"
       spacingy="2"
       empcolor="#0099e5"
       empopacity="0.30196078"
       color="#0099e5"
       opacity="0.14902"
       empspacing="1"
       dotted="false"
       gridanglex="30"
       gridanglez="30"
       visible="true" /></sodipodi:namedview><defs
     id="defs1" /><g
     inkscape:label="LightThemeEnabledLayer"
     id="LightThemeEnabledLayer"
     inkscape:groupmode="layer"
     style="display:inline"
     sodipodi:insensitive="true"><rect
       style="display:inline;fill:#808080;fill-opacity:1;stroke:none;stroke-width:1;stroke-linejoin:round;stroke-dasharray:none;stroke-opacity:1;paint-order:markers fill stroke"
       id="rect1-0-2"
       width="1.5"
       height="24"
       x="24"
       y="12" /><path
       id="rect8-4-1-3"
       style="display:inline;fill:none;stroke:#000000;stroke-width:2;stroke-linecap:round;stroke-linejoin:round;stroke-dasharray:none;paint-order:markers fill stroke"
       d="m 11.690561,27.175867 c -0.22422,0.05243 -0.45495,0.07973 -0.690562,0.07973 C 8.7840038,27.255599 7.0000007,24.839599 7,21.838564 l 3e-7,-3.421526 c 8e-7,-3.001037 1.7840032,-5.417039 3.9999997,-5.417039 2.215997,0 4,2.416003 4,5.417036 v 0 3.421536 c 0,0.769635 -0.11733,1.500794 -0.3292,2.162587" /><path
       id="rect8-5-99-12-5"
       style="display:inline;fill:none;stroke:#000000;stroke-width:2;stroke-linecap:round;stroke-linejoin:round;stroke-dasharray:none;paint-order:markers fill stroke"
       d="m 10.555592,22.974276 c 0.224219,-0.05243 0.454951,-0.07973 0.690562,-0.07973 C 13.462152,22.894549 15,25.160399 15,28.161436 v 3.421534 c 0,3.001033 -1.784002,5.417033 -4.000001,5.417033 -2.215996,0 -3.9999988,-2.416 -3.9999988,-5.417033 v 0 l 1.5e-6,-3.421533 c -1.1e-6,-0.769632 0.1173284,-1.50079 0.3291941,-2.162587"
       sodipodi:nodetypes="cssssscsc" /><path
       id="path7-4-8"
       style="display:inline;fill:none;stroke:#000000;stroke-width:2;stroke-linecap:round;stroke-linejoin:round;stroke-dasharray:none;paint-order:markers fill stroke"
       d="M 35.013544,21.999413 C 35.004582,21.855335 35,21.709574 35,21.562359 V 18.247756 C 34.999997,15.340507 36.784004,13 38.999998,13 41.215992,13 43,15.340508 43,18.247753 v 0 1.99033" /><path
       id="path7-8-5-4"
       style="display:inline;fill:none;stroke:#000000;stroke-width:2;stroke-linecap:round;stroke-linejoin:round;stroke-dasharray:none;paint-order:markers fill stroke"
       d="M 42.986456,28.004429 C 42.995418,28.148507 43,28.294268 43,28.441483 v 3.314603 c 3e-6,2.907249 -1.784004,5.247756 -3.999998,5.247756 C 36.784008,37.003842 35,34.663334 35,31.756089 v 0 -1.99033" /></g></svg>
