<?xml version="1.0" encoding="UTF-8" standalone="no"?>
<!-- Created with Inkscape (http://www.inkscape.org/) -->

<svg
   width="48"
   height="48"
   viewBox="0 0 48 48"
   version="1.1"
   id="svg1"
   xml:space="preserve"
   inkscape:version="1.3 (0e150ed, 2023-07-21)"
   sodipodi:docname="SlicerSlicePlanesOptionsV2.svg"
   inkscape:export-filename="../../../../../../Desktop/m-24.png"
   inkscape:export-xdpi="48"
   inkscape:export-ydpi="48"
   xmlns:inkscape="http://www.inkscape.org/namespaces/inkscape"
   xmlns:sodipodi="http://sodipodi.sourceforge.net/DTD/sodipodi-0.dtd"
   xmlns="http://www.w3.org/2000/svg"
   xmlns:svg="http://www.w3.org/2000/svg"><sodipodi:namedview
     id="namedview1"
     pagecolor="#ffffff"
     bordercolor="#111111"
     borderopacity="1"
     inkscape:showpageshadow="0"
     inkscape:pageopacity="0"
     inkscape:pagecheckerboard="1"
     inkscape:deskcolor="#d1d1d1"
     inkscape:document-units="px"
     showgrid="true"
     inkscape:zoom="9.6170655"
     inkscape:cx="12.841755"
     inkscape:cy="38.369292"
     inkscape:window-width="1440"
     inkscape:window-height="771"
     inkscape:window-x="-333"
     inkscape:window-y="378"
     inkscape:window-maximized="0"
     inkscape:current-layer="layer4"
     showguides="false"><inkscape:grid
       id="grid1"
       units="px"
       originx="0"
       originy="0"
       spacingx="1"
       spacingy="1"
       empcolor="#0099e5"
       empopacity="0.30196078"
       color="#0099e5"
       opacity="0.14901961"
       empspacing="2"
       dotted="false"
       gridanglex="30"
       gridanglez="30"
       visible="true" /><inkscape:grid
       id="grid2"
       units="px"
       originx="20"
       originy="20"
       spacingx="40"
       spacingy="40"
       empcolor="#cd0000"
       empopacity="0.30196078"
       color="#e5001a"
       opacity="0.14901961"
       empspacing="40"
       dotted="false"
       gridanglex="30"
       gridanglez="30"
       visible="true" /></sodipodi:namedview><defs
     id="defs1"><inkscape:perspective
       sodipodi:type="inkscape:persp3d"
       inkscape:vp_x="0 : 24 : 1"
       inkscape:vp_y="0 : 1000 : 0"
       inkscape:vp_z="48 : 24 : 1"
       inkscape:persp3d-origin="24 : 16 : 1"
       id="perspective8" /></defs><g
     inkscape:groupmode="layer"
     id="layer4"
     inkscape:label="SlicerSlicePlanesOptions 1"><path
       style="fill:none;fill-opacity:1;stroke:#78e192;stroke-width:2;stroke-linecap:butt;stroke-linejoin:round;stroke-dasharray:none;stroke-opacity:1"
       d="M 11.05,31.92382 V 24.476179 L 4.673312,28.359384 Z"
       id="path19"
       sodipodi:nodetypes="cccc" /><path
       id="path3-0-2"
       style="display:inline;fill:#dcdce6;fill-opacity:1;stroke:none;stroke-width:1;stroke-linecap:butt;stroke-linejoin:round;stroke-dasharray:none;stroke-opacity:1"
       d="M 19.03125 28.396484 A 8.5190452 4.734106 0 0 0 19.316406 28.792969 A 8.5190452 4.734106 0 0 0 19.833984 29.310547 A 8.5190452 4.734106 0 0 0 20.462891 29.789062 A 8.5190452 4.734106 0 0 0 21.195312 30.222656 A 8.5190452 4.734106 0 0 0 22.015625 30.599609 A 8.5190452 4.734106 0 0 0 22.919922 30.916016 A 8.5190452 4.734106 0 0 0 23.886719 31.167969 A 8.5190452 4.734106 0 0 0 24.900391 31.351562 A 8.5190452 4.734106 0 0 0 25.951172 31.462891 A 8.5190452 4.734106 0 0 0 27.015625 31.5 A 8.5190452 4.734106 0 0 0 28.080078 31.462891 A 8.5190452 4.734106 0 0 0 29.130859 31.351562 A 8.5190452 4.734106 0 0 0 30.146484 31.167969 A 8.5190452 4.734106 0 0 0 31.113281 30.916016 A 8.5190452 4.734106 0 0 0 32.015625 30.599609 A 8.5190452 4.734106 0 0 0 32.837891 30.222656 A 8.5190452 4.734106 0 0 0 33.570312 29.789062 A 8.5190452 4.734106 0 0 0 34.199219 29.310547 A 8.5190452 4.734106 0 0 0 34.714844 28.792969 A 8.5190452 4.734106 0 0 0 35.111328 28.242188 A 8.5190452 4.734106 0 0 0 35.378906 27.666016 A 8.5190452 4.734106 0 0 0 35.5 27.148438 A 8.5005532 9.9090996 0 0 0 35.400391 25.880859 A 8.5005532 9.9090996 0 0 0 35.164062 24.636719 A 8.5005532 9.9090996 0 0 0 34.791016 23.439453 A 8.5005532 9.9090996 0 0 0 34.291016 22.308594 A 8.5005532 9.9090996 0 0 0 33.669922 21.261719 A 8.5005532 9.9090996 0 0 0 32.9375 20.316406 A 8.5005532 9.9090996 0 0 0 32.109375 19.488281 A 8.5005532 9.9090996 0 0 0 31.195312 18.789062 A 8.5005532 9.9090996 0 0 0 30.212891 18.234375 A 8.5005532 9.9090996 0 0 0 29.177734 17.830078 A 8.5005532 9.9090996 0 0 0 28.105469 17.583984 A 8.5005532 9.9090996 0 0 0 27.015625 17.5 A 8.5005532 9.9090996 0 0 0 25.925781 17.583984 A 8.5005532 9.9090996 0 0 0 24.855469 17.830078 A 8.5005532 9.9090996 0 0 0 23.818359 18.234375 A 8.5005532 9.9090996 0 0 0 22.835938 18.789062 A 8.5005532 9.9090996 0 0 0 21.923828 19.488281 A 8.5005532 9.9090996 0 0 0 21.09375 20.316406 A 8.5005532 9.9090996 0 0 0 20.363281 21.261719 A 8.5005532 9.9090996 0 0 0 19.742188 22.308594 A 8.5005532 9.9090996 0 0 0 19.240234 23.439453 A 8.5005532 9.9090996 0 0 0 19.03125 24.113281 L 19.03125 28.396484 z " /><path
       id="path26"
       style="display:inline;fill:none;fill-opacity:1;stroke:#fd9797;stroke-width:2;stroke-linecap:butt;stroke-linejoin:round;stroke-dasharray:none;stroke-opacity:1"
       d="m 40.886719,32.773438 -8.935938,5.347265 8.935938,4.799219 z"
       sodipodi:nodetypes="cccc" /><path
       id="path5"
       style="display:inline;fill:none;fill-opacity:1;stroke:#fd9797;stroke-width:2;stroke-linecap:round;stroke-linejoin:round;stroke-dasharray:none;stroke-opacity:1"
       d="m 27.266321,17.504814 c 0.280666,0.01022 0.560725,0.03664 0.839148,0.07917 0.36158,0.05514 0.719742,0.137337 1.072265,0.246094 0.352127,0.108771 0.697893,0.243815 1.035157,0.404297 0.33733,0.160169 0.66548,0.345447 0.982421,0.554687 0.317243,0.209967 0.622562,0.443523 0.914063,0.699219 0.29097,0.255084 0.567581,0.531696 0.828125,0.828125 0.26128,0.296467 0.505926,0.612224 0.732422,0.945313 0.226064,0.333082 0.433523,0.682761 0.621094,1.046875 0.187275,0.364079 0.354286,0.74181 0.5,1.130859 0.146248,0.389349 0.270854,0.789264 0.373046,1.197266 0.101593,0.408373 0.180533,0.823946 0.236329,1.24414 0.04622,0.365036 0.07491,0.682797 0.08594,1.051563 l 0.865234,0.146484 4.535157,2.495313 V 16.990234 L 19.03125,5.0820312 v 0 V 14.1"
       sodipodi:nodetypes="ccccccccccccccccccc" /><path
       id="path3-0"
       style="display:inline;fill:#dcdce6;fill-opacity:1;stroke:none;stroke-width:2;stroke-linecap:butt;stroke-linejoin:round;stroke-dasharray:none;stroke-opacity:1"
       d="M 27.066406 17.503906 A 8.5005532 9.9090996 0 0 0 27.015625 17.5 A 8.5005532 9.9090996 0 0 0 25.925781 17.583984 A 8.5005532 9.9090996 0 0 0 24.855469 17.830078 A 8.5005532 9.9090996 0 0 0 23.818359 18.234375 A 8.5005532 9.9090996 0 0 0 22.835938 18.789062 A 8.5005532 9.9090996 0 0 0 21.923828 19.488281 A 8.5005532 9.9090996 0 0 0 21.09375 20.316406 A 8.5005532 9.9090996 0 0 0 20.363281 21.261719 A 8.5005532 9.9090996 0 0 0 19.742188 22.308594 A 8.5005532 9.9090996 0 0 0 19.240234 23.439453 A 8.5005532 9.9090996 0 0 0 18.869141 24.636719 A 8.5005532 9.9090996 0 0 0 18.630859 25.880859 A 8.5005532 9.9090996 0 0 0 18.533203 27.128906 L 27.066406 22.134766 L 27.066406 17.503906 z " /><path
       id="path25"
       style="display:inline;fill:none;fill-opacity:1;stroke:#fbf09d;stroke-width:2;stroke-linecap:butt;stroke-linejoin:round;stroke-dasharray:none;stroke-opacity:1"
       d="M 27.366406,9.5664062 11.034375,19.613281 v 23.580078 l 9.553125,-5.755078 -9.949219,-5.746875 8.194922,-4.8125 c 0.0099,-0.418001 0.04255,-0.78485 0.09766,-1.198047 0.05644,-0.420245 0.136029,-0.635818 0.238282,-1.04414 0.101556,-0.407948 0.225509,-0.807862 0.371093,-1.197266 0.146348,-0.389107 0.314012,-0.76684 0.501954,-1.130859 0.187571,-0.364114 0.39503,-0.713793 0.621093,-1.046875 0.225867,-0.333019 0.469859,-0.648774 0.730469,-0.945313 0.261173,-0.296506 0.538438,-0.573118 0.830078,-0.828125 0.290871,-0.255613 0.595536,-0.489168 0.91211,-0.699219 0.316941,-0.20924 0.645091,-0.394518 0.982421,-0.554687 0.337901,-0.160574 0.684321,-0.295619 1.03711,-0.404297 0.351882,-0.108661 0.709389,-0.190862 1.070312,-0.246094 0.361361,-0.0552 0.725394,-0.08325 1.089844,-0.08398 0.01693,0.0012 0.03386,0.0025 0.05078,0.0039 z"
       sodipodi:nodetypes="cccccccccccccccccccc" /><path
       id="path20"
       style="fill:none;fill-opacity:1;stroke:#78e192;stroke-width:2;stroke-linecap:butt;stroke-linejoin:round;stroke-dasharray:none;stroke-opacity:1"
       d="m 18.457422,27.1375 -7.869141,4.503906 16.259766,9.392578 16.84375,-9.880859 -8.314453,-4.585937 a 8.5005532,9.9090996 0 0 1 0.04687,0.607422 8.5190452,4.734106 0 0 1 -0.121094,0.517578 8.5190452,4.734106 0 0 1 -0.267578,0.576172 8.5190452,4.734106 0 0 1 -0.396484,0.550781 8.5190452,4.734106 0 0 1 -0.515625,0.517578 8.5190452,4.734106 0 0 1 -0.628907,0.478515 8.5190452,4.734106 0 0 1 -0.732421,0.433594 8.5190452,4.734106 0 0 1 -0.822266,0.376953 8.5190452,4.734106 0 0 1 -0.902344,0.316407 8.5190452,4.734106 0 0 1 -0.966797,0.251953 8.5190452,4.734106 0 0 1 -1.015625,0.183593 8.5190452,4.734106 0 0 1 -1.050781,0.111329 8.5190452,4.734106 0 0 1 -1.064453,0.03711 8.5190452,4.734106 0 0 1 -1.064453,-0.03711 8.5190452,4.734106 0 0 1 -1.050781,-0.111329 8.5190452,4.734106 0 0 1 -1.013672,-0.183593 8.5190452,4.734106 0 0 1 -0.966797,-0.251953 8.5190452,4.734106 0 0 1 -0.904297,-0.316407 8.5190452,4.734106 0 0 1 -0.820313,-0.376953 8.5190452,4.734106 0 0 1 -0.732421,-0.433594 8.5190452,4.734106 0 0 1 -0.628907,-0.478515 8.5190452,4.734106 0 0 1 -0.517578,-0.517578 8.5190452,4.734106 0 0 1 -0.396484,-0.550781 8.5190452,4.734106 0 0 1 -0.267578,-0.576172 8.5190452,4.734106 0 0 1 -0.121094,-0.517578 8.5005532,9.9090996 0 0 1 0.002,-0.03711 z" /></g></svg>
