<?xml version="1.0" encoding="UTF-8" standalone="no"?>
<svg
   height="48"
   viewBox="0 0 48 48"
   width="48"
   version="1.1"
   id="svg1"
   sodipodi:docname="DICOMio-V9-Disabled.svg"
   inkscape:version="1.3 (0e150ed, 2023-07-21)"
   inkscape:export-filename="../../../../../../../Desktop/m-24.png"
   inkscape:export-xdpi="48"
   inkscape:export-ydpi="48"
   xmlns:inkscape="http://www.inkscape.org/namespaces/inkscape"
   xmlns:sodipodi="http://sodipodi.sourceforge.net/DTD/sodipodi-0.dtd"
   xmlns="http://www.w3.org/2000/svg"
   xmlns:svg="http://www.w3.org/2000/svg">
  <defs
     id="defs1" />
  <sodipodi:namedview
     id="namedview1"
     pagecolor="#ffffff"
     bordercolor="#111111"
     borderopacity="1"
     inkscape:showpageshadow="0"
     inkscape:pageopacity="0"
     inkscape:pagecheckerboard="1"
     inkscape:deskcolor="#d1d1d1"
     showgrid="true"
     inkscape:zoom="6.8206137"
     inkscape:cx="21.845541"
     inkscape:cy="25.071058"
     inkscape:window-width="1392"
     inkscape:window-height="773"
     inkscape:window-x="48"
     inkscape:window-y="25"
     inkscape:window-maximized="0"
     inkscape:current-layer="svg1">
    <inkscape:grid
       id="grid1"
       units="px"
       originx="0"
       originy="0"
       spacingx="1"
       spacingy="1"
       empcolor="#0099e5"
       empopacity="0.30196078"
       color="#0099e5"
       opacity="0.14901961"
       empspacing="2"
       dotted="false"
       gridanglex="30"
       gridanglez="30"
       visible="true" />
  </sodipodi:namedview>
  <circle
     style="opacity:1;fill:#f5f5ff;fill-opacity:1;stroke:none;stroke-width:2;stroke-linejoin:round;paint-order:fill markers stroke"
     id="path6"
     cx="24"
     cy="24"
     r="19" />
  <path
     id="path2"
     style="fill:#e0e0f2;stroke:#000000;stroke-width:2.00001;stroke-linejoin:round;stroke-opacity:0;paint-order:fill markers stroke"
     d="m 17,6.4042969 a 18.999996,18.999996 0 0 0 -6.435547,4.1601561 18.999996,18.999996 0 0 0 -1e-6,26.871094 18.999996,18.999996 0 0 0 26.871095,0 A 18.999996,18.999996 0 0 0 41.636719,31 L 17,31 Z" />
  <path
     id="path10"
     style="fill:none;stroke:#bfbfbf;stroke-width:1.75;stroke-linecap:round;stroke-linejoin:round;stroke-dasharray:none;paint-order:fill markers stroke"
     d="M 42.324696,26.001463 A 18.433674,18.433674 0 0 1 24,42.433674 18.433674,18.433674 0 0 1 5.566326,24 18.433674,18.433674 0 0 1 21.727778,5.7069046" />
  <path
     d="m 10.579357,17.570329 h 1.73284 c 3.248074,0 4.772111,1.958433 4.772111,5.875301 0,4.003308 -1.524037,6.004962 -4.772111,6.004962 h -1.73284 z m 1.265314,10.470191 h 0.441437 c 1.387062,0 2.232787,-0.399791 2.737173,-1.199372 0.504386,-0.804983 0.75658,-1.936823 0.75658,-3.395518 0,-1.420878 -0.252194,-2.520302 -0.75658,-3.298273 -0.500038,-0.777971 -1.345763,-1.166956 -2.737173,-1.166956 h -0.441437 z m 11.296881,1.612669 C 21.789275,29.653189 21.208758,29.102126 20.4,28 c -0.804408,-1.107527 -0.706613,-2.604041 -0.706613,-4.48954 0,-1.885498 -0.0978,-3.37931 0.706613,-4.481436 0.808758,-1.107527 1.389275,-1.661292 2.741552,-1.661292 1.03921,0 1.42406,0.348466 2.154551,1.045398 0.730491,0.696933 0.841392,1.615371 0.932703,2.755314 h -1.304448 c -0.05218,-0.750958 -0.01524,-1.347943 -0.48919,-1.790954 -0.469601,-0.44301 -0.563125,-0.664516 -1.280571,-0.664516 -0.969639,0 -1.237089,0.415998 -1.80235,1.247994 -0.56526,0.826594 -0.447891,2.009759 -0.447891,3.549492 0,1.534332 -0.119544,2.717496 0.441369,3.549493 0.560912,0.831995 0.82184,1.247994 1.782783,1.247994 0.747883,0 0.852277,-0.226909 1.313182,-0.680725 0.460905,-0.453816 0.421794,-1.102124 0.482668,-1.944926 h 1.304448 c -0.09131,1.264202 -0.191341,2.242068 -0.900091,2.933598 -0.708751,0.69153 -1.104472,1.037295 -2.187163,1.037295 z M 37.210858,29.450593 H 36.010762 V 19.345075 L 33.484467,29.450592 H 32.349598 L 29.823303,19.345075 V 29.450592 H 28.623211 V 17.570329 h 1.897971 l 2.389328,9.90292 2.402373,-9.90292 h 1.897971 z"
     id="text12-7"
     style="font-size:14.8893px;line-height:1.25;font-family:'Microsoft Sans Serif';-inkscape-font-specification:'Microsoft Sans Serif';letter-spacing:0px;fill:#afafaf;fill-opacity:1;stroke-width:0.999996"
     aria-label="DICOM"
     sodipodi:nodetypes="cssscccscscsccscscsscccscssssccsscccccccccccccc" />
</svg>
