<?xml version="1.0" encoding="UTF-8" standalone="no"?>
<!-- Created with Inkscape (http://www.inkscape.org/) -->

<svg
   width="48"
   height="48"
   viewBox="0 0 48 48"
   version="1.1"
   id="svg1"
   xml:space="preserve"
   inkscape:version="1.4 (e7c3feb1, 2024-10-09)"
   sodipodi:docname="RatHierarchy.svg"
   inkscape:export-filename="../../../../../../../Desktop/m-48.png"
   inkscape:export-xdpi="96"
   inkscape:export-ydpi="96"
   xmlns:inkscape="http://www.inkscape.org/namespaces/inkscape"
   xmlns:sodipodi="http://sodipodi.sourceforge.net/DTD/sodipodi-0.dtd"
   xmlns="http://www.w3.org/2000/svg"
   xmlns:svg="http://www.w3.org/2000/svg"><sodipodi:namedview
     id="namedview1"
     pagecolor="#ffffff"
     bordercolor="#111111"
     borderopacity="1"
     inkscape:showpageshadow="0"
     inkscape:pageopacity="0"
     inkscape:pagecheckerboard="1"
     inkscape:deskcolor="#d1d1d1"
     inkscape:document-units="px"
     showgrid="true"
     inkscape:zoom="5.1042307"
     inkscape:cx="25.37111"
     inkscape:cy="7.6407205"
     inkscape:window-width="1440"
     inkscape:window-height="762"
     inkscape:window-x="33"
     inkscape:window-y="25"
     inkscape:window-maximized="0"
     inkscape:current-layer="LightThemeEnabledLayer"
     showguides="true"><inkscape:grid
       id="grid1"
       units="px"
       originx="0"
       originy="0"
       spacingx="1"
       spacingy="1"
       empcolor="#0099e5"
       empopacity="0.30196078"
       color="#0099e5"
       opacity="0.14901961"
       empspacing="2"
       dotted="false"
       gridanglex="30"
       gridanglez="30"
       visible="true" /><inkscape:grid
       id="grid2"
       units="px"
       originx="20"
       originy="20"
       spacingx="40"
       spacingy="40"
       empcolor="#cd0000"
       empopacity="0.30196078"
       color="#e5001a"
       opacity="0.14901961"
       empspacing="40"
       dotted="false"
       gridanglex="30"
       gridanglez="30"
       visible="true" /></sodipodi:namedview><defs
     id="defs1"><inkscape:perspective
       sodipodi:type="inkscape:persp3d"
       inkscape:vp_x="0 : 24 : 1"
       inkscape:vp_y="0 : 1000 : 0"
       inkscape:vp_z="48 : 24 : 1"
       inkscape:persp3d-origin="24 : 16 : 1"
       id="perspective8" /><inkscape:perspective
       sodipodi:type="inkscape:persp3d"
       inkscape:vp_x="0 : 24 : 1"
       inkscape:vp_y="0 : 1000 : 0"
       inkscape:vp_z="48 : 24 : 1"
       inkscape:persp3d-origin="24 : 16 : 1"
       id="perspective8-0" /><inkscape:perspective
       sodipodi:type="inkscape:persp3d"
       inkscape:vp_x="0 : 24 : 1"
       inkscape:vp_y="0 : 1000 : 0"
       inkscape:vp_z="48 : 24 : 1"
       inkscape:persp3d-origin="24 : 16 : 1"
       id="perspective8-9" /><inkscape:perspective
       sodipodi:type="inkscape:persp3d"
       inkscape:vp_x="0 : 24 : 1"
       inkscape:vp_y="0 : 1000 : 0"
       inkscape:vp_z="48 : 24 : 1"
       inkscape:persp3d-origin="24 : 16 : 1"
       id="perspective8-5" /><inkscape:perspective
       sodipodi:type="inkscape:persp3d"
       inkscape:vp_x="0 : 24 : 1"
       inkscape:vp_y="0 : 1000 : 0"
       inkscape:vp_z="48 : 24 : 1"
       inkscape:persp3d-origin="24 : 16 : 1"
       id="perspective8-99" /></defs><g
     id="LightThemeEnabledLayer"
     inkscape:groupmode="layer"
     inkscape:label="EnabledLayer"
     style="display:inline"
     sodipodi:insensitive="true"><path
       style="fill:none;stroke:#e5e5f6;stroke-width:2;stroke-linecap:round;stroke-linejoin:miter;stroke-dasharray:none;stroke-opacity:1"
       d="m 24,22 v 5.76"
       id="path1" /><path
       style="fill:none;stroke:#e5e5f6;stroke-width:2;stroke-linecap:round;stroke-linejoin:miter;stroke-dasharray:none;stroke-opacity:1"
       d="M 39,29 H 9 v 6"
       id="path2"
       sodipodi:nodetypes="ccc" /><path
       style="fill:none;stroke:#e5e5f6;stroke-width:2;stroke-linecap:round;stroke-linejoin:miter;stroke-dasharray:none;stroke-opacity:1"
       d="m 24,29 v 6"
       id="path3"
       sodipodi:nodetypes="cc" /><path
       style="fill:none;stroke:#e5e5f6;stroke-width:2;stroke-linecap:round;stroke-linejoin:miter;stroke-dasharray:none;stroke-opacity:1"
       d="m 39,29 v 5.520001"
       id="path4"
       sodipodi:nodetypes="cc" /><path
       id="path8"
       style="display:inline;fill:none;fill-rule:evenodd;stroke:#e5e5f6;stroke-width:2;stroke-linecap:round"
       d="m 42,38 a 3.0000005,2.9999997 0 0 1 -3,3 3.0000005,2.9999997 0 0 1 -3,-3 3.0000005,2.9999997 0 0 1 3,-3 3.0000005,2.9999997 0 0 1 3,3 z" /><path
       id="path10"
       style="display:inline;fill:none;fill-rule:evenodd;stroke:#e5e5f6;stroke-width:2;stroke-linecap:round"
       d="m 27,38 a 3.0000005,2.9999997 0 0 1 -3,3 3.0000005,2.9999997 0 0 1 -3,-3 3.0000005,2.9999997 0 0 1 3,-3 3.0000005,2.9999997 0 0 1 3,3 z" /><path
       id="path11"
       style="display:inline;fill:none;fill-rule:evenodd;stroke:#e5e5f6;stroke-width:2;stroke-linecap:round"
       d="m 12,38 a 3.0000005,2.9999997 0 0 1 -3,3 3.0000005,2.9999997 0 0 1 -3,-3 3.0000005,2.9999997 0 0 1 3,-3 3.0000005,2.9999997 0 0 1 3,3 z" /><path
       id="path1-7"
       style="fill:none;stroke:#e5e5f6;stroke-width:2.00001;stroke-linecap:round;stroke-linejoin:miter;stroke-dasharray:none;stroke-opacity:1"
       d="m 27.998555,6.836035 c 1.690817,0.1058314 4.268743,0.8256609 5.545136,1.7193828 1.276393,0.8937239 2.046376,1.7496862 2.456309,2.7725242 0.409934,1.022839 0.709008,2.836028 0.709008,3.545036 C 36.709008,15.581985 36.469357,17 36,17 H 11.893759 c -0.360151,0 -0.172982,-1.03705 0,-1.418014 0.172985,-0.380965 0.709008,-1.032757 0.709008,-1.032757 0,0 3.07235,-3.430484 5.672057,-5.3483079"
       sodipodi:nodetypes="cssssszsc" /><path
       id="path2-8"
       style="fill:none;fill-rule:evenodd;stroke:#e5e5f6;stroke-width:2.00001;stroke-linecap:round"
       d="m 18.474777,8.8348542 c 2.972134,-4.6648916 5.723731,-3.9602498 5.723731,-3.9602498 0,0 -0.760681,2.930818 -1.469689,3.6398249 l -0.709006,0.7090069"
       sodipodi:nodetypes="cszc" /><path
       style="fill:none;stroke:#e5e5f6;stroke-width:2.00001;stroke-linecap:round;stroke-linejoin:miter;stroke-dasharray:none;stroke-opacity:1"
       d="m 37.215339,16 h 2.280332 c 1.014032,0 0.769562,2 0.769562,3 0,0.913031 -1.134079,2 -2.136766,2 H 29 19.694283"
       id="path6"
       sodipodi:nodetypes="cssssc" /></g></svg>
