<?xml version="1.0" encoding="UTF-8" standalone="no"?>
<!-- Created with Inkscape (http://www.inkscape.org/) -->

<svg
   width="48"
   height="48"
   viewBox="0 0 48 48"
   version="1.1"
   id="svg1"
   xml:space="preserve"
   inkscape:version="1.4 (e7c3feb1, 2024-10-09)"
   sodipodi:docname="TeddyHierarchy.svg"
   inkscape:export-filename="../../../../../../../Desktop/m-48.png"
   inkscape:export-xdpi="96"
   inkscape:export-ydpi="96"
   xmlns:inkscape="http://www.inkscape.org/namespaces/inkscape"
   xmlns:sodipodi="http://sodipodi.sourceforge.net/DTD/sodipodi-0.dtd"
   xmlns="http://www.w3.org/2000/svg"
   xmlns:svg="http://www.w3.org/2000/svg"><sodipodi:namedview
     id="namedview1"
     pagecolor="#ffffff"
     bordercolor="#111111"
     borderopacity="1"
     inkscape:showpageshadow="0"
     inkscape:pageopacity="0"
     inkscape:pagecheckerboard="1"
     inkscape:deskcolor="#d1d1d1"
     inkscape:document-units="px"
     showgrid="true"
     inkscape:zoom="24.85125"
     inkscape:cx="23.479705"
     inkscape:cy="17.946784"
     inkscape:window-width="1440"
     inkscape:window-height="762"
     inkscape:window-x="57"
     inkscape:window-y="25"
     inkscape:window-maximized="0"
     inkscape:current-layer="LightThemeEnabledLayer"
     showguides="true"><inkscape:grid
       id="grid1"
       units="px"
       originx="0"
       originy="0"
       spacingx="1"
       spacingy="1"
       empcolor="#0099e5"
       empopacity="0.30196078"
       color="#0099e5"
       opacity="0.14901961"
       empspacing="2"
       dotted="false"
       gridanglex="30"
       gridanglez="30"
       visible="true" /><inkscape:grid
       id="grid2"
       units="px"
       originx="20"
       originy="20"
       spacingx="40"
       spacingy="40"
       empcolor="#cd0000"
       empopacity="0.30196078"
       color="#e5001a"
       opacity="0.14901961"
       empspacing="40"
       dotted="false"
       gridanglex="30"
       gridanglez="30"
       visible="true" /></sodipodi:namedview><defs
     id="defs1"><inkscape:perspective
       sodipodi:type="inkscape:persp3d"
       inkscape:vp_x="0 : 24 : 1"
       inkscape:vp_y="0 : 1000 : 0"
       inkscape:vp_z="48 : 24 : 1"
       inkscape:persp3d-origin="24 : 16 : 1"
       id="perspective8" /><inkscape:perspective
       sodipodi:type="inkscape:persp3d"
       inkscape:vp_x="0 : 24 : 1"
       inkscape:vp_y="0 : 1000 : 0"
       inkscape:vp_z="48 : 24 : 1"
       inkscape:persp3d-origin="24 : 16 : 1"
       id="perspective8-0" /><inkscape:perspective
       sodipodi:type="inkscape:persp3d"
       inkscape:vp_x="0 : 24 : 1"
       inkscape:vp_y="0 : 1000 : 0"
       inkscape:vp_z="48 : 24 : 1"
       inkscape:persp3d-origin="24 : 16 : 1"
       id="perspective8-9" /><inkscape:perspective
       sodipodi:type="inkscape:persp3d"
       inkscape:vp_x="0 : 24 : 1"
       inkscape:vp_y="0 : 1000 : 0"
       inkscape:vp_z="48 : 24 : 1"
       inkscape:persp3d-origin="24 : 16 : 1"
       id="perspective8-5" /></defs><g
     id="LightThemeEnabledLayer"
     inkscape:groupmode="layer"
     inkscape:label="EnabledLayer"
     style="display:inline"
     sodipodi:insensitive="true"><path
       style="fill:none;stroke:#e5e5f6;stroke-width:2;stroke-linecap:round;stroke-linejoin:miter;stroke-dasharray:none;stroke-opacity:1"
       d="m 24,22 v 5.76"
       id="path1" /><path
       style="fill:none;stroke:#e5e5f6;stroke-width:2;stroke-linecap:round;stroke-linejoin:miter;stroke-dasharray:none;stroke-opacity:1"
       d="M 39,29 H 9 v 6"
       id="path2"
       sodipodi:nodetypes="ccc" /><path
       style="fill:none;stroke:#e5e5f6;stroke-width:2;stroke-linecap:round;stroke-linejoin:miter;stroke-dasharray:none;stroke-opacity:1"
       d="m 24,29 v 6"
       id="path3"
       sodipodi:nodetypes="cc" /><path
       style="fill:none;stroke:#e5e5f6;stroke-width:2;stroke-linecap:round;stroke-linejoin:miter;stroke-dasharray:none;stroke-opacity:1"
       d="m 39,29 v 5.520001"
       id="path4"
       sodipodi:nodetypes="cc" /><path
       id="path8"
       style="display:inline;fill:none;fill-rule:evenodd;stroke:#e5e5f6;stroke-width:2;stroke-linecap:round"
       d="m 42,38 a 3.0000005,2.9999997 0 0 1 -3,3 3.0000005,2.9999997 0 0 1 -3,-3 3.0000005,2.9999997 0 0 1 3,-3 3.0000005,2.9999997 0 0 1 3,3 z" /><path
       id="path10"
       style="display:inline;fill:none;fill-rule:evenodd;stroke:#e5e5f6;stroke-width:2;stroke-linecap:round"
       d="m 27,38 a 3.0000005,2.9999997 0 0 1 -3,3 3.0000005,2.9999997 0 0 1 -3,-3 3.0000005,2.9999997 0 0 1 3,-3 3.0000005,2.9999997 0 0 1 3,3 z" /><path
       id="path11"
       style="display:inline;fill:none;fill-rule:evenodd;stroke:#e5e5f6;stroke-width:2;stroke-linecap:round"
       d="m 12,38 a 3.0000005,2.9999997 0 0 1 -3,3 3.0000005,2.9999997 0 0 1 -3,-3 3.0000005,2.9999997 0 0 1 3,-3 3.0000005,2.9999997 0 0 1 3,3 z" /><path
       id="path19"
       style="fill:none;fill-rule:evenodd;stroke:#e5e5f6;stroke-width:1.99999;stroke-linecap:round;stroke-opacity:0.97"
       d="M 21.419986,9.0297691 A 6.2631579,6.2631579 0 0 1 24,8.4736837 6.2631579,6.2631579 0 0 1 26.58042,9.0299525" /><path
       id="path16"
       style="fill:none;fill-rule:evenodd;stroke:#e5e5f6;stroke-width:1.99999;stroke-linecap:round;stroke-opacity:0.97"
       d="m 30.087336,13.263244 a 6.2631579,6.2631579 0 0 1 0.175822,1.473598 v 0 A 6.2631579,6.2631579 0 0 1 24,21 6.2631579,6.2631579 0 0 1 17.736842,14.736842 6.2631579,6.2631579 0 0 1 17.912896,13.26229" /><path
       id="path4-0"
       style="fill:none;fill-rule:evenodd;stroke:#e5e5f6;stroke-width:2;stroke-linecap:round"
       d="M 18.320049,12.082371 A 1.8421053,1.8421053 0 0 1 17,10.315789 1.8421053,1.8421053 0 0 1 18.842105,8.4736837 1.8421053,1.8421053 0 0 1 20.506243,9.5258526" /><path
       id="path5-7"
       style="fill:none;fill-rule:evenodd;stroke:#e5e5f6;stroke-width:2;stroke-linecap:round"
       d="M 29.679951,12.082371 A 1.8421053,1.8421053 0 0 0 31,10.315789 1.8421053,1.8421053 0 0 0 29.157895,8.4736837 1.8421053,1.8421053 0 0 0 27.493758,9.5258526" /></g></svg>
