<?xml version="1.0" encoding="UTF-8" standalone="no"?>
<!-- Created with Inkscape (http://www.inkscape.org/) -->

<svg
   width="48"
   height="48"
   viewBox="0 0 48 48"
   version="1.1"
   id="svg1"
   xml:space="preserve"
   inkscape:version="1.4 (e7c3feb1, 2024-10-09)"
   sodipodi:docname="TeddySubject.svg"
   inkscape:export-filename="../../../../../../../Desktop/m-48.png"
   inkscape:export-xdpi="96"
   inkscape:export-ydpi="96"
   xmlns:inkscape="http://www.inkscape.org/namespaces/inkscape"
   xmlns:sodipodi="http://sodipodi.sourceforge.net/DTD/sodipodi-0.dtd"
   xmlns="http://www.w3.org/2000/svg"
   xmlns:svg="http://www.w3.org/2000/svg"><sodipodi:namedview
     id="namedview1"
     pagecolor="#ffffff"
     bordercolor="#111111"
     borderopacity="1"
     inkscape:showpageshadow="0"
     inkscape:pageopacity="0"
     inkscape:pagecheckerboard="1"
     inkscape:deskcolor="#d1d1d1"
     inkscape:document-units="px"
     showgrid="true"
     inkscape:zoom="12.5"
     inkscape:cx="19.56"
     inkscape:cy="15.76"
     inkscape:window-width="1440"
     inkscape:window-height="762"
     inkscape:window-x="0"
     inkscape:window-y="25"
     inkscape:window-maximized="0"
     inkscape:current-layer="layer1"
     showguides="true"><inkscape:grid
       id="grid1"
       units="px"
       originx="0"
       originy="0"
       spacingx="1"
       spacingy="1"
       empcolor="#0099e5"
       empopacity="0.30196078"
       color="#0099e5"
       opacity="0.14901961"
       empspacing="2"
       dotted="false"
       gridanglex="30"
       gridanglez="30"
       visible="true" /><inkscape:grid
       id="grid2"
       units="px"
       originx="20"
       originy="20"
       spacingx="40"
       spacingy="40"
       empcolor="#cd0000"
       empopacity="0.30196078"
       color="#e5001a"
       opacity="0.14901961"
       empspacing="40"
       dotted="false"
       gridanglex="30"
       gridanglez="30"
       visible="true" /></sodipodi:namedview><defs
     id="defs1"><inkscape:perspective
       sodipodi:type="inkscape:persp3d"
       inkscape:vp_x="0 : 24 : 1"
       inkscape:vp_y="0 : 1000 : 0"
       inkscape:vp_z="48 : 24 : 1"
       inkscape:persp3d-origin="24 : 16 : 1"
       id="perspective8" /></defs><g
     inkscape:groupmode="layer"
     id="layer1"
     inkscape:label="EnabledLayer"
     sodipodi:insensitive="true"><path
       id="path19"
       style="fill:none;fill-rule:evenodd;stroke:#e5e5f6;stroke-width:1.99999;stroke-linecap:round;stroke-opacity:0.97"
       d="M 16.997105,8.5093748 A 17,17 0 0 1 24,7 17,17 0 0 1 31.003996,8.5098726" /><path
       id="path16"
       style="fill:none;fill-rule:evenodd;stroke:#e5e5f6;stroke-width:1.99999;stroke-linecap:round;stroke-opacity:0.97"
       d="M 40.522769,20.000235 A 17,17 0 0 1 41,24 v 0 A 17,17 0 0 1 24,41 17,17 0 0 1 7,24 17,17 0 0 1 7.4778588,19.997644" /><path
       style="fill:none;stroke:#e5e5f6;stroke-width:1.5;stroke-linecap:round;stroke-linejoin:miter;stroke-dasharray:none;stroke-opacity:1"
       d="m 24,29 3,3"
       id="path1"
       sodipodi:nodetypes="cc" /><path
       style="fill:none;stroke:#e5e5f6;stroke-width:1.5;stroke-linecap:round;stroke-linejoin:miter;stroke-dasharray:none;stroke-opacity:1"
       d="m 24,29 -3,3"
       id="path2"
       sodipodi:nodetypes="cc" /><path
       id="path4"
       style="fill:none;fill-rule:evenodd;stroke:#e5e5f6;stroke-width:2;stroke-linecap:round"
       d="M 8.5829903,16.795006 A 5,5 0 0 1 5,12 5,5 0 0 1 10,7 5,5 0 0 1 14.516944,9.8558873" /><path
       id="path5"
       style="fill:none;fill-rule:evenodd;stroke:#e5e5f6;stroke-width:2;stroke-linecap:round"
       d="M 39.41701,16.795006 A 5,5 0 0 0 43,12 5,5 0 0 0 38,7 5,5 0 0 0 33.483056,9.8558873" /><ellipse
       style="fill:#e5e5f6;fill-rule:evenodd;stroke:none;stroke-width:1"
       id="ellipse5"
       cx="24"
       cy="26"
       rx="2"
       ry="2.0032461" /></g></svg>
