<?xml version="1.0" encoding="UTF-8" standalone="no"?>
<!-- Created with Inkscape (http://www.inkscape.org/) -->

<svg
   width="48"
   height="48"
   viewBox="0 0 48 48"
   version="1.1"
   id="svg1"
   xml:space="preserve"
   inkscape:version="1.4 (e7c3feb1, 2024-10-09)"
   sodipodi:docname="SlicerPrint.svg"
   inkscape:export-filename="PNG/SlicerUpArrowV1-24.png"
   inkscape:export-xdpi="48"
   inkscape:export-ydpi="48"
   xmlns:inkscape="http://www.inkscape.org/namespaces/inkscape"
   xmlns:sodipodi="http://sodipodi.sourceforge.net/DTD/sodipodi-0.dtd"
   xmlns="http://www.w3.org/2000/svg"
   xmlns:svg="http://www.w3.org/2000/svg"><sodipodi:namedview
     id="namedview1"
     pagecolor="#ffffff"
     bordercolor="#111111"
     borderopacity="1"
     inkscape:showpageshadow="0"
     inkscape:pageopacity="0"
     inkscape:pagecheckerboard="1"
     inkscape:deskcolor="#d1d1d1"
     inkscape:document-units="px"
     showgrid="true"
     inkscape:zoom="6.8614394"
     inkscape:cx="18.582107"
     inkscape:cy="32.646211"
     inkscape:window-width="1384"
     inkscape:window-height="762"
     inkscape:window-x="56"
     inkscape:window-y="25"
     inkscape:window-maximized="0"
     inkscape:current-layer="LightThemeEnabledLayer"
     showguides="true"><inkscape:grid
       id="grid1"
       units="px"
       originx="0"
       originy="0"
       spacingx="2"
       spacingy="2"
       empcolor="#0099e5"
       empopacity="0.30196078"
       color="#0099e5"
       opacity="0.14902"
       empspacing="1"
       dotted="false"
       gridanglex="30"
       gridanglez="30"
       visible="true" /><inkscape:grid
       id="grid3"
       units="px"
       originx="0"
       originy="0"
       spacingx="1"
       spacingy="1"
       empcolor="#ff1df0"
       empopacity="0.10588235"
       color="#ff70d9"
       opacity="0.14901961"
       empspacing="1"
       enabled="true"
       visible="true"
       dotted="true" /></sodipodi:namedview><defs
     id="defs1" /><g
     inkscape:label="EnabledLayer"
     id="LightThemeEnabledLayer"
     inkscape:groupmode="layer"
     style="display:inline"
     sodipodi:insensitive="true"><rect
       style="fill:none;fill-rule:evenodd;stroke:#7396df;stroke-width:2;stroke-dasharray:none"
       id="rect1"
       width="38"
       height="38"
       x="5"
       y="5" /><g
       style="fill:#e5e5f6;stroke:none"
       id="g1"
       transform="matrix(0.05,0,0,0.05,0,46.5385)"><path
         d="m 640,-610.77 v -80 H 320 v 80 h -40 v -120.01 h 400 v 120.01 z m -440,40 h 560 z m 480,120 c 11.33333,0 20.83333,-3.83333 28.5,-11.5 7.66667,-7.66667 11.5,-17.16667 11.5,-28.5 0,-11.33333 -3.83333,-20.83333 -11.5,-28.5 -7.66667,-7.66667 -17.16667,-11.5 -28.5,-11.5 -11.33333,0 -20.83333,3.83333 -28.5,11.5 -7.66667,7.66667 -11.5,17.16667 -11.5,28.5 0,11.33333 3.83333,20.83333 11.5,28.5 7.66667,7.66667 17.16667,11.5 28.5,11.5 z m -40,240 v -160 H 320 v 160 z m 40,40 H 280 v -120 H 160 v -320 h 640 v 320 H 680 Z m 80,-160 v -240 H 200 v 240 h 80 v -80 h 400 v 80 z"
         id="path1"
         sodipodi:nodetypes="ccccccccccccsssssssssccccccccccccccccccccccc"
         style="fill:#e5e5f6;stroke:none" /></g><path
       style="fill:none;stroke:#e5e5f6;stroke-width:1px;stroke-linecap:butt;stroke-linejoin:miter;stroke-opacity:1"
       d="M 18,29.598826 H 30"
       id="path2" /><path
       style="fill:none;stroke:#e5e5f6;stroke-width:1px;stroke-linecap:butt;stroke-linejoin:miter;stroke-opacity:1"
       d="M 18,33.527715 H 29.458492"
       id="path3" /></g></svg>
