<?xml version="1.0" encoding="UTF-8" standalone="no"?>
<!-- Created with Inkscape (http://www.inkscape.org/) -->

<svg
   width="48"
   height="48"
   viewBox="0 0 48 48"
   version="1.1"
   id="svg1"
   xml:space="preserve"
   inkscape:version="1.3 (0e150ed, 2023-07-21)"
   sodipodi:docname="ModuleGear.svg"
   inkscape:export-filename="PNG/ModuleGear-32.png"
   inkscape:export-xdpi="64"
   inkscape:export-ydpi="64"
   xmlns:inkscape="http://www.inkscape.org/namespaces/inkscape"
   xmlns:sodipodi="http://sodipodi.sourceforge.net/DTD/sodipodi-0.dtd"
   xmlns="http://www.w3.org/2000/svg"
   xmlns:svg="http://www.w3.org/2000/svg"><sodipodi:namedview
     id="namedview1"
     pagecolor="#ffffff"
     bordercolor="#111111"
     borderopacity="1"
     inkscape:showpageshadow="0"
     inkscape:pageopacity="0"
     inkscape:pagecheckerboard="1"
     inkscape:deskcolor="#d1d1d1"
     inkscape:document-units="px"
     showgrid="true"
     inkscape:zoom="4.8373147"
     inkscape:cx="24.497062"
     inkscape:cy="22.326437"
     inkscape:window-width="1440"
     inkscape:window-height="773"
     inkscape:window-x="0"
     inkscape:window-y="25"
     inkscape:window-maximized="0"
     inkscape:current-layer="layer1"
     showguides="true"><inkscape:grid
       id="grid1"
       units="px"
       originx="0"
       originy="0"
       spacingx="1"
       spacingy="1"
       empcolor="#0099e5"
       empopacity="0.30196078"
       color="#0099e5"
       opacity="0.14901961"
       empspacing="2"
       dotted="false"
       gridanglex="30"
       gridanglez="30"
       visible="true" /><inkscape:grid
       id="grid2"
       units="px"
       originx="20"
       originy="20"
       spacingx="40"
       spacingy="40"
       empcolor="#cd0000"
       empopacity="0.30196078"
       color="#e5001a"
       opacity="0.14901961"
       empspacing="40"
       dotted="false"
       gridanglex="30"
       gridanglez="30"
       visible="true" /><sodipodi:guide
       position="27,40"
       orientation="-1,0"
       id="guide38"
       inkscape:locked="false" /></sodipodi:namedview><defs
     id="defs1"><inkscape:perspective
       sodipodi:type="inkscape:persp3d"
       inkscape:vp_x="0 : 24 : 1"
       inkscape:vp_y="0 : 1000 : 0"
       inkscape:vp_z="48 : 24 : 1"
       inkscape:persp3d-origin="24 : 16 : 1"
       id="perspective8" /></defs><g
     inkscape:label="Modules"
     inkscape:groupmode="layer"
     id="layer1"
     style="display:inline"><path
       id="path6-6"
       style="display:inline;fill:#c8c8dc;fill-opacity:1;stroke:none;stroke-width:1;stroke-linecap:round;stroke-linejoin:round;stroke-dasharray:none;stroke-opacity:1"
       d="m 21.549908,28.330162 c -0.08582,-0.03388 -0.170945,-0.06938 -0.255322,-0.106491 -0.306886,-0.13518 -0.603352,-0.291307 -0.887131,-0.467185 -0.283739,-0.175605 -0.554093,-0.370499 -0.809002,-0.583201 -0.254905,-0.212736 -0.49371,-0.442734 -0.714589,-0.68824 -0.220847,-0.245507 -0.423204,-0.505891 -0.605531,-0.779165 -0.182614,-0.273316 -0.34472,-0.558848 -0.485074,-0.854418 -0.140157,-0.295652 -0.258199,-0.60057 -0.353228,-0.912425 -0.09506,-0.311874 -0.166869,-0.62989 -0.214863,-0.95162 -0.04783,-0.321425 -0.07175,-0.645724 -0.07163,-0.97043 -1.35e-4,-0.324708 0.02379,-0.649009 0.07163,-0.970433 0.04799,-0.32173 0.119799,-0.639747 0.214863,-0.951617 0.09502,-0.311856 0.213071,-0.616776 0.353228,-0.912427 0.140354,-0.295571 0.30246,-0.581103 0.485074,-0.854418 0.182327,-0.273274 0.384684,-0.533659 0.605531,-0.779168 0.220879,-0.245503 0.459684,-0.475502 0.714589,-0.688238 0.254909,-0.2127 0.525263,-0.407594 0.809002,-0.5832 0.28378,-0.175881 0.580245,-0.332006 0.887132,-0.467186 0.04272,-0.01556 0.08559,-0.0307 0.128597,-0.04546 v 5.410273 c 0,0.889372 0.743409,1.605365 1.666833,1.605365 h 1.700392 c 0.923425,0 1.666835,-0.715993 1.666835,-1.605366 v -5.418113 0 l -1.37e-4,10e-7 c 0.07214,0.02969 0.143784,0.06052 0.214872,0.0925 0.104896,0.0477 0.20856,0.09789 0.310899,0.150504 0.101756,0.0525 0.202164,0.107385 0.301139,0.164611 0.09972,0.05724 0.197955,0.116833 0.294628,0.178724 0.09603,0.06204 0.190467,0.126339 0.283227,0.192833 0.09346,0.06679 0.185177,0.135794 0.275096,0.206942 0.08974,0.07055 0.177659,0.143211 0.263693,0.217916 0.08552,0.07535 0.169107,0.152721 0.250686,0.232024 0.08233,0.07856 0.162667,0.159069 0.240907,0.241431 0.07755,0.08286 0.153003,0.167549 0.226255,0.253975 0.07387,0.08661 0.14552,0.174946 0.214873,0.264949 0.06904,0.08935 0.135794,0.180298 0.20021,0.272786 0.06427,0.09311 0.126137,0.187723 0.185571,0.283761 0.05941,0.09532 0.116401,0.192029 0.170907,0.290034 0.05462,0.09857 0.10673,0.198407 0.156267,0.299438 0.04983,0.101289 0.09704,0.203746 0.141622,0.307276 0.04443,0.102992 0.08621,0.207015 0.125338,0.311982 0.03906,0.105207 0.07542,0.211322 0.10906,0.318249 0.03366,0.106905 0.0646,0.214588 0.09279,0.322956 0.0277,0.108093 0.05267,0.21682 0.07485,0.326091 0.0229,0.109249 0.04297,0.219026 0.06026,0.329224 0.01694,0.110437 0.03105,0.221258 0.04233,0.332361 0.0115,0.111088 0.02017,0.222431 0.02599,0.333928 0.0055,0.111751 0.0084,0.223618 0.0082,0.335498 1.31e-4,0.324706 -0.0238,0.649006 -0.07163,0.970428 -0.04799,0.321732 -0.1198,0.639747 -0.214865,0.95162 -0.09501,0.311857 -0.213071,0.616775 -0.353227,0.912425 -0.140354,0.295571 -0.30246,0.581105 -0.485075,0.854419 -0.182327,0.273275 -0.384682,0.533659 -0.605525,0.779167 -0.220883,0.245505 -0.459685,0.475502 -0.714591,0.688238 -0.254909,0.212702 -0.525264,0.407597 -0.809005,0.583201 -0.283781,0.17588 -0.580245,0.332007 -0.887133,0.467186 -0.05364,0.02358 -0.107567,0.04652 -0.161795,0.06882 v 5.123417 H 26.095728 21.57569 v -5.000881"
       sodipodi:nodetypes="cccccccccccccccccccsssscccccccccccccccccccccccccccccccccccccccc" /><path
       id="path3"
       style="fill:none;fill-opacity:1;stroke:#000000;stroke-width:0.999993;stroke-linecap:round;stroke-linejoin:round;paint-order:stroke fill markers"
       d="M 37.500002,23.999998 A 13.500002,13.500002 0 0 1 24,37.500001 13.500002,13.500002 0 0 1 10.499999,23.999998 13.500002,13.500002 0 0 1 24,10.499999 13.500002,13.500002 0 0 1 37.500002,23.999998 Z" /><path
       id="path1"
       style="fill:none;stroke:#000000;stroke-width:1;stroke-linecap:round;stroke-linejoin:round;stroke-dasharray:none;stroke-opacity:1"
       d="m 21.455996,32.943997 v -4.783499 c -0.08169,-0.03217 -0.16271,-0.06588 -0.24302,-0.101119 -0.292101,-0.128362 -0.574283,-0.276614 -0.844388,-0.443625 -0.270067,-0.166748 -0.527395,-0.351814 -0.77002,-0.553786 -0.242623,-0.202009 -0.469924,-0.420407 -0.680161,-0.65353 -0.210203,-0.233125 -0.402812,-0.480379 -0.576356,-0.739869 -0.173816,-0.259531 -0.328108,-0.530665 -0.461702,-0.811329 -0.133402,-0.280741 -0.245756,-0.57028 -0.336206,-0.866409 -0.09048,-0.296144 -0.158829,-0.598121 -0.204512,-0.903626 -0.04551,-0.305213 -0.06828,-0.613157 -0.06816,-0.921489 -1.25e-4,-0.30833 0.02265,-0.616275 0.06816,-0.921489 0.04568,-0.305504 0.114027,-0.607481 0.204512,-0.903625 0.09044,-0.296129 0.202804,-0.585669 0.336206,-0.866409 0.133594,-0.280663 0.287886,-0.551796 0.461702,-0.811327 0.173544,-0.259492 0.366153,-0.506745 0.576356,-0.739872 0.210237,-0.233123 0.437538,-0.451521 0.680161,-0.653528 0.242625,-0.201973 0.499953,-0.387039 0.77002,-0.553787 0.270107,-0.167012 0.552288,-0.315264 0.844389,-0.443625 0.04064,-0.01477 0.08145,-0.02915 0.122401,-0.04316 v 5.137415 c 0,0.844516 0.707592,1.524403 1.586522,1.524403 l 1.315654,1e-6 0.720897,-1e-6 c 0.878929,-1e-6 1.586523,-0.679887 1.586523,-1.524403 v -5.137415 c 0.04095,0.01401 0.08175,0.02839 0.1224,0.04316 0.292101,0.128361 0.574281,0.276613 0.844388,0.443625 0.270068,0.166748 0.527394,0.351814 0.77002,0.553787 0.242624,0.202007 0.469923,0.420405 0.680162,0.653528 0.210204,0.233127 0.402811,0.48038 0.576354,0.739872 0.173818,0.259531 0.328111,0.530664 0.461702,0.811327 0.133402,0.28074 0.245765,0.57028 0.336207,0.866409 0.09048,0.296144 0.158838,0.598121 0.204513,0.903625 0.04551,0.305214 0.06829,0.613159 0.06816,0.921489 1.16e-4,0.308332 -0.02265,0.616276 -0.06816,0.921489 -0.04569,0.305505 -0.114031,0.607482 -0.204513,0.903626 C 30.245755,24.28696 30.133402,24.576499 30,24.85724 c -0.133591,0.280664 -0.287884,0.551798 -0.461702,0.811329 -0.173543,0.25949 -0.36615,0.506744 -0.576354,0.739869 -0.210239,0.233123 -0.437538,0.451521 -0.680162,0.65353 -0.242626,0.201972 -0.499952,0.387038 -0.77002,0.553786 -0.270106,0.167011 -0.552286,0.315263 -0.844387,0.443625 -0.08031,0.03524 -0.161328,0.06895 -0.243021,0.101119 v 4.783499"
       sodipodi:nodetypes="ccccccccccccccccccccsscsscccccccccccccccccccc" /><path
       id="path71-5"
       style="display:inline;fill:none;stroke:#000000;stroke-width:1;stroke-linecap:butt;stroke-linejoin:miter;stroke-dasharray:none;stroke-opacity:1"
       d="m 7.130799,23.999998 c 0,-0.99292 0.087207,-1.983957 0.2808281,-2.970291 L 2.6626977,17.681314 v 0 l 5.3001009,-8.974593 4.9792734,2.510021 c 1.716964,-1.528545 3.294609,-2.722448 5.478929,-3.418259 l 0.471591,-5.295736 10.491394,0.06227 0.285198,5.297687 c 2.10887,0.720866 4.041218,1.841903 5.70264,3.259167 l 4.770114,-2.248749 5.191293,9.03686 -4.426018,2.881268 c 0.223657,1.069043 0.325126,2.137717 0.325126,3.208752 0,1.071036 -0.101461,2.139709 -0.325126,3.208754 l 4.426018,2.881268 -5.191293,9.036859 -4.770114,-2.24875 c -1.661422,1.417265 -3.59377,2.538302 -5.70264,3.259167 l -0.285198,5.297683 -10.491394,0.06227 -0.471591,-5.295734 c -2.18432,-0.695812 -3.761965,-1.889714 -5.478929,-3.41826 L 7.9627988,39.293276 2.6626979,30.318683 v 0 L 7.4116267,26.970289 C 7.2180044,25.983956 7.130799,24.992918 7.130799,23.999998 Z"
       sodipodi:nodetypes="scccccccccccccccccccccccccccscs" /></g></svg>
