<?xml version="1.0" encoding="UTF-8" standalone="no"?>
<!-- Created with Inkscape (http://www.inkscape.org/) -->

<svg
   width="48"
   height="48"
   viewBox="0 0 48 48"
   version="1.1"
   id="svg1"
   xml:space="preserve"
   inkscape:version="1.3 (0e150ed, 2023-07-21)"
   sodipodi:docname="SlicerToggleLock.svg"
   inkscape:export-filename="PNG/SlicerUpArrowV1-24.png"
   inkscape:export-xdpi="48"
   inkscape:export-ydpi="48"
   xmlns:inkscape="http://www.inkscape.org/namespaces/inkscape"
   xmlns:sodipodi="http://sodipodi.sourceforge.net/DTD/sodipodi-0.dtd"
   xmlns="http://www.w3.org/2000/svg"
   xmlns:svg="http://www.w3.org/2000/svg"><sodipodi:namedview
     id="namedview1"
     pagecolor="#ffffff"
     bordercolor="#111111"
     borderopacity="1"
     inkscape:showpageshadow="0"
     inkscape:pageopacity="0"
     inkscape:pagecheckerboard="1"
     inkscape:deskcolor="#d1d1d1"
     inkscape:document-units="px"
     showgrid="true"
     inkscape:zoom="6.8614395"
     inkscape:cx="17.634783"
     inkscape:cy="23.537335"
     inkscape:window-width="1384"
     inkscape:window-height="773"
     inkscape:window-x="38"
     inkscape:window-y="25"
     inkscape:window-maximized="0"
     inkscape:current-layer="LightThemeEnabledLayer"
     showguides="true"><inkscape:grid
       id="grid1"
       units="px"
       originx="0"
       originy="0"
       spacingx="2"
       spacingy="2"
       empcolor="#0099e5"
       empopacity="0.30196078"
       color="#0099e5"
       opacity="0.14902"
       empspacing="1"
       dotted="false"
       gridanglex="30"
       gridanglez="30"
       visible="true" /></sodipodi:namedview><defs
     id="defs1" /><g
     inkscape:label="LightThemeEnabledLayer"
     id="LightThemeEnabledLayer"
     inkscape:groupmode="layer"
     style="display:inline"
     sodipodi:insensitive="true"><rect
       style="display:inline;fill:#808080;fill-opacity:1;stroke:none;stroke-width:1;stroke-linejoin:round;stroke-dasharray:none;stroke-opacity:1;paint-order:markers fill stroke"
       id="rect1-0-2"
       width="1.5"
       height="24"
       x="24"
       y="12" /><path
       id="rect1-9"
       style="display:inline;fill:none;stroke:#000000;stroke-width:2;stroke-linejoin:round;paint-order:markers fill stroke"
       d="M 4.9845958,20.982029 H 17.099825 V 32.95 H 4.9845958 Z"
       sodipodi:nodetypes="ccccc" /><path
       id="path3-5-7"
       style="display:inline;fill:none;stroke:#000000;stroke-width:2;stroke-linejoin:round;paint-order:markers fill stroke"
       d="m 7.0872028,20.134163 c 0,-0.985545 -0.057906,-2.159843 0.1263283,-3.025499 0.2491628,-1.170734 0.3835209,-1.803252 0.7261435,-2.481615 0.4991803,-0.988331 1.8800521,-1.630845 3.1004344,-1.630845 0.0045,0 0.0089,1.1e-5 0.0021,3.4e-5 -0.0069,-2.3e-5 -0.0024,-3.4e-5 0.0021,-3.4e-5 1.220383,0 2.601255,0.642514 3.100435,1.630845 0.342622,0.678363 0.47698,1.310881 0.726143,2.481615 0.184236,0.865656 0.126329,2.039954 0.126329,3.025499"
       sodipodi:nodetypes="cssscsssc" /><ellipse
       style="display:inline;fill:#000000;fill-opacity:1;stroke:#010101;stroke-width:1;stroke-linejoin:round;stroke-dasharray:none;stroke-opacity:1;paint-order:markers fill stroke"
       id="path4-3"
       cx="11.042211"
       cy="27.231262"
       rx="1.3868864"
       ry="1.44183" /><path
       id="rect1-9-5"
       style="display:inline;fill:none;stroke:#000000;stroke-width:2;stroke-linejoin:round;paint-order:markers fill stroke"
       d="m 31,21.05 h 12 v 12 H 31 Z"
       sodipodi:nodetypes="ccccc" /><path
       id="path4"
       style="display:inline;fill:none;stroke:#000000;stroke-width:2;stroke-linejoin:round;paint-order:markers fill stroke"
       d="m 33.074963,20.07115 c 0,-0.946082 -0.06014,-2.073364 0.1312,-2.904357 0.258771,-1.123857 0.39831,-1.395065 0.754143,-2.046266 0.518426,-0.948756 1.952545,-1.901531 3.21998,-1.901531 0.0047,0 0.0093,1.1e-5 0.0022,3.2e-5 -0.0071,-2.1e-5 -0.0024,-3.2e-5 0.0022,-3.2e-5 0.765041,0 1.590815,0.197142 2.239273,0.681003"
       sodipodi:nodetypes="cssscsc" /><ellipse
       style="display:inline;fill:#000000;fill-opacity:1;stroke:#010101;stroke-width:1;stroke-linejoin:round;stroke-dasharray:none;stroke-opacity:1;paint-order:markers fill stroke"
       id="path4-3-0"
       cx="37"
       cy="27.331261"
       rx="1.4339985"
       ry="1.44183" /></g></svg>
