<?xml version="1.0" encoding="UTF-8" standalone="no"?>
<!-- Created with Inkscape (http://www.inkscape.org/) -->

<svg
   width="48"
   height="48"
   viewBox="0 0 48 48"
   version="1.1"
   id="svg1"
   xml:space="preserve"
   inkscape:version="1.4 (e7c3feb1, 2024-10-09)"
   sodipodi:docname="SlicerHideDeformationGrid.svg"
   inkscape:export-filename="PNG/SlicerUpArrowV1-24.png"
   inkscape:export-xdpi="48"
   inkscape:export-ydpi="48"
   xmlns:inkscape="http://www.inkscape.org/namespaces/inkscape"
   xmlns:sodipodi="http://sodipodi.sourceforge.net/DTD/sodipodi-0.dtd"
   xmlns="http://www.w3.org/2000/svg"
   xmlns:svg="http://www.w3.org/2000/svg"><sodipodi:namedview
   id="namedview1"
   pagecolor="#ffffff"
   bordercolor="#111111"
   borderopacity="1"
   inkscape:showpageshadow="0"
   inkscape:pageopacity="0"
   inkscape:pagecheckerboard="1"
   inkscape:deskcolor="#d1d1d1"
   inkscape:document-units="px"
   showgrid="true"
   inkscape:zoom="7.2251773"
   inkscape:cx="25.812515"
   inkscape:cy="26.020123"
   inkscape:window-width="1392"
   inkscape:window-height="762"
   inkscape:window-x="43"
   inkscape:window-y="68"
   inkscape:window-maximized="0"
   inkscape:current-layer="LightThemeEnabledLayer"
   showguides="true"><inkscape:grid
     id="grid1"
     units="px"
     originx="0"
     originy="0"
     spacingx="2"
     spacingy="2"
     empcolor="#0099e5"
     empopacity="0.30196078"
     color="#0099e5"
     opacity="0.14902"
     empspacing="1"
     dotted="false"
     gridanglex="30"
     gridanglez="30"
     visible="true" /></sodipodi:namedview><defs
   id="defs1" />
<!-- PUT FINAL THEME/STATE VERSIONS IN THESE LAYERS. NO GROUPED ELEMENTS. -->
<g
   inkscape:label="LightThemeEnabledLayer"
   id="LightThemeEnabledLayer"
   inkscape:groupmode="layer"
   style="display:inline"
   sodipodi:insensitive="true"><rect
     style="display:inline;opacity:0.7;fill:none;fill-rule:evenodd;stroke:#e5e5f6;stroke-width:2;stroke-linecap:round;stroke-linejoin:round;stroke-dasharray:none"
     id="rect37"
     width="36"
     height="36"
     x="7"
     y="5" /><path
     style="display:inline;opacity:0.907591;fill:none;stroke:#ff6b29;stroke-width:1.25;stroke-linecap:butt;stroke-linejoin:miter;stroke-dasharray:none;stroke-opacity:1"
     d="M 25,40 V 6"
     id="path37" /><path
     style="display:inline;fill:none;stroke:#f3bf00;stroke-width:1.25;stroke-linecap:butt;stroke-linejoin:miter;stroke-dasharray:none;stroke-opacity:1"
     d="M 31,40 V 6"
     id="path38" /><path
     style="display:inline;opacity:0.615512;fill:none;stroke:#287400;stroke-width:0.999999px;stroke-linecap:butt;stroke-linejoin:miter;stroke-opacity:1"
     d="M 37,40 V 6"
     id="path39" /><path
     style="display:inline;fill:none;stroke:#f3bf00;stroke-width:1.25;stroke-linecap:butt;stroke-linejoin:miter;stroke-dasharray:none;stroke-opacity:1"
     d="M 19,40 V 6"
     id="path40" /><path
     style="display:inline;opacity:0.615512;fill:none;stroke:#287400;stroke-width:0.999999;stroke-linecap:butt;stroke-linejoin:miter;stroke-dasharray:none;stroke-opacity:1"
     d="M 13,40 V 6"
     id="path41" /><g
     id="g2"><path
       id="path45"
       style="fill:none;stroke:#6cb40f;stroke-width:1.00157;stroke-linecap:round;stroke-linejoin:miter;stroke-dasharray:none;stroke-opacity:1"
       d="M 37.000959,13.68792 C 41.129085,12.915125 42,17 42,17" /><path
       id="path6"
       style="fill:none;stroke:#f1a16e;stroke-width:1.00157;stroke-linecap:round;stroke-linejoin:miter;stroke-dasharray:none;stroke-opacity:1"
       d="m 31.000702,18.02723 c 2.10814,-1.95292 4.193997,-3.964631 5.872285,-4.314005 0.043,-0.009 0.08566,-0.01738 0.127972,-0.0253" /><path
       id="path5"
       style="fill:none;stroke:#e88500;stroke-width:1.00157;stroke-linecap:round;stroke-linejoin:miter;stroke-dasharray:none;stroke-opacity:1"
       d="m 27.999168,20.603322 c 0.977416,-0.719222 1.99203,-1.640917 3.001534,-2.576092" /><path
       id="path4"
       style="fill:none;stroke:#ee4100;stroke-width:1.00157;stroke-linecap:round;stroke-linejoin:miter;stroke-dasharray:none;stroke-opacity:1"
       d="m 21.99964,21.101217 c 0.913425,0.534246 1.845141,0.875252 2.783895,0.8923 0.975344,0.01771 2.069934,-0.547145 3.215633,-1.390195" /><path
       id="path3"
       style="fill:none;stroke:#e88500;stroke-width:1.00157;stroke-linecap:round;stroke-linejoin:miter;stroke-dasharray:none;stroke-opacity:1"
       d="m 18.999733,18.748133 c 0.966066,0.904956 1.971391,1.751522 2.999907,2.353084" /><path
       id="path2"
       style="fill:none;stroke:#f1a16e;stroke-width:1.00157;stroke-linecap:round;stroke-linejoin:miter;stroke-dasharray:none;stroke-opacity:1"
       d="m 12.999153,13.81286 c 1.635813,0.310506 3.707617,2.787357 6.00058,4.935273" /><path
       id="path1"
       style="fill:none;stroke:#6cb40f;stroke-width:1.00157;stroke-linecap:round;stroke-linejoin:miter;stroke-dasharray:none;stroke-opacity:1"
       d="m 8,17 c 0,0 1.980155,-3.631901 4.918059,-3.2008 0.02691,0.0039 0.05394,0.0085 0.08109,0.01366" /></g><g
     id="g1"><path
       id="path7"
       style="fill:none;stroke:#6cb40f;stroke-width:1.25;stroke-linecap:round;stroke-linejoin:miter;stroke-dasharray:none;stroke-opacity:1"
       d="m 37.070576,25.676258 c 4.128126,-0.772795 4.999041,3.31208 4.999041,3.31208" /><path
       id="path8"
       style="fill:none;stroke:#f3bf00;stroke-width:1.25;stroke-linecap:round;stroke-linejoin:miter;stroke-dasharray:none;stroke-opacity:1"
       d="m 31.070319,30.015568 c 2.10814,-1.95292 4.193997,-3.964631 5.872285,-4.314005 0.043,-0.009 0.08566,-0.01738 0.127972,-0.0253" /><path
       id="path9"
       style="fill:none;stroke:#e88500;stroke-width:1.25;stroke-linecap:round;stroke-linejoin:miter;stroke-dasharray:none;stroke-opacity:1"
       d="m 28.068785,32.59166 c 0.977416,-0.719222 1.99203,-1.640917 3.001534,-2.576092" /><path
       id="path10"
       style="opacity:0.726073;fill:none;stroke:#ed726c;stroke-width:1.25;stroke-linecap:round;stroke-linejoin:miter;stroke-dasharray:none;stroke-opacity:1"
       d="m 22.069257,33.089555 c 0.913425,0.534246 1.845141,0.875252 2.783895,0.8923 0.975344,0.01771 2.069934,-0.547145 3.215633,-1.390195" /><path
       id="path11"
       style="fill:none;stroke:#e88500;stroke-width:1.25;stroke-linecap:round;stroke-linejoin:miter;stroke-dasharray:none;stroke-opacity:1"
       d="m 19.06935,30.736471 c 0.966066,0.904956 1.971391,1.751522 2.999907,2.353084" /><path
       id="path12"
       style="fill:none;stroke:#f3bf00;stroke-width:1.25;stroke-linecap:round;stroke-linejoin:miter;stroke-dasharray:none;stroke-opacity:1"
       d="m 13.06877,25.801198 c 1.635813,0.310506 3.707617,2.787357 6.00058,4.935273" /><path
       id="path13"
       style="fill:none;stroke:#6cb40f;stroke-width:1.25;stroke-linecap:round;stroke-linejoin:miter;stroke-dasharray:none;stroke-opacity:1"
       d="m 8.0696167,28.988338 c 0,0 1.9801553,-3.631901 4.9180593,-3.2008 0.02691,0.0039 0.05394,0.0085 0.08109,0.01366" /></g><g
     id="g20"
     transform="translate(0.06961667,-5.9908009)"
     style="display:inline;opacity:0.3"><path
       id="path14"
       style="fill:none;stroke:#3da700;stroke-width:1.00157;stroke-linecap:round;stroke-linejoin:miter;stroke-dasharray:none;stroke-opacity:1"
       d="M 37.000959,13.68792 C 41.129085,12.915125 42,17 42,17" /><path
       id="path15"
       style="fill:none;stroke:#f3bf00;stroke-width:1.00157;stroke-linecap:round;stroke-linejoin:miter;stroke-dasharray:none;stroke-opacity:1"
       d="m 31.000702,18.02723 c 2.10814,-1.95292 4.193997,-3.964631 5.872285,-4.314005 0.043,-0.009 0.08566,-0.01738 0.127972,-0.0253" /><path
       id="path16"
       style="fill:none;stroke:#e88500;stroke-width:1.00157;stroke-linecap:round;stroke-linejoin:miter;stroke-dasharray:none;stroke-opacity:1"
       d="m 27.999168,20.603322 c 0.977416,-0.719222 1.99203,-1.640917 3.001534,-2.576092" /><path
       id="path17"
       style="fill:none;stroke:#e50014;stroke-width:1.00157;stroke-linecap:round;stroke-linejoin:miter;stroke-dasharray:none;stroke-opacity:1"
       d="m 21.99964,21.101217 c 0.913425,0.534246 1.845141,0.875252 2.783895,0.8923 0.975344,0.01771 2.069934,-0.547145 3.215633,-1.390195" /><path
       id="path18"
       style="fill:none;stroke:#e88500;stroke-width:1.00157;stroke-linecap:round;stroke-linejoin:miter;stroke-dasharray:none;stroke-opacity:1"
       d="m 18.999733,18.748133 c 0.966066,0.904956 1.971391,1.751522 2.999907,2.353084" /><path
       id="path19-0"
       style="fill:none;stroke:#f3bf00;stroke-width:1.00157;stroke-linecap:round;stroke-linejoin:miter;stroke-dasharray:none;stroke-opacity:1"
       d="m 12.999153,13.81286 c 1.635813,0.310506 3.707617,2.787357 6.00058,4.935273" /><path
       id="path20"
       style="fill:none;stroke:#3da700;stroke-width:1.00157;stroke-linecap:round;stroke-linejoin:miter;stroke-dasharray:none;stroke-opacity:1"
       d="m 8,17 c 0,0 1.980155,-3.631901 4.918059,-3.2008 0.02691,0.0039 0.05394,0.0085 0.08109,0.01366" /></g><g
     id="g27"
     transform="translate(0,6)"
     style="display:inline;opacity:0.3"><path
       id="path21"
       style="fill:none;stroke:#3da700;stroke-width:1.00157;stroke-linecap:round;stroke-linejoin:miter;stroke-dasharray:none;stroke-opacity:1"
       d="M 37.000959,13.68792 C 41.129085,12.915125 42,17 42,17" /><path
       id="path22"
       style="fill:none;stroke:#f3bf00;stroke-width:1.00157;stroke-linecap:round;stroke-linejoin:miter;stroke-dasharray:none;stroke-opacity:1"
       d="m 31.000702,18.02723 c 2.10814,-1.95292 4.193997,-3.964631 5.872285,-4.314005 0.043,-0.009 0.08566,-0.01738 0.127972,-0.0253" /><path
       id="path23"
       style="fill:none;stroke:#e88500;stroke-width:1.00157;stroke-linecap:round;stroke-linejoin:miter;stroke-dasharray:none;stroke-opacity:1"
       d="m 27.999168,20.603322 c 0.977416,-0.719222 1.99203,-1.640917 3.001534,-2.576092" /><path
       id="path24"
       style="fill:none;stroke:#e50014;stroke-width:1.00157;stroke-linecap:round;stroke-linejoin:miter;stroke-dasharray:none;stroke-opacity:1"
       d="m 21.99964,21.101217 c 0.913425,0.534246 1.845141,0.875252 2.783895,0.8923 0.975344,0.01771 2.069934,-0.547145 3.215633,-1.390195" /><path
       id="path25"
       style="fill:none;stroke:#e88500;stroke-width:1.00157;stroke-linecap:round;stroke-linejoin:miter;stroke-dasharray:none;stroke-opacity:1"
       d="m 18.999733,18.748133 c 0.966066,0.904956 1.971391,1.751522 2.999907,2.353084" /><path
       id="path26"
       style="fill:none;stroke:#f3bf00;stroke-width:1.00157;stroke-linecap:round;stroke-linejoin:miter;stroke-dasharray:none;stroke-opacity:1"
       d="m 12.999153,13.81286 c 1.635813,0.310506 3.707617,2.787357 6.00058,4.935273" /><path
       id="path27"
       style="fill:none;stroke:#3da700;stroke-width:1.00157;stroke-linecap:round;stroke-linejoin:miter;stroke-dasharray:none;stroke-opacity:1"
       d="m 8,17 c 0,0 1.980155,-3.631901 4.918059,-3.2008 0.02691,0.0039 0.05394,0.0085 0.08109,0.01366" /></g><g
     id="g34"
     transform="translate(0.06961667,17.988338)"
     style="display:inline;opacity:0.3"><path
       id="path28"
       style="fill:none;stroke:#3da700;stroke-width:1.00157;stroke-linecap:round;stroke-linejoin:miter;stroke-dasharray:none;stroke-opacity:1"
       d="M 37.000959,13.68792 C 41.129085,12.915125 42,17 42,17" /><path
       id="path29"
       style="fill:none;stroke:#f3bf00;stroke-width:1.00157;stroke-linecap:round;stroke-linejoin:miter;stroke-dasharray:none;stroke-opacity:1"
       d="m 31.000702,18.02723 c 2.10814,-1.95292 4.193997,-3.964631 5.872285,-4.314005 0.043,-0.009 0.08566,-0.01738 0.127972,-0.0253" /><path
       id="path30"
       style="fill:none;stroke:#e88500;stroke-width:1.00157;stroke-linecap:round;stroke-linejoin:miter;stroke-dasharray:none;stroke-opacity:1"
       d="m 27.999168,20.603322 c 0.977416,-0.719222 1.99203,-1.640917 3.001534,-2.576092" /><path
       id="path31"
       style="fill:none;stroke:#e50014;stroke-width:1.00157;stroke-linecap:round;stroke-linejoin:miter;stroke-dasharray:none;stroke-opacity:1"
       d="m 21.99964,21.101217 c 0.913425,0.534246 1.845141,0.875252 2.783895,0.8923 0.975344,0.01771 2.069934,-0.547145 3.215633,-1.390195" /><path
       id="path32"
       style="fill:none;stroke:#e88500;stroke-width:1.00157;stroke-linecap:round;stroke-linejoin:miter;stroke-dasharray:none;stroke-opacity:1"
       d="m 18.999733,18.748133 c 0.966066,0.904956 1.971391,1.751522 2.999907,2.353084" /><path
       id="path33"
       style="fill:none;stroke:#f3bf00;stroke-width:1.00157;stroke-linecap:round;stroke-linejoin:miter;stroke-dasharray:none;stroke-opacity:1"
       d="m 12.999153,13.81286 c 1.635813,0.310506 3.707617,2.787357 6.00058,4.935273" /><path
       id="path34"
       style="fill:none;stroke:#3da700;stroke-width:1.00157;stroke-linecap:round;stroke-linejoin:miter;stroke-dasharray:none;stroke-opacity:1"
       d="m 8,17 c 0,0 1.980155,-3.631901 4.918059,-3.2008 0.02691,0.0039 0.05394,0.0085 0.08109,0.01366" /></g><path
     style="display:inline;fill:none;stroke:#e5e5f6;stroke-width:2;stroke-linecap:butt;stroke-linejoin:miter;stroke-dasharray:none;stroke-opacity:1"
     d="M 1.864409,3.8150364 43.246872,45.197499"
     id="path19" /><path
     style="display:inline;fill:none;stroke:#121212;stroke-width:5.3;stroke-linecap:butt;stroke-linejoin:miter;stroke-dasharray:none;stroke-opacity:1"
     d="M 4.6028127,1.4546417 45.617541,42.469369"
     id="path19-3" /></g>


<!-- TINKERLAYER FOR USE AS DESIGN SANDBOX. DELETE IN FINAL VERSION -->
</svg>
