<?xml version="1.0" encoding="UTF-8" standalone="no"?>
<!-- Uploaded to: SVG Repo, www.svgrepo.com, Generator: SVG Repo Mixer Tools -->

<svg
   fill="#000000"
   width="48"
   height="48"
   viewBox="0 0 48 48"
   id="icons"
   version="1.1"
   sodipodi:docname="AIsparkles.svg"
   xml:space="preserve"
   inkscape:version="1.4 (e7c3feb1, 2024-10-09)"
   xmlns:inkscape="http://www.inkscape.org/namespaces/inkscape"
   xmlns:sodipodi="http://sodipodi.sourceforge.net/DTD/sodipodi-0.dtd"
   xmlns="http://www.w3.org/2000/svg"
   xmlns:svg="http://www.w3.org/2000/svg"><defs
     id="defs3" /><sodipodi:namedview
     id="namedview3"
     pagecolor="#ffffff"
     bordercolor="#111111"
     borderopacity="1"
     inkscape:showpageshadow="0"
     inkscape:pageopacity="0"
     inkscape:pagecheckerboard="1"
     inkscape:deskcolor="#d1d1d1"
     showgrid="true"
     inkscape:zoom="8.6007317"
     inkscape:cx="37.49681"
     inkscape:cy="4.1275558"
     inkscape:window-width="1200"
     inkscape:window-height="763"
     inkscape:window-x="228"
     inkscape:window-y="67"
     inkscape:window-maximized="0"
     inkscape:current-layer="layer1"><inkscape:grid
       id="grid3"
       units="px"
       originx="0"
       originy="0"
       spacingx="2"
       spacingy="2"
       empcolor="#0099e5"
       empopacity="0.30196078"
       color="#0099e5"
       opacity="0.14901961"
       empspacing="2"
       enabled="true"
       visible="true" /></sodipodi:namedview><g
     inkscape:groupmode="layer"
     id="layer1"
     inkscape:label="EnabledLayer"
     sodipodi:insensitive="true"><path
       style="fill:#000000;fill-opacity:1;stroke:none;stroke-width:0.200001;stroke-linecap:butt;stroke-linejoin:miter;stroke-dasharray:none;stroke-opacity:1"
       d="M 27.254493,27.929762 C 24.406169,31.182389 24,42.350636 24,42.350636 c 0,0 -0.40617,-11.168247 -3.254494,-14.420874 -2.848324,-3.252629 -10.464358,-3.870929 -10.464358,-3.870929 0,0 7.616034,-0.618301 10.464358,-3.870928 C 23.59383,16.935276 24,5.7670295 24,5.7670295 c 0,0 0.406169,11.1682465 3.254493,14.4208755 2.848324,3.252627 10.464359,3.870928 10.464359,3.870928 0,0 -7.616035,0.6183 -10.464359,3.870929 z"
       id="path6"
       sodipodi:nodetypes="zczczczcz" /><path
       style="fill:#000000;fill-opacity:1;stroke:none;stroke-width:0.200001;stroke-linecap:butt;stroke-linejoin:miter;stroke-dasharray:none;stroke-opacity:1"
       d="M 37.397606,13.68928 C 36.174425,15.086085 36,20.171742 36,20.171742 c 0,0 -0.174425,-5.085657 -1.397605,-6.482462 -1.223183,-1.396804 -4.493803,-1.662327 -4.493803,-1.662327 0,0 3.27062,-0.265523 4.493803,-1.662327 C 35.825575,8.9678208 36,4.171742 36,4.171742 c 0,0 0.174425,4.7960788 1.397606,6.192884 1.22318,1.396804 4.493802,1.662327 4.493802,1.662327 0,0 -3.270622,0.265523 -4.493802,1.662327 z"
       id="path7"
       sodipodi:nodetypes="zczczczcz" /></g></svg>
