<?xml version="1.0" encoding="UTF-8" standalone="no"?>
<!-- Created with Inkscape (http://www.inkscape.org/) -->

<svg
   width="48"
   height="48"
   viewBox="0 0 48 48"
   version="1.1"
   id="svg1"
   xml:space="preserve"
   inkscape:version="1.3 (0e150ed, 2023-07-21)"
   sodipodi:docname="SlicerToggleOnRight.svg"
   inkscape:export-filename="PNG/SlicerUpArrowV1-24.png"
   inkscape:export-xdpi="48"
   inkscape:export-ydpi="48"
   xmlns:inkscape="http://www.inkscape.org/namespaces/inkscape"
   xmlns:sodipodi="http://sodipodi.sourceforge.net/DTD/sodipodi-0.dtd"
   xmlns="http://www.w3.org/2000/svg"
   xmlns:svg="http://www.w3.org/2000/svg"><sodipodi:namedview
     id="namedview1"
     pagecolor="#ffffff"
     bordercolor="#111111"
     borderopacity="1"
     inkscape:showpageshadow="0"
     inkscape:pageopacity="0"
     inkscape:pagecheckerboard="1"
     inkscape:deskcolor="#d1d1d1"
     inkscape:document-units="px"
     showgrid="true"
     inkscape:zoom="3.4512547"
     inkscape:cx="30.713468"
     inkscape:cy="28.250595"
     inkscape:window-width="1392"
     inkscape:window-height="773"
     inkscape:window-x="-11"
     inkscape:window-y="28"
     inkscape:window-maximized="0"
     inkscape:current-layer="LightThemeEnabledLayer"
     showguides="true"><inkscape:grid
       id="grid1"
       units="px"
       originx="0"
       originy="0"
       spacingx="2"
       spacingy="2"
       empcolor="#0099e5"
       empopacity="0.30196078"
       color="#0099e5"
       opacity="0.14902"
       empspacing="1"
       dotted="false"
       gridanglex="30"
       gridanglez="30"
       visible="true" /></sodipodi:namedview><defs
     id="defs1" /><g
     id="DarkThemeDisabledLayer"
     inkscape:groupmode="layer"
     inkscape:label="DarkThemeDisabledLayer"
     style="display:none"
     sodipodi:insensitive="true"><path
       id="rect4-1-1-5"
       style="display:inline;fill:none;fill-opacity:1;stroke:#666666;stroke-width:2.08501;stroke-linecap:round;stroke-linejoin:round;stroke-dasharray:none;paint-order:fill markers stroke"
       d="m 22.270417,32.97503 h 10.331318 c 5.705276,0 10.29834,-4.008438 10.29834,-8.987519 0,-4.979072 -4.593064,-8.987509 -10.29834,-8.987509 v 0 L 22.270417,15" /><path
       id="rect4-1-1-0-00"
       style="display:inline;fill:#808080;fill-opacity:1;stroke:#666666;stroke-width:1.93976;stroke-linecap:round;stroke-linejoin:round;stroke-dasharray:none;paint-order:fill markers stroke"
       d="m 31.034937,26.980121 h 3.002383 c 1.65801,0 2.992799,-1.334704 2.992799,-2.992607 0,-1.6579 -1.334789,-2.992604 -2.992799,-2.992604 v 0 l -3.002383,-1e-6" /><path
       id="rect4-1-1-9-6"
       style="display:inline;fill:none;fill-opacity:1;stroke:#666666;stroke-width:2.08501;stroke-linecap:round;stroke-linejoin:round;stroke-dasharray:none;paint-order:fill markers stroke"
       d="M 25.685313,32.97503 H 15.353995 c -5.7052758,0 -10.2983398,-4.008438 -10.2983398,-8.987519 0,-4.979072 4.593064,-8.987509 10.2983398,-8.987509 v 0 L 25.685313,15" /><path
       id="rect4-1-1-0-0-7"
       style="display:inline;fill:#808080;fill-opacity:1;stroke:#666666;stroke-width:2.04198;stroke-linecap:round;stroke-linejoin:round;stroke-dasharray:none;paint-order:fill markers stroke"
       d="m 31.66358,26.980121 h -3.32716 c -1.837361,0 -3.316538,-1.334704 -3.316538,-2.992607 0,-1.6579 1.479177,-2.992604 3.316538,-2.992604 v 0 l 3.32716,-1e-6" /></g><g
     id="LightThemeDisabledLayer"
     inkscape:groupmode="layer"
     inkscape:label="LightThemeDisabledLayer"
     style="display:none"
     sodipodi:insensitive="true"><path
       id="rect4-1-1-03"
       style="display:inline;fill:none;fill-opacity:1;stroke:#b2b2b2;stroke-width:2.08501;stroke-linecap:round;stroke-linejoin:round;stroke-dasharray:none;paint-order:fill markers stroke"
       d="m 22.270417,32.97503 h 10.331318 c 5.705276,0 10.29834,-4.008438 10.29834,-8.987519 0,-4.979072 -4.593064,-8.987509 -10.29834,-8.987509 v 0 L 22.270417,15" /><path
       id="rect4-1-1-0-2"
       style="display:inline;fill:#e8e8ff;fill-opacity:1;stroke:#b2b2b2;stroke-width:1.93976;stroke-linecap:round;stroke-linejoin:round;stroke-dasharray:none;paint-order:fill markers stroke"
       d="m 31.034937,26.980121 h 3.002383 c 1.65801,0 2.992799,-1.334704 2.992799,-2.992607 0,-1.6579 -1.334789,-2.992604 -2.992799,-2.992604 v 0 l -3.002383,-1e-6" /><path
       id="rect4-1-1-9-8"
       style="display:inline;fill:none;fill-opacity:1;stroke:#b2b2b2;stroke-width:2.08501;stroke-linecap:round;stroke-linejoin:round;stroke-dasharray:none;paint-order:fill markers stroke"
       d="M 25.685313,32.97503 H 15.353995 c -5.7052758,0 -10.2983398,-4.008438 -10.2983398,-8.987519 0,-4.979072 4.593064,-8.987509 10.2983398,-8.987509 v 0 L 25.685313,15" /><path
       id="rect4-1-1-0-0-2"
       style="display:inline;fill:#e8e8ff;fill-opacity:1;stroke:#b2b2b2;stroke-width:2.04198;stroke-linecap:round;stroke-linejoin:round;stroke-dasharray:none;paint-order:fill markers stroke"
       d="m 31.66358,26.980121 h -3.32716 c -1.837361,0 -3.316538,-1.334704 -3.316538,-2.992607 0,-1.6579 1.479177,-2.992604 3.316538,-2.992604 v 0 l 3.32716,-1e-6" /></g><g
     id="DarkThemeEnabledLayer"
     inkscape:groupmode="layer"
     inkscape:label="DarkThemeEnabledLayer"
     style="display:none;stroke:#e5e5f6"
     sodipodi:insensitive="true"><path
       id="rect4-1-1"
       style="display:inline;fill:none;fill-opacity:1;stroke:#e5e5f6;stroke-width:2.08501;stroke-linecap:round;stroke-linejoin:round;stroke-dasharray:none;paint-order:fill markers stroke"
       d="m 22.270417,32.97503 h 10.331318 c 5.705276,0 10.29834,-4.008438 10.29834,-8.987519 0,-4.979072 -4.593064,-8.987509 -10.29834,-8.987509 v 0 L 22.270417,15" /><path
       id="rect4-1-1-0"
       style="display:inline;fill:#808080;fill-opacity:1;stroke:#e5e5f6;stroke-width:1.93976;stroke-linecap:round;stroke-linejoin:round;stroke-dasharray:none;paint-order:fill markers stroke"
       d="m 31.034937,26.980121 h 3.002383 c 1.65801,0 2.992799,-1.334704 2.992799,-2.992607 0,-1.6579 -1.334789,-2.992604 -2.992799,-2.992604 v 0 l -3.002383,-1e-6" /><path
       id="rect4-1-1-9"
       style="display:inline;fill:none;fill-opacity:1;stroke:#e5e5f6;stroke-width:2.08501;stroke-linecap:round;stroke-linejoin:round;stroke-dasharray:none;paint-order:fill markers stroke"
       d="M 25.685313,32.97503 H 15.353995 c -5.7052758,0 -10.2983398,-4.008438 -10.2983398,-8.987519 0,-4.979072 4.593064,-8.987509 10.2983398,-8.987509 v 0 L 25.685313,15" /><path
       id="rect4-1-1-0-0"
       style="display:inline;fill:#808080;fill-opacity:1;stroke:#e5e5f6;stroke-width:2.04198;stroke-linecap:round;stroke-linejoin:round;stroke-dasharray:none;paint-order:fill markers stroke"
       d="m 31.66358,26.980121 h -3.32716 c -1.837361,0 -3.316538,-1.334704 -3.316538,-2.992607 0,-1.6579 1.479177,-2.992604 3.316538,-2.992604 v 0 l 3.32716,-1e-6" /></g><g
     inkscape:label="LightThemeEnabledLayer"
     id="LightThemeEnabledLayer"
     inkscape:groupmode="layer"
     style="display:inline"
     sodipodi:insensitive="true"><path
       id="rect4-1-1-4"
       style="display:inline;fill:none;fill-opacity:1;stroke:#000000;stroke-width:2.08501;stroke-linecap:round;stroke-linejoin:round;stroke-dasharray:none;paint-order:fill markers stroke"
       d="m 22.270417,32.97503 h 10.331318 c 5.705276,0 10.29834,-4.008438 10.29834,-8.987519 0,-4.979072 -4.593064,-8.987509 -10.29834,-8.987509 v 0 L 22.270417,15" /><path
       id="rect4-1-1-0-8"
       style="display:inline;fill:#808080;fill-opacity:1;stroke:#000000;stroke-width:1.93976;stroke-linecap:round;stroke-linejoin:round;stroke-dasharray:none;paint-order:fill markers stroke"
       d="m 31.034937,26.980121 h 3.002383 c 1.65801,0 2.992799,-1.334704 2.992799,-2.992607 0,-1.6579 -1.334789,-2.992604 -2.992799,-2.992604 v 0 l -3.002383,-1e-6" /><path
       id="rect4-1-1-9-1"
       style="display:inline;fill:none;fill-opacity:1;stroke:#000000;stroke-width:2.08501;stroke-linecap:round;stroke-linejoin:round;stroke-dasharray:none;paint-order:fill markers stroke"
       d="M 25.685313,32.97503 H 15.353995 c -5.7052758,0 -10.2983398,-4.008438 -10.2983398,-8.987519 0,-4.979072 4.593064,-8.987509 10.2983398,-8.987509 v 0 L 25.685313,15" /><path
       id="rect4-1-1-0-0-8"
       style="display:inline;fill:#808080;fill-opacity:1;stroke:#000000;stroke-width:2.04198;stroke-linecap:round;stroke-linejoin:round;stroke-dasharray:none;paint-order:fill markers stroke"
       d="m 31.66358,26.980121 h -3.32716 c -1.837361,0 -3.316538,-1.334704 -3.316538,-2.992607 0,-1.6579 1.479177,-2.992604 3.316538,-2.992604 v 0 l 3.32716,-1e-6" /></g></svg>
