<?xml version="1.0" encoding="UTF-8" standalone="no"?>
<!-- Created with Inkscape (http://www.inkscape.org/) -->

<svg
   width="48"
   height="48"
   viewBox="0 0 48 48"
   version="1.1"
   id="svg1"
   xml:space="preserve"
   inkscape:version="1.4 (e7c3feb1, 2024-10-09)"
   sodipodi:docname="SlicerDownloadExtension.svg"
   inkscape:export-filename="../../../../../../Desktop/m-48.png"
   inkscape:export-xdpi="96"
   inkscape:export-ydpi="96"
   xmlns:inkscape="http://www.inkscape.org/namespaces/inkscape"
   xmlns:sodipodi="http://sodipodi.sourceforge.net/DTD/sodipodi-0.dtd"
   xmlns="http://www.w3.org/2000/svg"
   xmlns:svg="http://www.w3.org/2000/svg"><sodipodi:namedview
     id="namedview1"
     pagecolor="#ffffff"
     bordercolor="#111111"
     borderopacity="1"
     inkscape:showpageshadow="0"
     inkscape:pageopacity="0"
     inkscape:pagecheckerboard="1"
     inkscape:deskcolor="#d1d1d1"
     inkscape:document-units="px"
     showgrid="true"
     inkscape:zoom="12.680547"
     inkscape:cx="28.587095"
     inkscape:cy="18.926628"
     inkscape:window-width="1392"
     inkscape:window-height="762"
     inkscape:window-x="33"
     inkscape:window-y="25"
     inkscape:window-maximized="0"
     inkscape:current-layer="LightThemeEnabledLayer"
     showguides="true"><inkscape:grid
       id="grid1"
       units="px"
       originx="0"
       originy="0"
       spacingx="2"
       spacingy="2"
       empcolor="#0099e5"
       empopacity="0.30196078"
       color="#0099e5"
       opacity="0.14901961"
       empspacing="1"
       dotted="false"
       gridanglex="30"
       gridanglez="30"
       visible="true" /><inkscape:grid
       id="grid2"
       units="px"
       originx="0"
       originy="0"
       spacingx="2"
       spacingy="2"
       empcolor="#0099e5"
       empopacity="0.30196078"
       color="#ff14f6"
       opacity="0.14901961"
       empspacing="2"
       enabled="true"
       visible="true"
       dotted="true" /></sodipodi:namedview><defs
     id="defs1" /><g
     id="LightThemeEnabledLayer"
     inkscape:groupmode="layer"
     inkscape:label="EnabledLayer"
     style="display:inline;stroke:#000000"
     sodipodi:insensitive="true"><path
       style="fill:none;stroke:#e5e5f6;stroke-width:2;stroke-linecap:round;stroke-linejoin:round;stroke-dasharray:none;stroke-opacity:1"
       d="m 7.0000003,34.937036 v 8.117158 H 41.000003 v -8.117158"
       id="path2"
       sodipodi:nodetypes="cccc" /><path
       style="fill:none;stroke:#e5e5f6;stroke-width:2;stroke-linecap:round;stroke-linejoin:miter;stroke-dasharray:none;stroke-opacity:1"
       d="m 24,38 8.996925,-9.270199"
       id="path4"
       sodipodi:nodetypes="cc" /><path
       style="fill:none;stroke:#e5e5f6;stroke-width:2;stroke-linecap:round;stroke-linejoin:miter;stroke-dasharray:none;stroke-opacity:1"
       d="M 24,38 14.996925,28.729801"
       id="path4-2"
       sodipodi:nodetypes="cc" /><path
       id="path2-8"
       style="display:inline;fill:none;fill-opacity:1;stroke:#e5e5f6;stroke-width:1.5;stroke-linecap:round;stroke-linejoin:round;stroke-dasharray:none;stroke-opacity:1;paint-order:fill markers stroke"
       d="M 24.550135,4 C 23.190335,4 22.394612,4.7701415 22,6 v 3.0899584 l -6.93028,-0.021959 0.01205,3.9897786 c 0,0 1.706396,0.05558 2.918226,0.01644 0.972702,0.160705 1.86686,1.262492 1.96041,2.886515 -0.02767,1.597314 -0.954331,2.841451 -1.960862,2.927509 -1.018371,-0.02744 -2,-0.0061 -3.002623,-0.01246 0.0059,1.897875 -0.0019,2.856646 4.52e-4,5.00103 L 21.156032,24 c 0.0942,-0.754136 -0.0018,-1.500539 0.04933,-2.431598 -0.04374,-1.560152 1.76586,-2.139329 3.12276,-2.163453 1.504493,0.05902 2.8875,0.79255 2.806985,2.169028 -0.0098,1.173334 -0.01713,1.621501 0.03369,2.426023 1.487291,-0.01004 2.440308,0 3.927783,0 l 0.05626,-7 c 0,0 1.874543,1 2.9265,1 1.051957,0 1.947189,-1.248857 1.92066,-2.450116 -0.02585,-1.169858 -0.4653,-2.370258 -1.92066,-2.35151 -1.107472,-0.06081 -2.898365,1 -2.898365,1 l 0.04014,-5.0962835 -4.097464,-0.012132 c 0,0 0.03926,-1.5858346 -0.0018,-3.0899584 -0.23142,-1.1624128 -1.093713,-1.9956261 -2.57171,-2 z"
       sodipodi:nodetypes="ccccccccccccccccczsccccccc" /><path
       style="fill:none;stroke:#e5e5f6;stroke-width:1.5;stroke-linecap:round;stroke-linejoin:miter;stroke-dasharray:none;stroke-opacity:1"
       d="M 24,38 V 27.091369"
       id="path3" /></g></svg>
