<?xml version="1.0" encoding="UTF-8" standalone="no"?>
<!-- Created with Inkscape (http://www.inkscape.org/) -->

<svg
   width="48"
   height="48"
   viewBox="0 0 48 48"
   version="1.1"
   id="svg1"
   xml:space="preserve"
   inkscape:version="1.3 (0e150ed, 2023-07-21)"
   sodipodi:docname="SlicerPending1-V1.svg"
   inkscape:export-filename="SlicerPending2-V1-48.png"
   inkscape:export-xdpi="96"
   inkscape:export-ydpi="96"
   xmlns:inkscape="http://www.inkscape.org/namespaces/inkscape"
   xmlns:sodipodi="http://sodipodi.sourceforge.net/DTD/sodipodi-0.dtd"
   xmlns="http://www.w3.org/2000/svg"
   xmlns:svg="http://www.w3.org/2000/svg"><sodipodi:namedview
     id="namedview1"
     pagecolor="#ffffff"
     bordercolor="#111111"
     borderopacity="1"
     inkscape:showpageshadow="0"
     inkscape:pageopacity="0"
     inkscape:pagecheckerboard="1"
     inkscape:deskcolor="#d1d1d1"
     inkscape:document-units="px"
     showgrid="true"
     inkscape:zoom="6.378224"
     inkscape:cx="27.045146"
     inkscape:cy="25.86927"
     inkscape:window-width="1392"
     inkscape:window-height="773"
     inkscape:window-x="15"
     inkscape:window-y="25"
     inkscape:window-maximized="0"
     inkscape:current-layer="layer2"
     showguides="true"><inkscape:grid
       id="grid1"
       units="px"
       originx="0"
       originy="0"
       spacingx="1"
       spacingy="1"
       empcolor="#0099e5"
       empopacity="0.30196078"
       color="#0099e5"
       opacity="0.14901961"
       empspacing="1"
       dotted="false"
       gridanglex="30"
       gridanglez="30"
       visible="true" /></sodipodi:namedview><defs
     id="defs1" /><g
     inkscape:groupmode="layer"
     id="layer2"
     inkscape:label="IconLayer1"><path
       d="m 13.98825,25.76925 c 0.492433,0 0.909817,-0.172367 1.25215,-0.5171 0.3423,-0.344733 0.51345,-0.763317 0.51345,-1.25575 0,-0.492467 -0.172367,-0.90985 -0.5171,-1.25215 -0.3447,-0.342333 -0.763283,-0.5135 -1.25575,-0.5135 -0.492467,0 -0.90985,0.172367 -1.25215,0.5171 -0.3423,0.344733 -0.51345,0.763317 -0.51345,1.25575 0,0.492467 0.17235,0.90985 0.51705,1.25215 0.344733,0.342333 0.763333,0.5135 1.2558,0.5135 z M 24.02,42 C 21.514133,42 19.173167,41.527683 16.9971,40.58305 14.821033,39.638383 12.916933,38.348017 11.2848,36.71195 9.6526667,35.075883 8.3638333,33.172333 7.4182999,31.0013 6.4727667,28.830233 6.0000001,26.496767 6.0000001,24.0009 c 0,-2.495833 0.4723166,-4.836717 1.4169499,-7.02265 0.9446667,-2.185933 2.2350333,-4.089367 3.8711,-5.7103 1.636067,-1.6209 3.539617,-2.9041166 5.71065,-3.8496499 2.171067,-0.9455333 4.504533,-1.4183 7.0004,-1.4183 2.495833,0 4.836717,0.4723167 7.02265,1.41695 2.185933,0.9446666 4.089367,2.2266999 5.7103,3.8460999 1.6209,1.6194 2.904117,3.523683 3.84965,5.71285 C 41.527233,19.1651 42,21.4998 42,23.98 c 0,2.505867 -0.472317,4.846833 -1.41695,7.0229 -0.944667,2.176067 -2.2267,4.0771 -3.8461,5.7031 -1.6194,1.626 -3.523683,2.914833 -5.71285,3.8665 C 28.8349,41.524167 26.5002,42 24.02,42 Z m -0.01425,-1.53845 c 4.575667,0 8.462217,-1.60065 11.65965,-4.80195 3.197433,-3.201267 4.79615,-7.089717 4.79615,-11.66535 0,-4.575667 -1.594717,-8.462217 -4.78415,-11.65965 C 32.487967,9.1371667 28.5955,7.53845 24,7.53845 c -4.5718,0 -8.458333,1.5947167 -11.6596,4.78415 C 9.1391,15.512033 7.53845,19.4045 7.53845,24 c 0,4.5718 1.60065,8.458333 4.80195,11.6596 3.201267,3.2013 7.089717,4.80195 11.66535,4.80195 z"
       id="path1"
       style="stroke-width:0.05"
       sodipodi:nodetypes="scscsssssscscscccscccscscsscssscscs" /></g></svg>
