<?xml version="1.0" encoding="UTF-8" standalone="no"?>
<!-- Created with Inkscape (http://www.inkscape.org/) -->

<svg
   width="48"
   height="48"
   viewBox="0 0 48 48"
   version="1.1"
   id="svg1"
   xml:space="preserve"
   inkscape:version="1.3 (0e150ed, 2023-07-21)"
   sodipodi:docname="ModuleSearchV1.svg"
   inkscape:export-filename="PNG/ModuleSearchV1-48.png"
   inkscape:export-xdpi="96"
   inkscape:export-ydpi="96"
   xmlns:inkscape="http://www.inkscape.org/namespaces/inkscape"
   xmlns:sodipodi="http://sodipodi.sourceforge.net/DTD/sodipodi-0.dtd"
   xmlns="http://www.w3.org/2000/svg"
   xmlns:svg="http://www.w3.org/2000/svg"><sodipodi:namedview
     id="namedview1"
     pagecolor="#ffffff"
     bordercolor="#111111"
     borderopacity="1"
     inkscape:showpageshadow="0"
     inkscape:pageopacity="0"
     inkscape:pagecheckerboard="1"
     inkscape:deskcolor="#d1d1d1"
     inkscape:document-units="px"
     showgrid="true"
     inkscape:zoom="9.0201708"
     inkscape:cx="27.327642"
     inkscape:cy="23.835469"
     inkscape:window-width="1392"
     inkscape:window-height="777"
     inkscape:window-x="12"
     inkscape:window-y="28"
     inkscape:window-maximized="0"
     inkscape:current-layer="layer1"><inkscape:grid
       id="grid1"
       units="px"
       originx="0"
       originy="0"
       spacingx="40"
       spacingy="40"
       empcolor="#0099e5"
       empopacity="0.30196078"
       color="#0099e5"
       opacity="0.14901961"
       empspacing="40"
       dotted="false"
       gridanglex="30"
       gridanglez="30"
       visible="true" /><inkscape:grid
       id="grid2"
       units="px"
       originx="20"
       originy="20"
       spacingx="40"
       spacingy="40"
       empcolor="#cd0000"
       empopacity="0.30196078"
       color="#e5001a"
       opacity="0.14901961"
       empspacing="40"
       dotted="false"
       gridanglex="30"
       gridanglez="30"
       visible="true" /></sodipodi:namedview><defs
     id="defs1" /><g
     inkscape:label="Layer 1"
     inkscape:groupmode="layer"
     id="layer1"><g
       id="g1"
       transform="translate(-3.3162108,-8.0443836)"><g
         inkscape:label="Layer 1"
         id="layer1-9"
         transform="matrix(0.04944523,0,0,0.04944523,1.5367507,7.501339)"
         style="stroke-width:20.2244"><path
           d="M 778.68318,280.24147 912,414.32159 889.933,436.38853 755.62462,302.0801 c -11.3516,11.60571 -25.25622,19.92817 -41.71386,24.96737 -16.45698,5.03986 -32.76374,7.55979 -48.92028,7.55979 -40.3414,0 -74.63146,-14.05219 -102.87017,-42.15657 -28.23871,-28.10371 -42.35807,-62.52082 -42.35807,-103.25133 0,-40.73051 14.11936,-75.08773 42.35807,-103.07167 28.23871,-27.98461 62.65582,-41.976915 103.25133,-41.976915 40.59617,0 75.01362,14.034655 103.25233,42.103965 28.23871,28.06865 42.35807,62.44341 42.35807,103.12428 0,17.7143 -2.77437,34.4105 -8.32312,50.0886 -5.54808,15.67876 -13.53999,29.27004 -23.97574,40.77385 z m -113.22716,23.82288 c 31.96236,0 59.1168,-11.09948 81.46332,-33.29843 22.34653,-22.19895 33.51979,-49.35604 33.51979,-81.47127 0,-31.70759 -11.17326,-58.73465 -33.51979,-81.08117 -22.34652,-22.34718 -49.68426,-33.52077 -82.01323,-33.52077 -31.70759,0 -58.73465,11.20138 -81.08117,33.60415 -22.34719,22.40277 -33.52078,49.58534 -33.52078,81.5477 0,31.96236 11.20139,58.98975 33.60416,81.08216 22.40277,22.09175 49.58533,33.13763 81.5477,33.13763 z"
           id="path1-8"
           style="stroke-width:1.01122"
           sodipodi:nodetypes="cccccscscscsccssscscscs" /></g><g
         inkscape:label="Layer 1"
         id="layer1-2"
         transform="matrix(0.04944523,0,0,0.04944523,1.6603607,7.183676)"
         style="stroke-width:20.2244"><path
           d="m 680.13916,694.46039 v -30.77 h -309.231 v 30.77 z m 0,-270.001 v 30.77 h -309.231 v -30.77 z m 0,120 v 30.77 h -309.231 v -30.77 z"
           id="path1"
           style="stroke-width:1.01122"
           sodipodi:nodetypes="ccccccccccccccc" /><path
           d="M 764.65209,500 H 794.524 l 0.82391,400 H 164.65209 V 109.30419 l 270,-0.30435 -0.12249,16.29587 -0.0215,14.5514 H 195.195 V 869.4581 H 764.80599 Z M 195.195,558.46233 V 869.4581 139.84711 536.85398 528.1497 Z"
           id="path1-8-9"
           style="stroke-width:1.01122"
           sodipodi:nodetypes="cccccccccccccccccc" /></g><path
         id="rect2-2"
         style="stroke-width:63.9999;stroke-linecap:square"
         d="m 17.136721,28.134414 h -1.78003 v 1.780029 h 1.78003 z"
         sodipodi:nodetypes="ccccc" /><path
         id="rect2-2-9"
         style="stroke-width:63.9999;stroke-linecap:square"
         d="m 17.168961,34.039991 h -1.78002 v 1.780029 h 1.78002 z"
         sodipodi:nodetypes="ccccc" /><path
         id="rect2-2-91"
         style="stroke-width:63.9999;stroke-linecap:square"
         d="m 17.168961,39.992598 h -1.78002 v 1.780028 h 1.78002 z"
         sodipodi:nodetypes="ccccc" /></g></g></svg>
