<?xml version="1.0" encoding="UTF-8" standalone="no"?>
<!-- Created with Inkscape (http://www.inkscape.org/) -->

<svg
   width="48"
   height="48"
   viewBox="0 0 48 48"
   version="1.1"
   id="svg1"
   xml:space="preserve"
   inkscape:version="1.3 (0e150ed, 2023-07-21)"
   sodipodi:docname="ModuleHistoryV4.svg"
   inkscape:export-filename="PNG/ModuleHistoryV4-48.png"
   inkscape:export-xdpi="96"
   inkscape:export-ydpi="96"
   xmlns:inkscape="http://www.inkscape.org/namespaces/inkscape"
   xmlns:sodipodi="http://sodipodi.sourceforge.net/DTD/sodipodi-0.dtd"
   xmlns="http://www.w3.org/2000/svg"
   xmlns:svg="http://www.w3.org/2000/svg"><sodipodi:namedview
     id="namedview1"
     pagecolor="#ffffff"
     bordercolor="#111111"
     borderopacity="1"
     inkscape:showpageshadow="0"
     inkscape:pageopacity="0"
     inkscape:pagecheckerboard="1"
     inkscape:deskcolor="#d1d1d1"
     inkscape:document-units="px"
     showgrid="true"
     inkscape:zoom="8.0235669"
     inkscape:cx="33.775502"
     inkscape:cy="27.045328"
     inkscape:window-width="1440"
     inkscape:window-height="773"
     inkscape:window-x="0"
     inkscape:window-y="25"
     inkscape:window-maximized="0"
     inkscape:current-layer="layer1"
     showguides="true"><inkscape:grid
       id="grid1"
       units="px"
       originx="0"
       originy="0"
       spacingx="1"
       spacingy="1"
       empcolor="#0099e5"
       empopacity="0.30196078"
       color="#0099e5"
       opacity="0.14901961"
       empspacing="2"
       dotted="false"
       gridanglex="30"
       gridanglez="30"
       visible="true" /><inkscape:grid
       id="grid2"
       units="px"
       originx="20"
       originy="20"
       spacingx="40"
       spacingy="40"
       empcolor="#cd0000"
       empopacity="0.30196078"
       color="#e5001a"
       opacity="0.14901961"
       empspacing="40"
       dotted="false"
       gridanglex="30"
       gridanglez="30"
       visible="true" /><sodipodi:guide
       position="27,40"
       orientation="-1,0"
       id="guide38"
       inkscape:locked="false" /></sodipodi:namedview><defs
     id="defs1"><inkscape:perspective
       sodipodi:type="inkscape:persp3d"
       inkscape:vp_x="0 : 24 : 1"
       inkscape:vp_y="0 : 1000 : 0"
       inkscape:vp_z="48 : 24 : 1"
       inkscape:persp3d-origin="24 : 16 : 1"
       id="perspective8" /></defs><g
     inkscape:label="Layer 1"
     inkscape:groupmode="layer"
     id="layer1"
     style="display:inline"><path
       id="path10"
       style="fill:none;stroke:#000000;stroke-width:2;stroke-linecap:butt;stroke-linejoin:miter;stroke-dasharray:none;stroke-opacity:1"
       d="M 7.4767738 46.000637 C 7.4166909 45.434725 7.388429 44.867668 7.388429 44.3 L 7.388429 44.3 C 7.388429 43.307084 7.4748962 42.316039 7.6668692 41.329709 L 2.9583203 37.981316 L 2.9583203 37.981316 L 8.2133541 29.006723 L 13.150288 31.516744 C 14.852644 29.988207 16.41689 28.794292 18.582629 28.098485 L 19.05021 22.802749 L 29.452395 22.865019 L 29.735168 28.162706 C 31.826098 28.883568 33.742031 30.004613 35.389318 31.421873 L 40.118871 29.173124 L 45.266022 38.209984 L 40.877639 41.091252 C 41.099394 42.160287 41.2 43.228969 41.2 44.3 C 41.2 44.867432 41.171763 45.434205 41.112232 46.00072 " /><path
       id="path8"
       style="display:inline;fill:none;stroke:#808080;stroke-width:2;stroke-linecap:butt;stroke-linejoin:miter;stroke-dasharray:none;stroke-opacity:1"
       d="M 5.7889625,30.093989 2.9535075,28.07761 v 0 l 5.255034,-8.974593 4.9369335,2.510021 c 1.702356,-1.528537 3.266602,-2.722452 5.432341,-3.418258 l 0.467581,-5.295736 10.402185,0.06227 0.282773,5.297687 c 2.09093,0.720861 4.006863,1.841906 5.65415,3.259166 l 4.729553,-2.248749 5.147151,9.03686 -2.722419,1.787451" /><path
       id="path8-9"
       style="display:inline;fill:none;stroke:#bfbfbf;stroke-width:2;stroke-linecap:butt;stroke-linejoin:miter;stroke-dasharray:none;stroke-opacity:1"
       d="M 6.058607,20.134988 3.223153,18.118609 v 0 L 8.478186,9.144016 13.41512,11.654037 C 15.117476,10.1255 16.681722,8.931585 18.847461,8.235779 L 19.315042,2.940043 29.717227,3.002313 30,8.3 c 2.09093,0.720861 4.006863,1.841906 5.65415,3.259166 l 4.729553,-2.248749 5.147151,9.03686 -2.722419,1.787451" /><path
       id="path14"
       style="display:inline;fill:#c8c8dc;fill-opacity:1;stroke:none;stroke-width:2;stroke-linecap:round;stroke-linejoin:round;stroke-dasharray:none;stroke-opacity:1"
       d="M 27.865234 33.337891 L 27.865234 40.779297 C 27.865234 42.000668 26.869235 42.984375 25.630859 42.984375 L 22.552734 42.984375 C 21.314359 42.984375 20.318359 42.000668 20.318359 40.779297 L 20.318359 33.349609 C 20.260666 33.369869 20.201811 33.390749 20.144531 33.412109 C 19.732973 33.597751 19.335648 33.811198 18.955078 34.052734 C 18.574568 34.293892 18.212943 34.561415 17.871094 34.853516 C 17.529248 35.145665 17.208327 35.461676 16.912109 35.798828 C 16.615942 36.135984 16.344124 36.493854 16.099609 36.869141 C 15.85471 37.244483 15.637446 37.637063 15.449219 38.042969 C 15.261261 38.448985 15.103995 38.86665 14.976562 39.294922 C 14.849074 39.723215 14.75186 40.159731 14.6875 40.601562 C 14.62336 41.042973 14.591617 41.489627 14.591797 41.935547 C 14.591627 42.381467 14.62337 42.826168 14.6875 43.267578 C 14.751864 43.709411 14.849075 44.145925 14.976562 44.574219 C 15.104001 45.00249 15.261261 45.422108 15.449219 45.828125 C 15.478139 45.890491 15.512677 45.950014 15.542969 46.011719 L 32.603516 46.083984 C 32.646493 45.998336 32.694058 45.915068 32.734375 45.828125 C 32.922334 45.422108 33.079597 45.002491 33.207031 44.574219 C 33.33452 44.145925 33.431734 43.709411 33.496094 43.267578 C 33.560234 42.826169 33.591972 42.381465 33.591797 41.935547 C 33.591937 41.781901 33.587578 41.628075 33.580078 41.474609 C 33.572258 41.32149 33.562305 41.168182 33.546875 41.015625 C 33.531745 40.863046 33.510991 40.710257 33.488281 40.558594 C 33.465091 40.407259 33.438883 40.257457 33.408203 40.107422 C 33.378451 39.957363 33.345744 39.8086 33.308594 39.660156 C 33.27081 39.511335 33.228744 39.363608 33.183594 39.216797 C 33.138473 39.069954 33.089489 38.923779 33.037109 38.779297 C 32.984632 38.635149 32.928701 38.491048 32.869141 38.349609 C 32.809362 38.207431 32.746507 38.066836 32.679688 37.927734 C 32.613258 37.788991 32.543963 37.652937 32.470703 37.517578 C 32.397604 37.382989 32.319914 37.250045 32.240234 37.119141 C 32.16053 36.987254 32.078367 36.856386 31.992188 36.728516 C 31.905802 36.601502 31.815246 36.478158 31.722656 36.355469 C 31.629648 36.231868 31.534617 36.109172 31.435547 35.990234 C 31.337312 35.871544 31.234873 35.756375 31.130859 35.642578 C 31.025935 35.52947 30.919017 35.418446 30.808594 35.310547 C 30.699193 35.201637 30.587338 35.095674 30.472656 34.992188 C 30.357278 34.889598 30.23948 34.790249 30.119141 34.693359 C 29.998553 34.595654 29.875325 34.499933 29.75 34.408203 C 29.625601 34.316886 29.497918 34.227778 29.369141 34.142578 C 29.239495 34.057584 29.108331 33.977047 28.974609 33.898438 C 28.84188 33.819849 28.706775 33.743965 28.570312 33.671875 C 28.43307 33.599623 28.294971 33.530364 28.154297 33.464844 C 28.058965 33.420931 27.961994 33.378661 27.865234 33.337891 z " /><path
       id="path12"
       style="display:inline;fill:none;stroke:#000000;stroke-width:2;stroke-linecap:round;stroke-linejoin:round;stroke-dasharray:none;stroke-opacity:1"
       d="M 15.494664 46.106941 C 15.479421 46.074564 15.464359 46.042097 15.44948 46.009543 C 15.261522 45.597614 15.103219 45.172773 14.97578 44.738266 C 14.848292 44.303736 14.751995 43.860646 14.687631 43.412381 C 14.623501 42.964543 14.591411 42.512697 14.591581 42.060284 C 14.591401 41.607872 14.623491 41.156026 14.687631 40.708188 C 14.751991 40.259923 14.848291 39.816833 14.97578 39.382303 C 15.103213 38.947796 15.261522 38.522955 15.44948 38.111026 C 15.637707 37.69921 15.8551 37.301378 16.1 36.92057 C 16.344515 36.539819 16.615891 36.177026 16.912059 35.834961 C 17.208277 35.4929 17.52853 35.172445 17.870376 34.876041 C 18.212226 34.579687 18.574791 34.308141 18.955302 34.063472 C 19.335872 33.818418 19.733453 33.600889 20.145012 33.412544 C 20.202292 33.390874 20.259775 33.369764 20.317468 33.349204 L 20.317468 40.887306 C 20.317468 42.12646 21.314436 43.124055 22.552812 43.124055 L 25.630769 43.124055 C 26.869145 43.124055 27.866112 42.12646 27.866112 40.887306 L 27.866112 33.338281 L 27.866112 33.338281 L 27.865928 33.338282 C 27.962688 33.379642 28.058753 33.422602 28.154085 33.467154 C 28.294759 33.533624 28.433779 33.603546 28.571022 33.67685 C 28.707485 33.74999 28.842141 33.82647 28.974871 33.906203 C 29.108593 33.985963 29.240343 34.068985 29.369989 34.155217 C 29.498767 34.241657 29.625419 34.331243 29.749818 34.423889 C 29.875143 34.516959 29.998152 34.613092 30.11874 34.71222 C 30.239079 34.81052 30.356993 34.911757 30.472371 35.015841 C 30.587053 35.120835 30.699155 35.228626 30.808556 35.339121 C 30.918979 35.448591 31.026706 35.560751 31.13163 35.675506 C 31.235644 35.79096 31.33682 35.908949 31.435055 36.029367 C 31.534125 36.150024 31.630206 36.273118 31.723214 36.398519 C 31.815794 36.522994 31.905326 36.649727 31.991712 36.77859 C 32.077892 36.908323 32.160869 37.040144 32.240573 37.173952 C 32.320253 37.306763 32.396675 37.441505 32.469774 37.578054 C 32.543034 37.715384 32.612907 37.854495 32.679337 37.995259 C 32.746147 38.136386 32.809472 38.279137 32.869264 38.423386 C 32.928824 38.566884 32.984887 38.71182 33.03735 38.858067 C 33.08973 39.004652 33.138488 39.152503 33.183609 39.301484 C 33.228759 39.450433 33.270249 39.600468 33.308033 39.751456 C 33.345183 39.902061 33.378653 40.053551 33.408405 40.205795 C 33.439085 40.358014 33.466025 40.510964 33.489215 40.664503 C 33.511925 40.818374 33.530855 40.972779 33.545985 41.12758 C 33.561415 41.282358 33.573035 41.437491 33.580855 41.592841 C 33.588355 41.748541 33.592145 41.904404 33.592005 42.060287 C 33.59218 42.512698 33.560085 42.964544 33.495945 43.412381 C 33.431585 43.860646 33.335288 44.303736 33.207799 44.738266 C 33.080365 45.172774 32.922055 45.597614 32.734096 46.009543 C 32.719217 46.042097 32.704155 46.074564 32.688912 46.106941 " /></g></svg>
