<?xml version="1.0" encoding="UTF-8" standalone="no"?>
<!-- Created with Inkscape (http://www.inkscape.org/) -->

<svg
   width="48"
   height="48"
   viewBox="0 0 48 48"
   version="1.1"
   id="svg1"
   xml:space="preserve"
   inkscape:version="1.3 (0e150ed, 2023-07-21)"
   sodipodi:docname="ModuleHistoryV5.svg"
   inkscape:export-filename="PNG/ModuleHistoryV5-48.png"
   inkscape:export-xdpi="96"
   inkscape:export-ydpi="96"
   xmlns:inkscape="http://www.inkscape.org/namespaces/inkscape"
   xmlns:sodipodi="http://sodipodi.sourceforge.net/DTD/sodipodi-0.dtd"
   xmlns="http://www.w3.org/2000/svg"
   xmlns:svg="http://www.w3.org/2000/svg"><sodipodi:namedview
     id="namedview1"
     pagecolor="#ffffff"
     bordercolor="#111111"
     borderopacity="1"
     inkscape:showpageshadow="0"
     inkscape:pageopacity="0"
     inkscape:pagecheckerboard="1"
     inkscape:deskcolor="#d1d1d1"
     inkscape:document-units="px"
     showgrid="true"
     inkscape:zoom="2.0299766"
     inkscape:cx="22.906668"
     inkscape:cy="38.424089"
     inkscape:window-width="1440"
     inkscape:window-height="773"
     inkscape:window-x="67"
     inkscape:window-y="25"
     inkscape:window-maximized="0"
     inkscape:current-layer="layer1"
     showguides="true"><inkscape:grid
       id="grid1"
       units="px"
       originx="0"
       originy="0"
       spacingx="1"
       spacingy="1"
       empcolor="#0099e5"
       empopacity="0.30196078"
       color="#0099e5"
       opacity="0.14901961"
       empspacing="2"
       dotted="false"
       gridanglex="30"
       gridanglez="30"
       visible="true" /><inkscape:grid
       id="grid2"
       units="px"
       originx="20"
       originy="20"
       spacingx="40"
       spacingy="40"
       empcolor="#cd0000"
       empopacity="0.30196078"
       color="#e5001a"
       opacity="0.14901961"
       empspacing="40"
       dotted="false"
       gridanglex="30"
       gridanglez="30"
       visible="true" /><sodipodi:guide
       position="27,40"
       orientation="-1,0"
       id="guide38"
       inkscape:locked="false" /></sodipodi:namedview><defs
     id="defs1"><inkscape:perspective
       sodipodi:type="inkscape:persp3d"
       inkscape:vp_x="0 : 24 : 1"
       inkscape:vp_y="0 : 1000 : 0"
       inkscape:vp_z="48 : 24 : 1"
       inkscape:persp3d-origin="24 : 16 : 1"
       id="perspective8" /></defs><g
     inkscape:label="Layer 1"
     inkscape:groupmode="layer"
     id="layer1"
     style="display:inline"><path
       id="path10"
       style="fill:none;stroke:#000000;stroke-width:2;stroke-linecap:butt;stroke-linejoin:miter;stroke-dasharray:none;stroke-opacity:1"
       d="M 7.4767738 46.000637 C 7.4166909 45.434725 7.388429 44.867668 7.388429 44.3 L 7.388429 44.3 C 7.388429 43.307084 7.4748962 42.316039 7.6668692 41.329709 L 2.9583203 37.981316 L 2.9583203 37.981316 L 8.2133541 29.006723 L 13.150288 31.516744 C 14.852644 29.988207 16.41689 28.794292 18.582629 28.098485 L 19.05021 22.802749 L 29.452395 22.865019 L 29.735168 28.162706 C 31.826098 28.883568 33.742031 30.004613 35.389318 31.421873 L 40.118871 29.173124 L 45.266022 38.209984 L 40.877639 41.091252 C 41.099394 42.160287 41.2 43.228969 41.2 44.3 C 41.2 44.867432 41.171763 45.434205 41.112232 46.00072 " /><path
       id="path8"
       style="display:inline;fill:none;stroke:#808080;stroke-width:2;stroke-linecap:butt;stroke-linejoin:miter;stroke-dasharray:none;stroke-opacity:1"
       d="M 5.7889625,30.093989 2.9535075,28.07761 v 0 l 5.255034,-8.974593 4.9369335,2.510021 c 1.702356,-1.528537 3.266602,-2.722452 5.432341,-3.418258 l 0.467581,-5.295736 10.402185,0.06227 0.282773,5.297687 c 2.09093,0.720861 4.006863,1.841906 5.65415,3.259166 l 4.729553,-2.248749 5.147151,9.03686 -2.722419,1.787451" /><path
       id="path8-9"
       style="display:inline;fill:none;stroke:#bfbfbf;stroke-width:2;stroke-linecap:butt;stroke-linejoin:miter;stroke-dasharray:none;stroke-opacity:1"
       d="M 6.058607,20.134988 3.223153,18.118609 v 0 L 8.478186,9.144016 13.41512,11.654037 C 15.117476,10.1255 16.681722,8.931585 18.847461,8.235779 L 19.315042,2.940043 29.717227,3.002313 30,8.3 c 2.09093,0.720861 4.006863,1.841906 5.65415,3.259166 l 4.729553,-2.248749 5.147151,9.03686 -2.722419,1.787451" /><path
       id="rect1"
       style="display:inline;fill:#e5e5e5;fill-opacity:1;stroke:#000000;stroke-width:1.5;stroke-linecap:round;stroke-dasharray:none;paint-order:fill markers stroke"
       d="m 14.840704,35.349997 h 6.100003 v 5.899998 h -6.100003 z"
       sodipodi:nodetypes="ccccc" /><path
       id="rect1-4"
       style="display:inline;fill:#acacac;fill-opacity:1;stroke:#000000;stroke-width:1.5;stroke-linecap:round;stroke-dasharray:none;paint-order:fill markers stroke"
       d="m 20.890705,35.349997 h 6.100003 v 5.899998 h -6.100003 z"
       sodipodi:nodetypes="ccccc" /><path
       id="rect1-4-1"
       style="display:inline;fill:#cacaca;fill-opacity:1;stroke:#000000;stroke-width:1.5;stroke-linecap:round;stroke-dasharray:none;paint-order:fill markers stroke"
       d="m 26.926169,35.349997 h 6.100003 v 5.899998 h -6.100003 z"
       sodipodi:nodetypes="ccccc" /><path
       id="rect1-0"
       style="display:inline;fill:#cacaca;fill-opacity:1;stroke:#000000;stroke-width:1.5;stroke-linecap:butt;stroke-dasharray:none;paint-order:fill markers stroke"
       d="M 14.849996 45.999684 L 14.849996 41.250001 L 14.849996 41.250001 L 20.949999 41.250001 L 20.949999 45.999685 " /><path
       id="rect1-4-4"
       style="display:inline;fill:#ffffff;fill-opacity:1;stroke:#000000;stroke-width:1.5;stroke-linecap:butt;stroke-dasharray:none;paint-order:fill markers stroke"
       d="M 20.899996 45.999684 L 20.899997 41.250001 L 20.899997 41.250001 L 27 41.250001 L 27 45.999685 " /><path
       id="rect1-4-1-5"
       style="display:inline;fill:#cacaca;fill-opacity:1;stroke:#000000;stroke-width:1.5;stroke-linecap:butt;stroke-dasharray:none;paint-order:fill markers stroke"
       d="M 26.93546 45.999684 L 26.935461 41.250001 L 26.935461 41.250001 L 33.035464 41.250001 L 33.035464 45.999685 " /></g></svg>
