<?xml version="1.0" encoding="UTF-8" standalone="no"?>
<!-- Created with Inkscape (http://www.inkscape.org/) -->

<svg
   width="48"
   height="48"
   viewBox="0 0 48 48"
   version="1.1"
   id="svg1"
   xml:space="preserve"
   inkscape:version="1.3 (0e150ed, 2023-07-21)"
   sodipodi:docname="ModuleHistoryV4B.svg"
   inkscape:export-filename="PNG/ModuleHistoryV6-48.png"
   inkscape:export-xdpi="96"
   inkscape:export-ydpi="96"
   xmlns:inkscape="http://www.inkscape.org/namespaces/inkscape"
   xmlns:sodipodi="http://sodipodi.sourceforge.net/DTD/sodipodi-0.dtd"
   xmlns="http://www.w3.org/2000/svg"
   xmlns:svg="http://www.w3.org/2000/svg"><sodipodi:namedview
     id="namedview1"
     pagecolor="#ffffff"
     bordercolor="#111111"
     borderopacity="1"
     inkscape:showpageshadow="0"
     inkscape:pageopacity="0"
     inkscape:pagecheckerboard="1"
     inkscape:deskcolor="#d1d1d1"
     inkscape:document-units="px"
     showgrid="true"
     inkscape:zoom="4.0357965"
     inkscape:cx="27.751647"
     inkscape:cy="22.548213"
     inkscape:window-width="1440"
     inkscape:window-height="773"
     inkscape:window-x="469"
     inkscape:window-y="25"
     inkscape:window-maximized="0"
     inkscape:current-layer="layer1"
     showguides="true"><inkscape:grid
       id="grid1"
       units="px"
       originx="0"
       originy="0"
       spacingx="1"
       spacingy="1"
       empcolor="#0099e5"
       empopacity="0.30196078"
       color="#0099e5"
       opacity="0.14901961"
       empspacing="2"
       dotted="false"
       gridanglex="30"
       gridanglez="30"
       visible="true" /><inkscape:grid
       id="grid2"
       units="px"
       originx="20"
       originy="20"
       spacingx="40"
       spacingy="40"
       empcolor="#cd0000"
       empopacity="0.30196078"
       color="#e5001a"
       opacity="0.14901961"
       empspacing="40"
       dotted="false"
       gridanglex="30"
       gridanglez="30"
       visible="true" /><sodipodi:guide
       position="27,-20"
       orientation="-1,0"
       id="guide38"
       inkscape:locked="false" /></sodipodi:namedview><defs
     id="defs1"><inkscape:perspective
       sodipodi:type="inkscape:persp3d"
       inkscape:vp_x="0 : 24 : 1"
       inkscape:vp_y="0 : 1000 : 0"
       inkscape:vp_z="48 : 24 : 1"
       inkscape:persp3d-origin="24 : 16 : 1"
       id="perspective8" /></defs><g
     inkscape:label="Layer 1"
     inkscape:groupmode="layer"
     id="layer1"
     style="display:inline"><path
       id="path8"
       style="display:inline;fill:none;stroke:#808080;stroke-width:2;stroke-linecap:butt;stroke-linejoin:miter;stroke-dasharray:none;stroke-opacity:1"
       d="m 30.219835,5.5631155 -2.016379,-2.835455 v 0 l -8.974593,5.255034 2.510021,4.9369335 c -1.528537,1.702356 -2.722452,3.266602 -3.418258,5.432341 l -5.295736,0.467581 0.06227,10.402185 5.297687,0.282773 c 0.720861,2.09093 1.841906,4.006863 3.259166,5.65415 l -2.248749,4.729553 9.03686,5.147151 1.787451,-2.722419" /><path
       id="path8-9"
       style="display:inline;fill:none;stroke:#bfbfbf;stroke-width:2;stroke-linecap:butt;stroke-linejoin:miter;stroke-dasharray:none;stroke-opacity:1"
       d="M 20.260834,5.83276 18.244455,2.997306 v 0 l -8.9745927,5.255033 2.5100207,4.936934 c -1.528537,1.702356 -2.7224517,3.266602 -3.4182577,5.432341 l -5.295736,0.467581 0.06227,10.402185 5.297687,0.282773 c 0.720861,2.09093 1.8419057,4.006863 3.2591657,5.65415 l -2.2487487,4.729553 9.0368597,5.147151 1.787451,-2.722419" /><path
       id="path6-6-6-8-4"
       style="display:inline;fill:#dedef5;fill-opacity:1;stroke:none;stroke-width:1.65501;stroke-linecap:round;stroke-linejoin:round;stroke-dasharray:none;stroke-opacity:1"
       d="M 42.150125,34.179668 V 24 h -1.30025 c -1.046927,0 -1.889874,-0.795645 -1.889874,-1.784939 v -6.019106 c -0.04877,0.01641 -0.09755,0.03423 -0.145965,0.05153 -0.347934,0.150368 -0.684662,0.32328 -1.006397,0.51892 -0.321685,0.195335 -0.629048,0.412973 -0.918048,0.649571 -0.288998,0.236636 -0.558151,0.492411 -0.808575,0.765499 -0.250381,0.273091 -0.480863,0.562731 -0.687577,0.866707 -0.207039,0.304023 -0.390164,0.620736 -0.549293,0.949514 -0.158899,0.328867 -0.293674,0.668865 -0.401406,1.015759 -0.10778,0.346911 -0.187586,0.700204 -0.241995,1.058082 -0.05423,0.357536 -0.08274,0.718975 -0.08259,1.080163 -1.37e-4,0.36119 0.02838,0.720788 0.08259,1.078323 0.05441,0.357879 0.134216,0.71301 0.241995,1.059922 0.107738,0.346895 0.242507,0.685051 0.401406,1.013919 0.159129,0.328779 0.342254,0.647332 0.549293,0.951354 0.206714,0.303976 0.437196,0.593615 0.687577,0.866707 0.250424,0.273087 0.519577,0.528862 0.808575,0.7655 0.289,0.236597 0.596363,0.452395 0.918048,0.64773 0.321733,0.195641 0.658465,0.370393 1.006397,0.52076 0.09566,0.04129 0.190788,0.08008 0.28809,0.117769 l 0.03073,4.00599 z" /><path
       id="path6-6-6-8-4-8"
       style="display:inline;fill:#e6e6f5;fill-opacity:1;stroke:none;stroke-width:1.64096;stroke-linecap:round;stroke-linejoin:round;stroke-dasharray:none;stroke-opacity:1"
       d="m 47,17.193359 c -0.19485,-0.141541 -0.397562,-0.276279 -0.605469,-0.40039 -0.321734,-0.192333 -0.657925,-0.36194 -1.005859,-0.509766 -0.04841,-0.017 -0.09772,-0.03464 -0.146484,-0.05078 v 5.917969 c -10e-7,0.972569 -0.841745,1.753906 -1.888672,1.753906 h -1.300782 v 10.007812 h 3.017578 l 0.03125,-3.9375 c 0.0973,-0.03705 0.19145,-0.07464 0.28711,-0.115234 0.347932,-0.147824 0.684127,-0.319385 1.005859,-0.511719 C 46.60263,29.22343 46.804982,28.842422 47,28.701269 Z"
       sodipodi:nodetypes="ccccsscccccccc" /><g
       id="g1"><path
         id="path10"
         style="fill:none;stroke:#000000;stroke-width:2;stroke-linecap:butt;stroke-linejoin:miter;stroke-dasharray:none;stroke-opacity:1"
         d="M 46.126483,7.2509268 C 45.560571,7.1908439 44.993514,7.162582 44.425846,7.162582 v 0 c -0.992916,0 -1.983961,0.086467 -2.970291,0.2784402 L 38.107162,2.7324733 v 0 l -8.974593,5.2550338 2.510021,4.9369339 c -1.528537,1.702356 -2.722452,3.266602 -3.418259,5.432341 l -5.295736,0.467581 0.06227,10.402185 5.297687,0.282773 c 0.720862,2.09093 1.841907,4.006863 3.259167,5.65415 l -2.248749,4.729553 9.03686,5.147151 2.881268,-4.388383 c 1.069035,0.221755 2.137717,0.322361 3.208748,0.322361 0.567432,0 1.134205,-0.02824 1.70072,-0.08777" /><g
         id="g5"><path
           id="path14"
           style="display:inline;fill:none;stroke:#010101;stroke-width:1.65501;stroke-linecap:round;stroke-linejoin:round;stroke-dasharray:none;stroke-opacity:1"
           d="m 39.102969,33.875659 v -3.498171 c -0.0973,-0.03824 -0.193809,-0.0783 -0.28947,-0.120179 -0.347932,-0.152557 -0.684049,-0.328753 -1.005782,-0.527243 -0.321686,-0.198178 -0.628199,-0.418127 -0.9172,-0.658169 -0.288998,-0.240083 -0.559741,-0.499647 -0.810165,-0.776712 -0.250381,-0.277068 -0.479804,-0.570925 -0.686517,-0.879328 -0.20704,-0.308449 -0.390824,-0.630688 -0.549952,-0.964253 -0.158901,-0.333657 -0.292729,-0.677773 -0.400467,-1.029717 -0.107779,-0.351964 -0.189189,-0.71086 -0.243602,-1.073949 -0.05421,-0.362742 -0.08134,-0.72873 -0.0812,-1.095179 -1.53e-4,-0.366448 0.02697,-0.732436 0.0812,-1.095179 0.05441,-0.363088 0.135822,-0.721985 0.243602,-1.073948 0.107732,-0.351945 0.241566,-0.696061 0.400467,-1.029717 0.159128,-0.333565 0.342912,-0.655804 0.549952,-0.964253 0.206713,-0.308403 0.436136,-0.602261 0.686517,-0.879328 0.250424,-0.277065 0.521167,-0.536629 0.810165,-0.776712 0.289001,-0.240043 0.595514,-0.459991 0.9172,-0.65817 0.321735,-0.19849 0.657851,-0.374686 1.005785,-0.527242 0.04842,-0.01755 0.09702,-0.03465 0.145795,-0.05131 v 6.105758 c 0,1.003697 0.842839,1.811736 1.889767,1.811736 h 1.301058" /><path
           id="path13"
           style="fill:none;stroke:#010101;stroke-width:1.65501;stroke-linecap:round;stroke-linejoin:round;stroke-dasharray:none;stroke-opacity:1;paint-order:stroke fill markers"
           d="m 39.11823,34.163477 a 9.9344533,9.5785337 0 0 0 2.913544,0.421192 9.9344533,9.5785337 0 0 0 0.149936,-0.0011" /><path
           id="path20"
           style="display:inline;fill:none;stroke:#010101;stroke-width:1.65501;stroke-linecap:round;stroke-linejoin:round;stroke-dasharray:none;stroke-opacity:1"
           d="m 45.243845,16.391788 v 5.918059 c 0,1.003696 -0.842841,1.811735 -1.889767,1.811735 h -1.199353" /><path
           id="path19"
           style="display:inline;fill:none;stroke:#000000;stroke-width:1.65501;stroke-linecap:round;stroke-linejoin:round;stroke-dasharray:none;stroke-opacity:1"
           d="m 45.409271,16.28931 c -0.0066,-0.0029 -0.01308,-0.0057 -0.01963,-0.0087 -0.04842,-0.01755 -0.09702,-0.03465 -0.145795,-0.05131 v 0.187699" /></g></g></g></svg>
