<?xml version="1.0" encoding="UTF-8" standalone="no"?>
<!-- Created with Inkscape (http://www.inkscape.org/) -->

<svg
   width="48"
   height="48"
   viewBox="0 0 48 48"
   version="1.1"
   id="svg1"
   xml:space="preserve"
   inkscape:version="1.3 (0e150ed, 2023-07-21)"
   sodipodi:docname="LogicalOperations.svg"
   inkscape:export-filename="../../../../../../../Desktop/m-48.png"
   inkscape:export-xdpi="96"
   inkscape:export-ydpi="96"
   xmlns:inkscape="http://www.inkscape.org/namespaces/inkscape"
   xmlns:sodipodi="http://sodipodi.sourceforge.net/DTD/sodipodi-0.dtd"
   xmlns="http://www.w3.org/2000/svg"
   xmlns:svg="http://www.w3.org/2000/svg"><sodipodi:namedview
     id="namedview1"
     pagecolor="#ffffff"
     bordercolor="#111111"
     borderopacity="1"
     inkscape:showpageshadow="0"
     inkscape:pageopacity="0"
     inkscape:pagecheckerboard="1"
     inkscape:deskcolor="#d1d1d1"
     inkscape:document-units="px"
     showgrid="true"
     inkscape:zoom="7.1217496"
     inkscape:cx="26.187385"
     inkscape:cy="33.629377"
     inkscape:window-width="1440"
     inkscape:window-height="771"
     inkscape:window-x="27"
     inkscape:window-y="25"
     inkscape:window-maximized="0"
     inkscape:current-layer="layer4"
     showguides="true"><inkscape:grid
       id="grid1"
       units="px"
       originx="0"
       originy="0"
       spacingx="1"
       spacingy="1"
       empcolor="#0099e5"
       empopacity="0.30196078"
       color="#0099e5"
       opacity="0.14901961"
       empspacing="2"
       dotted="false"
       gridanglex="30"
       gridanglez="30"
       visible="true" /><inkscape:grid
       id="grid2"
       units="px"
       originx="20"
       originy="20"
       spacingx="40"
       spacingy="40"
       empcolor="#cd0000"
       empopacity="0.30196078"
       color="#e5001a"
       opacity="0.14901961"
       empspacing="40"
       dotted="false"
       gridanglex="30"
       gridanglez="30"
       visible="true" /></sodipodi:namedview><defs
     id="defs1"><inkscape:perspective
       sodipodi:type="inkscape:persp3d"
       inkscape:vp_x="0 : 24 : 1"
       inkscape:vp_y="0 : 1000 : 0"
       inkscape:vp_z="48 : 24 : 1"
       inkscape:persp3d-origin="24 : 16 : 1"
       id="perspective8" /><inkscape:perspective
       sodipodi:type="inkscape:persp3d"
       inkscape:vp_x="0 : 24 : 1"
       inkscape:vp_y="0 : 1000 : 0"
       inkscape:vp_z="48 : 24 : 1"
       inkscape:persp3d-origin="24 : 16 : 1"
       id="perspective8-2" /></defs><g
     inkscape:groupmode="layer"
     id="layer4"
     inkscape:label="EnabledLayer"
     sodipodi:insensitive="true"><g
       id="g19"
       transform="matrix(0.88900674,0,0,0.88888889,0.55284493,0.55555561)"
       style="fill:#a4c5ac;fill-opacity:0.8;stroke-width:1.12493"><rect
         style="display:inline;fill:#a4c5ac;fill-opacity:0.8;stroke:#56695b;stroke-width:2.24985;stroke-linecap:round;stroke-linejoin:round;stroke-dasharray:none;stroke-opacity:1;paint-order:fill markers stroke"
         id="rect52"
         width="36"
         x="5"
         y="5"
         height="36" /><g
         id="g18"
         style="fill:#a4c5ac;fill-opacity:0.8;stroke-width:1.12493"><path
           style="display:inline;fill:#a4c5ac;fill-opacity:0.8;stroke:#56695b;stroke-width:2.24985;stroke-linecap:butt;stroke-linejoin:miter;stroke-dasharray:none;stroke-opacity:1"
           d="M 23,5 V 40.339048"
           id="path1" /><path
           style="display:inline;fill:#a4c5ac;fill-opacity:0.8;stroke:#56695b;stroke-width:2.24985;stroke-linecap:butt;stroke-linejoin:miter;stroke-dasharray:none;stroke-opacity:1"
           d="M 40.669524,23 H 5.330476"
           id="path2" /></g></g><g
       id="g21"
       transform="matrix(0.88989068,0,0,0.88888889,6.5166374,6.5555556)"
       style="stroke-width:1.12437"><rect
         style="display:inline;fill:#a4c5ac;fill-opacity:1;stroke:#56695b;stroke-width:2.24873;stroke-linecap:round;stroke-linejoin:round;stroke-dasharray:none;stroke-opacity:1;paint-order:fill markers stroke"
         id="rect19"
         width="36"
         x="5"
         y="5"
         height="36" /><g
         id="g20"
         style="stroke-width:1.12437"><path
           style="display:inline;fill:none;stroke:#56695b;stroke-width:2.24873;stroke-linecap:butt;stroke-linejoin:miter;stroke-dasharray:none;stroke-opacity:1"
           d="M 23,5 V 40.339048"
           id="path19" /><path
           style="display:inline;fill:none;stroke:#56695b;stroke-width:2.24873;stroke-linecap:butt;stroke-linejoin:miter;stroke-dasharray:none;stroke-opacity:1"
           d="M 40.669524,23 H 5.330476"
           id="path20" /></g></g><path
       style="fill:none;stroke:#000000;stroke-width:2;stroke-linecap:round;stroke-linejoin:miter;stroke-dasharray:none;stroke-opacity:1"
       d="m 14.9,19 h 8.089695"
       id="path22" /><path
       style="fill:none;stroke:#000000;stroke-width:2;stroke-linecap:round;stroke-linejoin:miter;stroke-dasharray:none;stroke-opacity:1"
       d="m 30.955153,19 h 8.089695"
       id="path22-3" /><path
       style="fill:none;stroke:#000000;stroke-width:2;stroke-linecap:round;stroke-linejoin:miter;stroke-dasharray:none;stroke-opacity:1"
       d="m 18.9,14.943554 v 8.162565"
       id="path23" /><g
       id="g7"><path
         id="text2"
         style="-inkscape-font-specification:'Futura Medium';stroke-width:1"
         d="m 33.96676,29.999999 c -1.106815,0.0064 -2.022579,0.334831 -2.746094,0.986279 -0.448716,0.405422 -0.765275,0.861559 -0.951171,1.366673 -0.179487,0.451945 -0.269532,1.12314 -0.269532,2.013735 v 5.621594 h 2.0625 v -5.572575 c 0,-1.59614 0.702878,-2.498114 1.910157,-2.511776 z" /><path
         id="path4"
         style="-inkscape-font-specification:'Futura Medium';stroke-width:1"
         d="m 35.96676,30.000031 0.0059,1.903907 c 0.0093,-1.05e-4 0.01802,-0.002 0.02734,-0.002 1.224357,0 2,0.928864 2,2.537236 v 5.572554 l 2,-0.02353 v -5.621526 c 0,-0.7776 -0.0934,-1.448786 -0.279297,-2.01371 C 39.541217,31.847844 39.229416,31.391713 38.78711,30.986296 38.056341,30.328325 37.128204,30.000029 36,30.000029 c -0.01114,0 -0.02211,-6.5e-5 -0.0332,0 z" /><rect
         style="fill:#000000;fill-opacity:1;stroke:none;stroke-width:1.5;stroke-linecap:round;stroke-linejoin:round;stroke-dasharray:none;paint-order:fill markers stroke"
         id="rect4"
         width="2.0303125"
         height="1.896484"
         x="33.969688"
         y="30.003721" /></g><g
       id="g8"
       transform="matrix(1,0,0,-1,-15.999963,70.023447)"><path
         id="path7"
         style="-inkscape-font-specification:'Futura Medium';stroke-width:1"
         d="m 33.96676,29.999999 c -1.106815,0.0064 -2.022579,0.334831 -2.746094,0.986279 -0.448716,0.405422 -0.765275,0.861559 -0.951171,1.366673 -0.179487,0.451945 -0.269532,1.12314 -0.269532,2.013735 v 5.621594 h 2.0625 v -5.572575 c 0,-1.59614 0.702878,-2.498114 1.910157,-2.511776 z" /><path
         id="path8"
         style="-inkscape-font-specification:'Futura Medium';stroke-width:1"
         d="m 35.96676,30.000031 0.0059,1.903907 c 0.0093,-1.05e-4 0.01802,-0.002 0.02734,-0.002 1.224357,0 2,0.928864 2,2.537236 v 5.572554 l 2,-0.02353 v -5.621526 c 0,-0.7776 -0.0934,-1.448786 -0.279297,-2.01371 C 39.541217,31.847844 39.229416,31.391713 38.78711,30.986296 38.056341,30.328325 37.128204,30.000029 36,30.000029 c -0.01114,0 -0.02211,-6.5e-5 -0.0332,0 z" /><rect
         style="fill:#000000;fill-opacity:1;stroke:none;stroke-width:1.5;stroke-linecap:round;stroke-linejoin:round;stroke-dasharray:none;paint-order:fill markers stroke"
         id="rect8"
         width="2.0303125"
         height="1.896484"
         x="33.969688"
         y="30.003721" /></g></g></svg>
