<?xml version="1.0" encoding="UTF-8" standalone="no"?>
<!-- Created with Inkscape (http://www.inkscape.org/) -->

<svg
   width="48"
   height="48"
   viewBox="0 0 48 48"
   version="1.1"
   id="svg1"
   xml:space="preserve"
   inkscape:version="1.3 (0e150ed, 2023-07-21)"
   sodipodi:docname="Watershed.svg"
   inkscape:export-filename="../../../../../../../Desktop/m-48.png"
   inkscape:export-xdpi="96"
   inkscape:export-ydpi="96"
   xmlns:inkscape="http://www.inkscape.org/namespaces/inkscape"
   xmlns:sodipodi="http://sodipodi.sourceforge.net/DTD/sodipodi-0.dtd"
   xmlns="http://www.w3.org/2000/svg"
   xmlns:svg="http://www.w3.org/2000/svg"><sodipodi:namedview
     id="namedview1"
     pagecolor="#ffffff"
     bordercolor="#111111"
     borderopacity="1"
     inkscape:showpageshadow="0"
     inkscape:pageopacity="0"
     inkscape:pagecheckerboard="1"
     inkscape:deskcolor="#d1d1d1"
     inkscape:document-units="px"
     showgrid="true"
     inkscape:zoom="11.621654"
     inkscape:cx="21.167383"
     inkscape:cy="37.387105"
     inkscape:window-width="1440"
     inkscape:window-height="771"
     inkscape:window-x="0"
     inkscape:window-y="25"
     inkscape:window-maximized="0"
     inkscape:current-layer="LightThemeEnabledLayer"
     showguides="true"><inkscape:grid
       id="grid1"
       units="px"
       originx="0"
       originy="0"
       spacingx="1"
       spacingy="1"
       empcolor="#0099e5"
       empopacity="0.30196078"
       color="#0099e5"
       opacity="0.14901961"
       empspacing="2"
       dotted="false"
       gridanglex="30"
       gridanglez="30"
       visible="true" /><sodipodi:guide
       position="24,76"
       orientation="1,0"
       id="guide15"
       inkscape:locked="false" /><sodipodi:guide
       position="10,24"
       orientation="0,-1"
       id="guide16"
       inkscape:locked="false" /></sodipodi:namedview><defs
     id="defs1"><inkscape:perspective
       sodipodi:type="inkscape:persp3d"
       inkscape:vp_x="0 : 24 : 1"
       inkscape:vp_y="0 : 1000 : 0"
       inkscape:vp_z="48 : 24 : 1"
       inkscape:persp3d-origin="24 : 16 : 1"
       id="perspective8" /></defs><g
     id="LightThemeEnabledLayer"
     inkscape:groupmode="layer"
     inkscape:label="EnabledLayer"
     style="display:inline"
     sodipodi:insensitive="true"><rect
       style="display:inline;fill:#aad4b5;fill-opacity:1;fill-rule:evenodd;stroke:none;stroke-width:2;stroke-dasharray:none;stroke-opacity:1"
       id="rect1"
       width="4"
       height="10"
       x="-36"
       y="9"
       rx="0.60000002"
       ry="0.60000002"
       transform="rotate(-90)" /><rect
       style="display:inline;fill:#aad4b5;fill-opacity:1;fill-rule:evenodd;stroke:none;stroke-width:1.99999;stroke-dasharray:none;stroke-opacity:1"
       id="rect2"
       width="4"
       height="9.9999981"
       x="-36"
       y="29"
       rx="0.60000002"
       ry="0.60000002"
       transform="rotate(-90)" /><path
       id="circle11"
       style="fill:none;fill-rule:evenodd;stroke:#abd4b5;stroke-width:2;stroke-dasharray:none;stroke-opacity:1"
       d="m -3.060545,-40.865236 c 0.0096,3.773041 2.654198,7.026435 6.345703,7.806641 v 0 c 0.314145,0.04654 0.597413,0.141752 0.902342,0.23047 0.319724,0.09348 0.632367,0.211612 0.935547,0.34961 C 5.426387,-32.340099 5.719452,-32.180186 6,-32 c 0.280214,0.180593 0.54717,0.380973 0.798828,0.59961 0.252161,0.217896 0.488438,0.453521 0.707031,0.705078 0.21804,0.252349 0.417769,0.519958 0.597656,0.800781 0.180188,0.280548 0.3401,0.573613 0.478516,0.876953 0.138663,0.303127 0.255497,0.615772 0.34961,0.935547 0.04183,0.143937 0.07836,0.291676 0.109374,0.441406 0.0019,0.0092 0.004,0.01813 0.0059,0.02734 0.0013,0.0059 0.0026,0.01172 0.0039,0.01758 0.03072,0.153242 0.05576,0.307438 0.07813,0.458985 v 0 c 0.802116,3.664005 4.059742,6.261198 7.81051,6.271484 4.418278,0 8,-3.581722 8,-8 -0.01023,-3.764321 -2.643394,-7.01227 -6.324219,-7.800781 v 0 c -0.305453,-0.04573 -0.601686,-0.123354 -0.898435,-0.208987 -0.319775,-0.09411 -0.63242,-0.210946 -0.935547,-0.349609 -0.303341,-0.138416 -0.596406,-0.298328 -0.876953,-0.478516 -0.280152,-0.179965 -0.547107,-0.379692 -0.798828,-0.597656 -0.25223,-0.218522 -0.48851,-0.456755 -0.707032,-0.708984 -0.217964,-0.251723 -0.41769,-0.518677 -0.597656,-0.798828 -0.180857,-0.28049 -0.341423,-0.573557 -0.480469,-0.876953 -0.137997,-0.30318 -0.254178,-0.615824 -0.347656,-0.935547 -0.09201,-0.314378 -0.165976,-0.642938 -0.238281,-0.953125 -0.09766,-0.291014 -1.874776,-6.275908 -7.794924,-6.291014 -4.418278,0 -8,3.581722 -8,8 z"
       inkscape:label="field1"
       sodipodi:nodetypes="cccccccccccsccccccccccccccccccc" /><path
       id="path2"
       style="fill:#aad4b5;fill-opacity:1;fill-rule:evenodd;stroke:#e5e5f6;stroke-width:2;stroke-dasharray:none;stroke-opacity:1"
       d="m 23.838453,5.7385491 -4.230049,7.7651119 c 0,0 -0.931498,1.611627 -0.975351,2.90497 0,2.678669 2.513357,4.591465 5.215734,4.591369 2.702377,9.5e-5 5.151214,-1.9127 5.151213,-4.591369 -1.66e-4,-1.047309 -0.342338,-2.066429 -0.975351,-2.90497 z"
       sodipodi:nodetypes="ccccccc" /><path
       style="fill:none;stroke:#e5e5f6;stroke-width:2;stroke-linecap:round;stroke-linejoin:miter;stroke-dasharray:none;stroke-opacity:1"
       d="m 4,30.999999 h 5 v 7.999999 h 10 v -7.999999 h 10 v 7.999999 h 10 v -7.981102 h 4.994419"
       id="path15"
       sodipodi:nodetypes="cccccccccc" /><path
       style="fill:none;stroke:#aad4b5;stroke-width:2;stroke-linecap:round;stroke-linejoin:miter;stroke-dasharray:none;stroke-opacity:1"
       d="M 30.457166,27 H 16.999999"
       id="path17" /><path
       style="fill:none;stroke:#aad4b5;stroke-width:2;stroke-linecap:round;stroke-linejoin:miter;stroke-dasharray:none;stroke-opacity:1"
       d="m 17,26.999999 v 7"
       id="path18" /><path
       style="fill:none;stroke:#aad4b5;stroke-width:2;stroke-linecap:round;stroke-linejoin:miter;stroke-dasharray:none;stroke-opacity:1"
       d="m 31,26.999999 v 7"
       id="path19" /><rect
       style="fill:#738c79;fill-rule:evenodd"
       id="rect3"
       width="8"
       height="2.1410782"
       x="10"
       y="36" /><rect
       style="fill:#738c79;fill-rule:evenodd"
       id="rect4"
       width="8"
       height="2.1410782"
       x="30"
       y="36" /><rect
       style="fill:#738c79;fill-rule:evenodd;stroke-width:1"
       id="rect5"
       width="12"
       height="1.999999"
       x="18"
       y="28" /><path
       style="fill:none;stroke:#aad4b5;stroke-width:1.99999;stroke-linecap:round;stroke-linejoin:miter;stroke-dasharray:none;stroke-opacity:1"
       d="M 24,24.763248 V 28"
       id="path16" /></g></svg>
