<?xml version="1.0" encoding="UTF-8" standalone="no"?>
<!-- Created with Inkscape (http://www.inkscape.org/) -->

<svg
   width="48"
   height="48"
   viewBox="0 0 48 48"
   version="1.1"
   id="svg1"
   xml:space="preserve"
   inkscape:version="1.3 (0e150ed, 2023-07-21)"
   sodipodi:docname="SlicerToggleOffLeft.svg"
   inkscape:export-filename="PNG/SlicerUpArrowV1-24.png"
   inkscape:export-xdpi="48"
   inkscape:export-ydpi="48"
   xmlns:inkscape="http://www.inkscape.org/namespaces/inkscape"
   xmlns:sodipodi="http://sodipodi.sourceforge.net/DTD/sodipodi-0.dtd"
   xmlns="http://www.w3.org/2000/svg"
   xmlns:svg="http://www.w3.org/2000/svg"><sodipodi:namedview
     id="namedview1"
     pagecolor="#ffffff"
     bordercolor="#111111"
     borderopacity="1"
     inkscape:showpageshadow="0"
     inkscape:pageopacity="0"
     inkscape:pagecheckerboard="1"
     inkscape:deskcolor="#d1d1d1"
     inkscape:document-units="px"
     showgrid="true"
     inkscape:zoom="2.4476984"
     inkscape:cx="12.460686"
     inkscape:cy="25.125645"
     inkscape:window-width="1392"
     inkscape:window-height="773"
     inkscape:window-x="48"
     inkscape:window-y="25"
     inkscape:window-maximized="0"
     inkscape:current-layer="LightThemeEnabledLayer"
     showguides="true"><inkscape:grid
       id="grid1"
       units="px"
       originx="0"
       originy="0"
       spacingx="2"
       spacingy="2"
       empcolor="#0099e5"
       empopacity="0.30196078"
       color="#0099e5"
       opacity="0.14902"
       empspacing="1"
       dotted="false"
       gridanglex="30"
       gridanglez="30"
       visible="true" /></sodipodi:namedview><defs
     id="defs1" /><g
     id="DarkThemeDisabledLayer"
     inkscape:groupmode="layer"
     inkscape:label="DarkThemeDisabledLayer"
     style="display:none"
     sodipodi:insensitive="true"><path
       id="rect4-1-1-5"
       style="display:inline;fill:none;fill-opacity:1;stroke:#666666;stroke-width:2.08501;stroke-linecap:round;stroke-linejoin:round;stroke-dasharray:none;paint-order:fill markers stroke"
       d="M 25.685313,32.97503 H 15.353995 c -5.7052758,0 -10.2983398,-4.008438 -10.2983398,-8.987519 0,-4.979072 4.593064,-8.987509 10.2983398,-8.987509 v 0 L 25.685313,15" /><path
       id="rect4-1-1-9-6"
       style="display:inline;fill:none;fill-opacity:1;stroke:#666666;stroke-width:2.08501;stroke-linecap:round;stroke-linejoin:round;stroke-dasharray:none;paint-order:fill markers stroke"
       d="m 22.270417,32.97503 h 10.331318 c 5.705276,0 10.29834,-4.008438 10.29834,-8.987519 0,-4.979072 -4.593064,-8.987509 -10.29834,-8.987509 v 0 L 22.270417,15" /><path
       id="path3-3-3"
       style="display:inline;fill:#808080;fill-opacity:1;stroke:#666666;stroke-width:2;stroke-linecap:butt;stroke-linejoin:round;stroke-dasharray:none;paint-order:fill markers stroke"
       d="m 15.871117,29.042506 h -0.509805 c -3.173412,0 -5.7281905,-2.230007 -5.7281905,-5.000003 0,-2.76999 2.5547785,-4.999997 5.7281905,-4.999997 v 0 h 0.509805" /><path
       id="path5-8-0"
       style="display:inline;fill:#808080;fill-opacity:1;stroke:#666666;stroke-width:2;stroke-linecap:butt;stroke-linejoin:round;stroke-dasharray:none;paint-order:fill markers stroke"
       d="m 15.458924,29.042505 h 1.833502 c 3.173412,0 5.72819,-2.230007 5.72819,-5.000003 0,-2.76999 -2.554778,-4.999997 -5.72819,-4.999997 v 0 h -1.886222" /></g><g
     id="LightThemeDisabledLayer"
     inkscape:groupmode="layer"
     inkscape:label="LightThemeDisabledLayer"
     style="display:none"
     sodipodi:insensitive="true"><path
       id="rect4-1-1-03"
       style="display:inline;fill:none;fill-opacity:1;stroke:#b2b2b2;stroke-width:2.08501;stroke-linecap:round;stroke-linejoin:round;stroke-dasharray:none;paint-order:fill markers stroke"
       d="M 25.685313,32.97503 H 15.353995 c -5.7052758,0 -10.2983398,-4.008438 -10.2983398,-8.987519 0,-4.979072 4.593064,-8.987509 10.2983398,-8.987509 v 0 L 25.685313,15" /><path
       id="rect4-1-1-9-8"
       style="display:inline;fill:none;fill-opacity:1;stroke:#b2b2b2;stroke-width:2.08501;stroke-linecap:round;stroke-linejoin:round;stroke-dasharray:none;paint-order:fill markers stroke"
       d="m 22.270417,32.97503 h 10.331318 c 5.705276,0 10.29834,-4.008438 10.29834,-8.987519 0,-4.979072 -4.593064,-8.987509 -10.29834,-8.987509 v 0 L 22.270417,15" /><path
       id="path3-3-4"
       style="display:inline;fill:#e8e8ff;fill-opacity:1;stroke:#b2b2b2;stroke-width:2;stroke-linecap:butt;stroke-linejoin:round;stroke-dasharray:none;paint-order:fill markers stroke"
       d="m 15.871117,29.042506 h -0.509805 c -3.173412,0 -5.7281905,-2.230007 -5.7281905,-5.000003 0,-2.76999 2.5547785,-4.999997 5.7281905,-4.999997 v 0 h 0.509805" /><path
       id="path5-8-9"
       style="display:inline;fill:#e8e8ff;fill-opacity:1;stroke:#b2b2b2;stroke-width:2;stroke-linecap:butt;stroke-linejoin:round;stroke-dasharray:none;paint-order:fill markers stroke"
       d="m 15.458924,29.042505 h 1.833502 c 3.173412,0 5.72819,-2.230007 5.72819,-5.000003 0,-2.76999 -2.554778,-4.999997 -5.72819,-4.999997 v 0 h -1.886222" /></g><g
     id="DarkThemeEnabledLayer"
     inkscape:groupmode="layer"
     inkscape:label="DarkThemeEnabledLayer"
     style="display:none;stroke:#e5e5f6"
     sodipodi:insensitive="true"><path
       id="rect4-1-1"
       style="display:inline;fill:none;fill-opacity:1;stroke:#e5e5f6;stroke-width:2.08501;stroke-linecap:round;stroke-linejoin:round;stroke-dasharray:none;paint-order:fill markers stroke"
       d="M 25.685313,32.97503 H 15.353995 c -5.7052758,0 -10.2983398,-4.008438 -10.2983398,-8.987519 0,-4.979072 4.593064,-8.987509 10.2983398,-8.987509 v 0 L 25.685313,15" /><path
       id="rect4-1-1-9"
       style="display:inline;fill:none;fill-opacity:1;stroke:#e5e5f6;stroke-width:2.08501;stroke-linecap:round;stroke-linejoin:round;stroke-dasharray:none;paint-order:fill markers stroke"
       d="m 22.270417,32.97503 h 10.331318 c 5.705276,0 10.29834,-4.008438 10.29834,-8.987519 0,-4.979072 -4.593064,-8.987509 -10.29834,-8.987509 v 0 L 22.270417,15" /><path
       id="path3-3"
       style="display:inline;fill:#99a2e3;fill-opacity:1;stroke:#e5e5f6;stroke-width:2;stroke-linecap:butt;stroke-linejoin:round;stroke-dasharray:none;paint-order:fill markers stroke"
       d="m 15.871117,29.042506 h -0.509805 c -3.173412,0 -5.7281905,-2.230007 -5.7281905,-5.000003 0,-2.76999 2.5547785,-4.999997 5.7281905,-4.999997 v 0 h 0.509805" /><path
       id="path5-8"
       style="display:inline;fill:#99a2e3;fill-opacity:1;stroke:#e5e5f6;stroke-width:2;stroke-linecap:butt;stroke-linejoin:round;stroke-dasharray:none;paint-order:fill markers stroke"
       d="m 15.458924,29.042505 h 1.833502 c 3.173412,0 5.72819,-2.230007 5.72819,-5.000003 0,-2.76999 -2.554778,-4.999997 -5.72819,-4.999997 v 0 h -1.886222" /></g><g
     inkscape:label="LightThemeEnabledLayer"
     id="LightThemeEnabledLayer"
     inkscape:groupmode="layer"
     style="display:inline"
     sodipodi:insensitive="true"><path
       id="rect4-1-1-4"
       style="display:inline;fill:none;fill-opacity:1;stroke:#000000;stroke-width:2.08501;stroke-linecap:round;stroke-linejoin:round;stroke-dasharray:none;paint-order:fill markers stroke"
       d="M 25.685313,32.97503 H 15.353995 c -5.7052758,0 -10.2983398,-4.008438 -10.2983398,-8.987519 0,-4.979072 4.593064,-8.987509 10.2983398,-8.987509 v 0 L 25.685313,15" /><path
       id="path3"
       style="display:inline;fill:#666666;fill-opacity:1;stroke:#000000;stroke-width:2;stroke-linecap:butt;stroke-linejoin:round;stroke-dasharray:none;paint-order:fill markers stroke"
       d="m 15.871117,29.042506 h -0.509805 c -3.173412,0 -5.7281905,-2.230007 -5.7281905,-5.000003 0,-2.76999 2.5547785,-4.999997 5.7281905,-4.999997 v 0 h 0.509805" /><path
       id="path5"
       style="display:inline;fill:#666666;fill-opacity:1;stroke:#000000;stroke-width:2;stroke-linecap:butt;stroke-linejoin:round;stroke-dasharray:none;paint-order:fill markers stroke"
       d="m 15.458924,29.042505 h 1.833502 c 3.173412,0 5.72819,-2.230007 5.72819,-5.000003 0,-2.76999 -2.554778,-4.999997 -5.72819,-4.999997 v 0 h -1.886222" /><path
       id="rect4-1-1-9-1"
       style="display:inline;fill:none;fill-opacity:1;stroke:#000000;stroke-width:2.08501;stroke-linecap:round;stroke-linejoin:round;stroke-dasharray:none;paint-order:fill markers stroke"
       d="m 22.270417,32.97503 h 10.331318 c 5.705276,0 10.29834,-4.008438 10.29834,-8.987519 0,-4.979072 -4.593064,-8.987509 -10.29834,-8.987509 v 0 L 22.270417,15" /></g></svg>
