<?xml version="1.0" encoding="UTF-8" standalone="no"?>
<!-- Created with Inkscape (http://www.inkscape.org/) -->

<svg
   width="48"
   height="48"
   viewBox="0 0 48 48"
   version="1.1"
   id="svg1"
   xml:space="preserve"
   inkscape:version="1.4 (e7c3feb1, 2024-10-09)"
   sodipodi:docname="SlicerHelp.svg"
   inkscape:export-filename="../../../../Users/wenples/Desktop/zz-48.png"
   inkscape:export-xdpi="96"
   inkscape:export-ydpi="96"
   xmlns:inkscape="http://www.inkscape.org/namespaces/inkscape"
   xmlns:sodipodi="http://sodipodi.sourceforge.net/DTD/sodipodi-0.dtd"
   xmlns="http://www.w3.org/2000/svg"
   xmlns:svg="http://www.w3.org/2000/svg"><sodipodi:namedview
     id="namedview1"
     pagecolor="#ffffff"
     bordercolor="#111111"
     borderopacity="1"
     inkscape:showpageshadow="0"
     inkscape:pageopacity="0"
     inkscape:pagecheckerboard="1"
     inkscape:deskcolor="#d1d1d1"
     inkscape:document-units="px"
     showgrid="true"
     inkscape:zoom="17.879571"
     inkscape:cx="21.365165"
     inkscape:cy="22.092252"
     inkscape:window-width="1392"
     inkscape:window-height="762"
     inkscape:window-x="48"
     inkscape:window-y="25"
     inkscape:window-maximized="0"
     inkscape:current-layer="LightThemeEnbledLayer"
     showguides="true"><inkscape:grid
       id="grid1"
       units="px"
       originx="0"
       originy="0"
       spacingx="2"
       spacingy="2"
       empcolor="#0099e5"
       empopacity="0.30196078"
       color="#0099e5"
       opacity="0.14901961"
       empspacing="1"
       dotted="false"
       gridanglex="30"
       gridanglez="30"
       visible="true" /></sodipodi:namedview><defs
     id="defs1" /><g
     id="LightThemeEnbledLayer"
     inkscape:groupmode="layer"
     inkscape:label="EnabledLayer"
     style="display:inline"
     sodipodi:insensitive="true"><ellipse
       style="fill:none;stroke:#000000;stroke-width:1.99998;stroke-linecap:round;stroke-linejoin:bevel;stroke-opacity:1;paint-order:fill markers stroke"
       id="path2"
       cx="24.061552"
       cy="24"
       rx="17"
       ry="17.000006" /><path
       style="font-weight:600;font-size:26.6667px;line-height:1.25;font-family:'Lucida Grande';-inkscape-font-specification:'Lucida Grande Semi-Bold';text-align:end;text-anchor:end"
       d="m 22.010413,33.802629 v -3.21615 h 3.867193 v 3.21615 z m 3.917193,-5.805736 h -3.867193 v -0.364584 c 0,-1.397571 0.642362,-2.808163 1.927086,-4.231776 l 0.924481,-1.015626 c 1.250001,-1.38021 1.875002,-2.61285 1.875002,-3.697921 0,-1.614585 -1.015626,-2.421878 -3.046879,-2.421878 -1.310765,0 -2.812503,0.386285 -4.505214,1.158855 V 14.481251 C 20.962322,13.960417 22.650692,13.7 24.3,13.7 c 2.057294,0 3.68056,0.394966 4.869797,1.184898 1.197919,0.789931 1.796878,1.866321 1.796878,3.22917 0,1.250002 -0.716147,2.552087 -2.14844,3.906255 l -0.872397,0.833335 c -0.815973,0.77257 -1.358509,1.427953 -1.627607,1.966148 -0.260417,0.529515 -0.390625,1.21962 -0.390625,2.070315 z"
       id="text2"
       aria-label="?"
       sodipodi:nodetypes="cccccccsccssccscscccsc" /></g></svg>
