<?xml version="1.0" encoding="UTF-8" standalone="no"?>
<!-- Created with Inkscape (http://www.inkscape.org/) -->

<svg
   width="48"
   height="48"
   viewBox="0 0 48 48"
   version="1.1"
   id="svg1"
   xml:space="preserve"
   inkscape:version="1.3 (0e150ed, 2023-07-21)"
   sodipodi:docname="SlicerExtensions.svg"
   inkscape:export-filename="../../../../../../Desktop/m-24.png"
   inkscape:export-xdpi="48"
   inkscape:export-ydpi="48"
   xmlns:inkscape="http://www.inkscape.org/namespaces/inkscape"
   xmlns:sodipodi="http://sodipodi.sourceforge.net/DTD/sodipodi-0.dtd"
   xmlns="http://www.w3.org/2000/svg"
   xmlns:svg="http://www.w3.org/2000/svg"><sodipodi:namedview
     id="namedview1"
     pagecolor="#ffffff"
     bordercolor="#111111"
     borderopacity="1"
     inkscape:showpageshadow="0"
     inkscape:pageopacity="0"
     inkscape:pagecheckerboard="1"
     inkscape:deskcolor="#d1d1d1"
     inkscape:document-units="px"
     showgrid="true"
     inkscape:zoom="6.3782241"
     inkscape:cx="45.153635"
     inkscape:cy="22.655209"
     inkscape:window-width="1408"
     inkscape:window-height="773"
     inkscape:window-x="17"
     inkscape:window-y="25"
     inkscape:window-maximized="0"
     inkscape:current-layer="DarkThemeEnabledLayer"
     showguides="true"
     inkscape:lockguides="false"><inkscape:grid
       id="grid1"
       units="px"
       originx="0"
       originy="0"
       spacingx="2"
       spacingy="2"
       empcolor="#0099e5"
       empopacity="0.30196078"
       color="#0099e5"
       opacity="0.14901961"
       empspacing="1"
       dotted="false"
       gridanglex="30"
       gridanglez="30"
       visible="true" /></sodipodi:namedview><defs
     id="defs1" /><g
     id="DarkThemeEnabledLayer"
     inkscape:groupmode="layer"
     inkscape:label="DarkThemeEnabledLayer"
     style="display:inline;stroke:#e5e5f6"
     sodipodi:insensitive="true"><path
       id="path2-6"
       style="fill:none;fill-opacity:1;stroke:#e5e5f6;stroke-width:1.75;stroke-linecap:round;stroke-linejoin:round;stroke-dasharray:none;stroke-opacity:1;paint-order:fill markers stroke"
       d="m 21.99375,4.8816404 c -1.253764,0.086197 -4.910629,0.210438 -5.234444,3.3930776 -0.104982,3.207682 1.273841,3.512818 2.00905,4.810935 v 1.774894 H 4.897656 V 24.91914 c 1.8988931,-0.636887 2.2046753,-1.179676 4.5190158,-1.2526 1.8576562,0.299435 3.6335542,1.27019 3.8122162,4.296166 -0.05285,2.976216 -1.889955,4.375231 -3.8122162,4.535579 -1.9448757,-0.05112 -2.1877224,-0.400693 -4.5250277,-1.356135 0.011315,3.536234 0.00141,7.994339 0.00601,11.989881 H 18.870312 c 0.179921,-1.405154 -1.212893,-2.732011 -1.115262,-4.466817 -0.08352,-2.906969 1.760621,-3.986129 4.352015,-4.031074 2.873266,0.10996 4.464356,1.490582 4.310588,4.055322 -0.01863,2.186226 -1.317624,3.00157 -1.220556,4.500605 0,0 1.112265,0.01763 1.61405,-0.008 h 6.298228 V 30.845703 c 0.644059,0.01122 1.625638,0.01808 1.697003,0 1.143793,1.373849 2.318237,2.241751 4.254213,2.245015 3.050951,-0.113522 4.078836,-3.006555 4.028174,-5.244813 -0.04934,-2.179751 -1.169409,-4.858773 -3.948841,-4.823841 -1.895125,-0.03942 -3.258256,0.817082 -4.446959,1.946838 -0.209948,-0.0018 -1.325276,-0.0067 -1.58359,0 V 14.860557 H 24.862109 V 13.159385 C 25.709439,12.06657 27.372644,11.851624 27.227612,8.274718 26.961861,5.3314828 23.127638,4.9983484 21.99375,4.8816404 Z"
       sodipodi:nodetypes="cccccccccccccccccccccscccccccc" /></g></svg>
