<?xml version="1.0" encoding="UTF-8" standalone="no"?>
<!-- Created with Inkscape (http://www.inkscape.org/) -->

<svg
   width="48"
   height="48"
   viewBox="0 0 48 48"
   version="1.1"
   id="svg1"
   xml:space="preserve"
   inkscape:version="1.3 (0e150ed, 2023-07-21)"
   sodipodi:docname="SlicerInvisible.svg"
   inkscape:export-filename="PNG/SlicerUpArrowV1-24.png"
   inkscape:export-xdpi="48"
   inkscape:export-ydpi="48"
   xmlns:inkscape="http://www.inkscape.org/namespaces/inkscape"
   xmlns:sodipodi="http://sodipodi.sourceforge.net/DTD/sodipodi-0.dtd"
   xmlns="http://www.w3.org/2000/svg"
   xmlns:svg="http://www.w3.org/2000/svg"><sodipodi:namedview
     id="namedview1"
     pagecolor="#ffffff"
     bordercolor="#111111"
     borderopacity="1"
     inkscape:showpageshadow="0"
     inkscape:pageopacity="0"
     inkscape:pagecheckerboard="1"
     inkscape:deskcolor="#d1d1d1"
     inkscape:document-units="px"
     showgrid="true"
     inkscape:zoom="6.8614395"
     inkscape:cx="34.249373"
     inkscape:cy="25.140497"
     inkscape:window-width="1392"
     inkscape:window-height="773"
     inkscape:window-x="5"
     inkscape:window-y="25"
     inkscape:window-maximized="0"
     inkscape:current-layer="DarkThemeEnabledLayer"
     showguides="true"><inkscape:grid
       id="grid1"
       units="px"
       originx="0"
       originy="0"
       spacingx="2"
       spacingy="2"
       empcolor="#0099e5"
       empopacity="0.30196078"
       color="#0099e5"
       opacity="0.14902"
       empspacing="1"
       dotted="false"
       gridanglex="30"
       gridanglez="30"
       visible="true" /></sodipodi:namedview><defs
     id="defs1" /><g
     id="DarkThemeEnabledLayer"
     inkscape:groupmode="layer"
     inkscape:label="DarkThemeEnabledLayer"
     style="display:inline"
     sodipodi:insensitive="true"><path
       id="path20-4"
       style="display:inline;fill:none;stroke:#e5e5f6;stroke-width:1.97444;stroke-linecap:round;stroke-linejoin:round;stroke-dasharray:none;paint-order:markers fill stroke"
       d="M 36.786994,28.786792 C 39.461247,26.918662 41.64423,24.57317 42.931128,22.034401 39.861167,15.978037 31.69173,11.021625 23.918338,11.021625 v 0 c -1.597179,0 -3.100052,0.133917 -4.51009,0.384621" /><path
       id="path14-7"
       style="display:inline;fill:none;stroke:#e5e5f6;stroke-width:1.97444;stroke-linecap:butt;stroke-linejoin:round;stroke-dasharray:none;paint-order:markers fill stroke"
       d="m 13.52169,13.346652 c -3.9818148,2.019734 -6.8319843,5.167992 -8.6161433,8.687749 3.0699574,6.056359 9.2960603,11.012778 19.0127913,11.012778 2.61405,0 5.272902,-0.5605 7.767538,-1.53484" /><path
       id="path23-0"
       style="display:inline;fill:none;stroke:#e5e5f6;stroke-width:2.09377;stroke-linecap:round;stroke-linejoin:round;paint-order:markers fill stroke"
       d="m 23.080105,15.072486 a 7.2505379,6.9337044 0 0 1 0.622471,-0.0256 7.2505379,6.9337044 0 0 1 7.250538,6.933705 v 0 a 7.2505379,6.9337044 0 0 1 -0.06179,0.903283" /><path
       id="path16-4"
       style="display:inline;fill:none;stroke:#e5e5f6;stroke-width:1.5;stroke-linecap:butt;stroke-linejoin:round;stroke-dasharray:none;paint-order:markers fill stroke"
       d="m 27.845813,27.6707 a 7.2505379,6.9337044 0 0 1 -4.143237,1.243595 7.2505379,6.9337044 0 0 1 -7.250538,-6.933704 7.2505379,6.9337044 0 0 1 1.491774,-4.212827" /><path
       style="display:inline;fill:none;stroke:#e5e5f6;stroke-width:2;stroke-linecap:butt;stroke-linejoin:miter;stroke-dasharray:none;stroke-opacity:1"
       d="m 3.5,3.85 40,40"
       id="path5-0" /></g></svg>
