<?xml version="1.0" encoding="UTF-8" standalone="no"?>
<!-- Created with Inkscape (http://www.inkscape.org/) -->

<svg
   width="48"
   height="48"
   viewBox="0 0 48 48"
   version="1.1"
   id="svg1"
   xml:space="preserve"
   inkscape:version="1.3 (0e150ed, 2023-07-21)"
   sodipodi:docname="ModuleHistoryV6-Disabled.svg"
   inkscape:export-filename="../../../../../../Desktop/m-24.png"
   inkscape:export-xdpi="48"
   inkscape:export-ydpi="48"
   xmlns:inkscape="http://www.inkscape.org/namespaces/inkscape"
   xmlns:sodipodi="http://sodipodi.sourceforge.net/DTD/sodipodi-0.dtd"
   xmlns="http://www.w3.org/2000/svg"
   xmlns:svg="http://www.w3.org/2000/svg"><sodipodi:namedview
     id="namedview1"
     pagecolor="#ffffff"
     bordercolor="#111111"
     borderopacity="1"
     inkscape:showpageshadow="0"
     inkscape:pageopacity="0"
     inkscape:pagecheckerboard="1"
     inkscape:deskcolor="#d1d1d1"
     inkscape:document-units="px"
     showgrid="true"
     inkscape:zoom="5.690473"
     inkscape:cx="32.949809"
     inkscape:cy="24.075327"
     inkscape:window-width="1440"
     inkscape:window-height="773"
     inkscape:window-x="40"
     inkscape:window-y="25"
     inkscape:window-maximized="0"
     inkscape:current-layer="layer1"
     showguides="true"><inkscape:grid
       id="grid1"
       units="px"
       originx="0"
       originy="0"
       spacingx="1"
       spacingy="1"
       empcolor="#0099e5"
       empopacity="0.30196078"
       color="#0099e5"
       opacity="0.14901961"
       empspacing="2"
       dotted="false"
       gridanglex="30"
       gridanglez="30"
       visible="true" /><inkscape:grid
       id="grid2"
       units="px"
       originx="20"
       originy="20"
       spacingx="40"
       spacingy="40"
       empcolor="#cd0000"
       empopacity="0.30196078"
       color="#e5001a"
       opacity="0.14901961"
       empspacing="40"
       dotted="false"
       gridanglex="30"
       gridanglez="30"
       visible="true" /><sodipodi:guide
       position="27,-20"
       orientation="-0.99980006,-0.019996001"
       id="guide38"
       inkscape:locked="false" /></sodipodi:namedview><defs
     id="defs1"><inkscape:perspective
       sodipodi:type="inkscape:persp3d"
       inkscape:vp_x="0 : 24 : 1"
       inkscape:vp_y="0 : 1000 : 0"
       inkscape:vp_z="48 : 24 : 1"
       inkscape:persp3d-origin="24 : 16 : 1"
       id="perspective8" /></defs><g
     inkscape:label="Layer 1"
     inkscape:groupmode="layer"
     id="layer1"
     style="display:inline"><path
       id="path10"
       style="fill:none;stroke:#666666;stroke-width:2;stroke-linecap:butt;stroke-linejoin:miter;stroke-dasharray:none;stroke-opacity:1"
       d="M 46.126483,7.2509268 C 45.560571,7.1908439 44.993514,7.162582 44.425846,7.162582 v 0 c -0.992916,0 -1.983961,0.086467 -2.970291,0.2784402 L 38.107162,2.7324733 v 0 l -8.974593,5.2550338 2.510021,4.9369339 c -1.528537,1.702356 -2.722452,3.266602 -3.418259,5.432341 l -5.295736,0.467581 0.06227,10.402185 5.297687,0.282773 c 0.720862,2.09093 1.841907,4.006863 3.259167,5.65415 l -2.248749,4.729553 9.03686,5.147151 2.881268,-4.388383 c 1.069035,0.221755 2.137717,0.322361 3.208748,0.322361 0.567432,0 1.134205,-0.02824 1.70072,-0.08777" /><path
       id="path8"
       style="display:inline;fill:none;stroke:#666666;stroke-width:2;stroke-linecap:butt;stroke-linejoin:miter;stroke-dasharray:none;stroke-opacity:1;opacity:0.6"
       d="m 30.219835,5.5631155 -2.016379,-2.835455 v 0 l -8.974593,5.255034 2.510021,4.9369335 c -1.528537,1.702356 -2.722452,3.266602 -3.418258,5.432341 l -5.295736,0.467581 0.06227,10.402185 5.297687,0.282773 c 0.720861,2.09093 1.841906,4.006863 3.259166,5.65415 l -2.248749,4.729553 9.03686,5.147151 1.787451,-2.722419" /><path
       id="path8-9"
       style="display:inline;fill:none;stroke:#666666;stroke-width:2;stroke-linecap:butt;stroke-linejoin:miter;stroke-dasharray:none;stroke-opacity:1;opacity:0.3"
       d="M 20.260834,5.83276 18.244455,2.997306 v 0 l -8.9745927,5.255033 2.5100207,4.936934 c -1.528537,1.702356 -2.7224517,3.266602 -3.4182577,5.432341 l -5.295736,0.467581 0.06227,10.402185 5.297687,0.282773 c 0.720861,2.09093 1.8419057,4.006863 3.2591657,5.65415 l -2.2487487,4.729553 9.0368597,5.147151 1.787451,-2.722419" /><path
       id="rect1"
       style="display:inline;fill:#828282;fill-opacity:1;stroke:#323232;stroke-width:1.5;stroke-linecap:round;stroke-dasharray:none;paint-order:fill markers stroke;stroke-opacity:1"
       d="m 35.275843,14.914857 v 6.100003 h 5.899998 v -6.100003 z"
       sodipodi:nodetypes="ccccc" /><path
       id="rect1-4"
       style="display:inline;fill:#666666;fill-opacity:1;stroke:#323232;stroke-width:1.5;stroke-linecap:round;stroke-dasharray:none;paint-order:fill markers stroke;stroke-opacity:1"
       d="m 35.275843,20.964858 v 6.100003 h 5.899998 v -6.100003 z"
       sodipodi:nodetypes="ccccc" /><path
       id="rect1-4-1"
       style="display:inline;fill:#828282;fill-opacity:1;stroke:#323232;stroke-width:1.5;stroke-linecap:round;stroke-dasharray:none;paint-order:fill markers stroke;stroke-opacity:1"
       d="m 35.275843,27.000322 v 6.100003 h 5.899998 v -6.100003 z"
       sodipodi:nodetypes="ccccc" /><path
       id="rect1-0"
       style="display:inline;fill:#666666;fill-opacity:1;stroke:#323232;stroke-width:1.5;stroke-linecap:butt;stroke-dasharray:none;paint-order:fill markers stroke;stroke-opacity:1"
       d="m 45.92553,14.924149 h -4.749683 v 0 6.100003 h 4.749684" /><path
       id="rect1-4-4"
       style="display:inline;fill:#828282;fill-opacity:1;stroke:#323232;stroke-width:1.5;stroke-linecap:butt;stroke-dasharray:none;paint-order:fill markers stroke;stroke-opacity:1"
       d="m 45.92553,20.974149 -4.749683,1e-6 v 0 6.100003 h 4.749684" /><path
       id="rect1-4-1-5"
       style="display:inline;fill:#666666;fill-opacity:1;stroke:#323232;stroke-width:1.5;stroke-linecap:butt;stroke-dasharray:none;paint-order:fill markers stroke;stroke-opacity:1"
       d="m 45.92553,27.009613 -4.749683,10e-7 v 0 6.100003 h 4.749684" /></g></svg>
