<?xml version="1.0" encoding="UTF-8" standalone="no"?>
<svg
   height="48"
   viewBox="0 -960 1920 1920"
   width="48"
   fill="#000000"
   version="1.1"
   id="svg1"
   sodipodi:docname="SlicerCloud.svg"
   inkscape:version="1.4 (e7c3feb1, 2024-10-09)"
   xmlns:inkscape="http://www.inkscape.org/namespaces/inkscape"
   xmlns:sodipodi="http://sodipodi.sourceforge.net/DTD/sodipodi-0.dtd"
   xmlns="http://www.w3.org/2000/svg"
   xmlns:svg="http://www.w3.org/2000/svg">
  <defs
     id="defs1" />
  <sodipodi:namedview
     id="namedview1"
     pagecolor="#ffffff"
     bordercolor="#111111"
     borderopacity="1"
     inkscape:showpageshadow="0"
     inkscape:pageopacity="0"
     inkscape:pagecheckerboard="1"
     inkscape:deskcolor="#d1d1d1"
     showgrid="true"
     inkscape:zoom="9.625"
     inkscape:cx="24.25974"
     inkscape:cy="13.038961"
     inkscape:window-width="1200"
     inkscape:window-height="763"
     inkscape:window-x="158"
     inkscape:window-y="25"
     inkscape:window-maximized="0"
     inkscape:current-layer="layer1">
    <inkscape:grid
       id="grid2"
       units="px"
       originx="0"
       originy="0"
       spacingx="80"
       spacingy="80"
       empcolor="#0099e5"
       empopacity="0.30196078"
       color="#0099e5"
       opacity="0.14901961"
       empspacing="2"
       enabled="true"
       visible="true" />
  </sodipodi:namedview>
  <g
     inkscape:groupmode="layer"
     id="layer1"
     inkscape:label="DarkThemeEnabledLayer"
     sodipodi:insensitive="true">
    <path
       d="m 522.07793,478.96103 q -149.7,0 -254.84,-104.46 -105.16,-104.46 -105.16,-254.16 0,-137.539991 94,-244.14 94,-106.62 233.7,-114.48 26.92,-174.76 160.76,-288.76 133.84,-114 311.54,-114 200.15997,0 340.07997,139.92 139.92,139.92 139.92,340.08 v 80.000009 h 49.24 q 114.92,3.7 192.84,84.3799997 77.92,80.7000003 77.92,195.6199913 0,117.7 -81.16,198.84 -81.14,81.16 -198.84,81.16 z m 0,-80 h 959.99997 q 84,0 142,-58 58,-58 58,-142 0,-84 -58,-141.999991 -58,-58 -142,-58 h -120 V -161.03897 q 0,-166 -117,-283 -117,-117 -282.99997,-117 -166,0 -283,117 -117,117 -117,283 h -40 q -116,0 -198,82.000009 -82,81.9999997 -82,197.999991 0,116 82,198 82,82 198,82 z m 440,-479.999991 z"
       id="path1"
       style="fill:#e5e5f6;stroke-width:80;stroke-dasharray:none" />
  </g>
</svg>
