<?xml version="1.0" encoding="UTF-8" standalone="no"?>
<svg
   height="48"
   viewBox="0 0 48 48"
   width="48"
   version="1.1"
   id="svg1"
   sodipodi:docname="DICOMio-V3.svg"
   inkscape:version="1.3 (0e150ed, 2023-07-21)"
   xmlns:inkscape="http://www.inkscape.org/namespaces/inkscape"
   xmlns:sodipodi="http://sodipodi.sourceforge.net/DTD/sodipodi-0.dtd"
   xmlns="http://www.w3.org/2000/svg"
   xmlns:svg="http://www.w3.org/2000/svg">
  <defs
     id="defs1" />
  <sodipodi:namedview
     id="namedview1"
     pagecolor="#ffffff"
     bordercolor="#111111"
     borderopacity="1"
     inkscape:showpageshadow="0"
     inkscape:pageopacity="0"
     inkscape:pagecheckerboard="1"
     inkscape:deskcolor="#d1d1d1"
     showgrid="true"
     inkscape:zoom="6.2795509"
     inkscape:cx="19.667012"
     inkscape:cy="8.8382117"
     inkscape:window-width="1392"
     inkscape:window-height="776"
     inkscape:window-x="-93"
     inkscape:window-y="25"
     inkscape:window-maximized="0"
     inkscape:current-layer="svg1"
     showguides="true">
    <inkscape:grid
       id="grid1"
       units="px"
       originx="0"
       originy="0"
       spacingx="1"
       spacingy="1"
       empcolor="#0099e5"
       empopacity="0.30196078"
       color="#0099e5"
       opacity="0.14901961"
       empspacing="2"
       dotted="false"
       gridanglex="30"
       gridanglez="30"
       visible="true" />
  </sodipodi:namedview>
  <path
     d="m 2.8092523,18.059869 h 2.5328402 c 3.2480741,0 4.8721105,1.958433 4.8721105,5.875301 0,4.003308 -1.6240364,6.004962 -4.8721105,6.004962 H 2.8092523 Z m 1.265314,10.470191 h 1.2414373 c 1.3870624,0 2.3327868,-0.399791 2.8371731,-1.199372 0.5043864,-0.804983 0.7565796,-1.936823 0.7565796,-3.395518 0,-1.420878 -0.2521932,-2.520302 -0.7565796,-3.298273 C 7.6531385,19.858926 6.7074142,19.469941 5.3160036,19.469941 H 4.0745663 Z m 9.8094447,1.410072 H 12.612175 V 18.059869 h 1.271836 z m 6.287436,0.202597 c -1.352277,0 -2.432794,-0.551063 -3.241552,-1.653189 C 16.125487,27.382013 15.723282,25.885499 15.723282,24 c 0,-1.885498 0.402205,-3.37931 1.206613,-4.481436 0.808758,-1.107527 1.889275,-1.661292 3.241552,-1.661292 1.03921,0 1.92406,0.348466 2.654551,1.045398 0.730491,0.696933 1.141392,1.615371 1.232703,2.755314 h -1.304448 c -0.05218,-0.750958 -0.31524,-1.347943 -0.78919,-1.790954 -0.469601,-0.44301 -1.063125,-0.664516 -1.780571,-0.664516 -0.969639,0 -1.737089,0.415998 -2.30235,1.247994 -0.56526,0.826594 -0.847891,2.009759 -0.847891,3.549492 0,1.534332 0.280456,2.717496 0.841369,3.549493 0.560912,0.831995 1.32184,1.247994 2.282783,1.247994 0.747883,0 1.352277,-0.226909 1.813182,-0.680725 0.460905,-0.453816 0.721794,-1.102124 0.782668,-1.944926 h 1.304448 c -0.09131,1.264202 -0.491341,2.242068 -1.200091,2.933598 -0.708751,0.69153 -1.604472,1.037295 -2.687163,1.037295 z m 9.783356,-12.285457 c 1.339233,0 2.184969,0.561868 3.037208,1.685604 C 33.84425,20.666611 34.27037,22.15232 34.27037,24 c 0,1.847681 -0.42612,3.33339 -1.278359,4.457125 -0.852239,1.123736 -1.697975,1.685604 -3.037208,1.685604 -1.343581,0 -2.193666,-0.561868 -3.050253,-1.685604 C 26.047963,27.327987 25.61967,25.842278 25.61967,24 c 0,-1.84768 0.428293,-3.333389 1.28488,-4.457124 0.856587,-1.123736 1.706672,-1.685604 3.050253,-1.685604 z m -0.01304,10.940215 c 0.956594,0 1.489263,-0.421401 2.098005,-1.264203 0.61309,-0.842801 0.919635,-2.020562 0.919635,-3.533284 0,-1.512721 -0.30437,-2.690482 -0.913112,-3.533283 -0.608743,-0.842802 -1.134889,-1.264203 -2.078439,-1.264203 -0.960943,0 -1.500134,0.421401 -2.117573,1.264203 C 27.237185,21.309518 26.93064,22.487279 26.93064,24 c 0,1.507319 0.306545,2.68508 0.919635,3.533284 0.61309,0.842802 1.143586,1.264203 2.091484,1.264203 z m 15.49899,1.142645 H 44.240657 V 19.834615 L 41.514362,29.940132 H 40.379493 L 37.653198,19.834615 V 29.940132 H 36.453106 V 18.059869 h 1.897971 l 2.589328,9.90292 2.602373,-9.90292 h 1.897971 z"
     id="text12"
     style="font-size:14.8893px;line-height:1.25;font-family:'Microsoft Sans Serif';-inkscape-font-specification:'Microsoft Sans Serif';letter-spacing:0px;stroke-width:0.999996;fill:#000000;fill-opacity:1"
     aria-label="DICOM"
     sodipodi:nodetypes="cssscccscscscccccccscscsscccscssssccssssssscsssscssscscscccccccccccccc" />
  <path
     d="m 23,4 1,-1.104524 -11.38075,11.41925 -0.85,-0.85 12.25,-12.249999 12.25,12.249999 -0.85,0.85 L 24.7885,3.6454765 24.0385,2.854524 Z"
     id="path1-1"
     style="fill:#000000;fill-opacity:1;stroke-width:0.05"
     sodipodi:nodetypes="cccccccccc" />
  <path
     d="m 23,44 1,1.133979 -11.38075,-11.419252 -0.85,0.85 12.25,12.249999 12.25,-12.249999 -0.85,-0.85 -10.63075,10.669249 -0.75,0.79095 z"
     id="path1-1-4"
     style="fill:#000000;fill-opacity:1;stroke-width:0.05"
     sodipodi:nodetypes="cccccccccc" />
</svg>
