<?xml version="1.0" encoding="UTF-8" standalone="no"?>
<!-- Created with Inkscape (http://www.inkscape.org/) -->

<svg
   width="48"
   height="48"
   viewBox="0 0 48 48"
   version="1.1"
   id="svg1"
   xml:space="preserve"
   inkscape:version="1.3 (0e150ed, 2023-07-21)"
   sodipodi:docname="RulerDisplayOptions.svg"
   inkscape:export-filename="PNG/SlicerUpArrowV1-24.png"
   inkscape:export-xdpi="48"
   inkscape:export-ydpi="48"
   xmlns:inkscape="http://www.inkscape.org/namespaces/inkscape"
   xmlns:sodipodi="http://sodipodi.sourceforge.net/DTD/sodipodi-0.dtd"
   xmlns="http://www.w3.org/2000/svg"
   xmlns:svg="http://www.w3.org/2000/svg"><sodipodi:namedview
     id="namedview1"
     pagecolor="#ffffff"
     bordercolor="#111111"
     borderopacity="1"
     inkscape:showpageshadow="0"
     inkscape:pageopacity="0"
     inkscape:pagecheckerboard="1"
     inkscape:deskcolor="#d1d1d1"
     inkscape:document-units="px"
     showgrid="true"
     inkscape:zoom="12.155556"
     inkscape:cx="16.288848"
     inkscape:cy="22.582266"
     inkscape:window-width="1384"
     inkscape:window-height="773"
     inkscape:window-x="56"
     inkscape:window-y="25"
     inkscape:window-maximized="0"
     inkscape:current-layer="DarkThemeEnabledLayer"
     showguides="false"><inkscape:grid
       id="grid1"
       units="px"
       originx="0"
       originy="0"
       spacingx="2"
       spacingy="2"
       empcolor="#0099e5"
       empopacity="0.30196078"
       color="#0099e5"
       opacity="0.14902"
       empspacing="1"
       dotted="false"
       gridanglex="30"
       gridanglez="30"
       visible="true" /></sodipodi:namedview><defs
     id="defs1" /><g
     id="DarkThemeEnabledLayer"
     inkscape:label="DarkThemeEnabledLayer"
     inkscape:groupmode="layer"
     style="display:inline"
     sodipodi:insensitive="true"><path
       style="display:inline;fill:none;stroke:#000000;stroke-width:2;stroke-linecap:butt;stroke-linejoin:miter;stroke-dasharray:none;stroke-opacity:1"
       d="M 25,33.999159 V 23.999528"
       id="path15-5-5-4-2-5-4" /><path
       style="display:inline;fill:none;stroke:#000000;stroke-width:1.99999;stroke-linecap:butt;stroke-linejoin:miter;stroke-dasharray:none;stroke-opacity:1"
       d="m 14.999995,29.999341 10e-6,-6.051704"
       id="path15-5-5-4-2-5-2-1" /><path
       style="display:inline;fill:none;stroke:#000000;stroke-width:1.99999;stroke-linecap:butt;stroke-linejoin:miter;stroke-dasharray:none;stroke-opacity:1"
       d="m 34.999995,29.999341 1e-5,-5.999339"
       id="path15-5-5-4-2-5-2-1-7" /><path
       style="display:inline;fill:none;stroke:#000000;stroke-width:1.99999;stroke-linecap:butt;stroke-linejoin:miter;stroke-dasharray:none;stroke-opacity:1"
       d="m 6.999845,31.967473 1.01e-5,-9.999602"
       id="path15-5-5-4-2-5-2-1-8" /><path
       style="display:inline;fill:none;stroke:#000000;stroke-width:2;stroke-linecap:butt;stroke-linejoin:miter;stroke-dasharray:none;stroke-opacity:1"
       d="m 42.996508,31.953782 v -9.9996"
       id="path15-5-5-4-2-5-2-1-6" /><path
       style="fill:none;stroke:#000000;stroke-width:2;stroke-linecap:butt;stroke-linejoin:miter;stroke-dasharray:none;stroke-opacity:1"
       d="m 6.001746,24.945092 37.996508,1e-6"
       id="path17" /><path
       style="font-weight:600;font-size:13.3333px;line-height:1.25;font-family:'Gill Sans';-inkscape-font-specification:'Gill Sans Semi-Bold';fill:#000000;stroke:none;stroke-width:1"
       d="M 21.666662,9.828722 V 19.869963 H 20 V 9.828722 Z m 6.223943,-0.1293789 c 0.920136,0 2.449301,0.4576179 2.987494,1.3728539 0.542533,0.915237 1.0138,2.165899 1.0138,3.75199 0,1.600464 -0.466926,2.863106 -1.000779,3.787925 -0.533853,0.924821 -2.063018,1.387231 -2.987495,1.387231 -0.937497,0 -2.479683,-0.457619 -3.026556,-1.372855 -0.542533,-0.920028 -0.9138,-2.177878 -0.9138,-3.773552 0,-1.590881 0.471267,-2.846336 1.0138,-3.766364 0.542533,-0.924819 1.980379,-1.3872289 2.913536,-1.3872289 z m -2.034632,5.2110949 c 0,2.295279 1.144877,3.139917 2.034632,3.139917 0.868053,0 2.20208,-0.904536 2.20208,-3.31961 0,-2.256943 -1.338367,-2.982415 -2.215101,-2.982415 -0.881074,0 -2.021611,0.785369 -2.021611,3.162108 z"
       id="text1"
       aria-label="10"
       sodipodi:nodetypes="cccccscssscscssssss" /></g></svg>
