<?xml version="1.0" encoding="UTF-8" standalone="no"?>
<!-- Created with Inkscape (http://www.inkscape.org/) -->

<svg
   width="48"
   height="48"
   viewBox="0 0 48 48"
   version="1.1"
   id="svg1"
   xml:space="preserve"
   inkscape:version="1.3 (0e150ed, 2023-07-21)"
   sodipodi:docname="DefaultModuleV4.svg"
   inkscape:export-filename="PNG/DefaultModuleV4-48.png"
   inkscape:export-xdpi="96"
   inkscape:export-ydpi="96"
   xmlns:inkscape="http://www.inkscape.org/namespaces/inkscape"
   xmlns:sodipodi="http://sodipodi.sourceforge.net/DTD/sodipodi-0.dtd"
   xmlns="http://www.w3.org/2000/svg"
   xmlns:svg="http://www.w3.org/2000/svg"><sodipodi:namedview
     id="namedview1"
     pagecolor="#ffffff"
     bordercolor="#111111"
     borderopacity="1"
     inkscape:showpageshadow="0"
     inkscape:pageopacity="0"
     inkscape:pagecheckerboard="1"
     inkscape:deskcolor="#d1d1d1"
     inkscape:document-units="px"
     showgrid="true"
     inkscape:zoom="6.8206138"
     inkscape:cx="24.337985"
     inkscape:cy="32.841619"
     inkscape:window-width="1440"
     inkscape:window-height="771"
     inkscape:window-x="1"
     inkscape:window-y="25"
     inkscape:window-maximized="0"
     inkscape:current-layer="layer2"
     showguides="true"><inkscape:grid
       id="grid1"
       units="px"
       originx="0"
       originy="0"
       spacingx="1"
       spacingy="1"
       empcolor="#0099e5"
       empopacity="0.30196078"
       color="#0099e5"
       opacity="0.14901961"
       empspacing="2"
       dotted="false"
       gridanglex="30"
       gridanglez="30"
       visible="true" /><inkscape:grid
       id="grid2"
       units="px"
       originx="20"
       originy="20"
       spacingx="40"
       spacingy="40"
       empcolor="#cd0000"
       empopacity="0.30196078"
       color="#e5001a"
       opacity="0.14901961"
       empspacing="40"
       dotted="false"
       gridanglex="30"
       gridanglez="30"
       visible="true" /><sodipodi:guide
       position="27,12"
       orientation="1,0"
       id="guide3"
       inkscape:locked="false" /><sodipodi:guide
       position="31.480179,19"
       orientation="0,-1"
       id="guide4"
       inkscape:locked="false" /></sodipodi:namedview><defs
     id="defs1"><inkscape:perspective
       sodipodi:type="inkscape:persp3d"
       inkscape:vp_x="0 : 24 : 1"
       inkscape:vp_y="0 : 1000 : 0"
       inkscape:vp_z="48 : 24 : 1"
       inkscape:persp3d-origin="24 : 16 : 1"
       id="perspective8" /></defs><g
     inkscape:groupmode="layer"
     id="layer2"
     inkscape:label="Layer 2"><path
       style="fill:#c0dbe5;stroke:#000000;stroke-width:1px;stroke-linecap:round;stroke-linejoin:miter;stroke-opacity:1;fill-opacity:1"
       d="m 13,20.02 v 7.891468 L 24.044346,37.057063 35,27.82 V 20"
       id="path7"
       sodipodi:nodetypes="ccccc" /><path
       style="fill:none;stroke:#000000;stroke-width:0.999998px;stroke-linecap:butt;stroke-linejoin:miter;stroke-opacity:1"
       d="m 24,30 v 6.64 0"
       id="path7-1"
       sodipodi:nodetypes="ccc" /><path
       style="fill:#edf5fa;stroke:#000000;stroke-width:0.999998px;stroke-linecap:butt;stroke-linejoin:round;stroke-opacity:1;fill-opacity:1"
       d="M 30.716776,23.723223 35.074346,20 24.104346,12.165873 13.03,20 l 5.253223,3.723223 v 0 z"
       id="path7-1-2-1"
       sodipodi:nodetypes="ccccccc" /><path
       style="fill:#edf5fa;stroke:#000000;stroke-width:1px;stroke-linecap:butt;stroke-linejoin:round;stroke-opacity:1;fill-opacity:1"
       d="M 30.716776,23.723223 24.04,30.1 18.283223,23.723223 Z"
       id="path8"
       sodipodi:nodetypes="cccc" /></g><path
     id="path71"
     style="display:inline;fill:none;stroke:#000000;stroke-width:2;stroke-linecap:butt;stroke-linejoin:miter;stroke-dasharray:none;stroke-opacity:1"
     d="m 7.274235,23.999998 c 0,-0.99292 0.086466,-1.983957 0.2784402,-2.970291 L 2.8441263,17.681314 v 0 L 8.0991601,8.7067208 13.036094,11.216742 c 1.702364,-1.5285452 3.266594,-2.7224476 5.432341,-3.4182594 l 0.467581,-4.8957355 10.402185,0.062266 0.282773,4.8976871 c 2.090938,0.7208657 4.006855,1.8419026 5.65415,3.2591668 l 4.729553,-2.2487493 5.147151,9.0368603 -4.388383,2.881268 c 0.221755,1.069043 0.322361,2.137717 0.322361,3.208752 0,1.071036 -0.100598,2.139709 -0.322361,3.208754 l 4.388383,2.881268 -5.147151,9.036859 -4.729553,-2.24875 c -1.647295,1.417265 -3.563212,2.538302 -5.65415,3.259167 l -0.282773,4.997687 -10.402185,0.06227 -0.467581,-4.995734 c -2.165747,-0.695812 -3.729977,-1.889714 -5.432341,-3.41826 L 8.0991603,39.293276 2.8441265,30.318683 v 0 L 7.5526748,26.970289 C 7.3606989,25.983956 7.274235,24.992918 7.274235,23.999998 Z"
     sodipodi:nodetypes="scccccccccccccccccccccccccccs" /></svg>
