<?xml version="1.0" encoding="UTF-8" standalone="no"?>
<svg
   height="48"
   viewBox="0 0 48 48"
   width="48"
   version="1.1"
   id="svg1"
   sodipodi:docname="SlicerSaveV4.svg"
   inkscape:version="1.3 (0e150ed, 2023-07-21)"
   inkscape:export-filename="PNG/SlicerLoadV4-48.png"
   inkscape:export-xdpi="96"
   inkscape:export-ydpi="96"
   xmlns:inkscape="http://www.inkscape.org/namespaces/inkscape"
   xmlns:sodipodi="http://sodipodi.sourceforge.net/DTD/sodipodi-0.dtd"
   xmlns="http://www.w3.org/2000/svg"
   xmlns:svg="http://www.w3.org/2000/svg">
  <defs
     id="defs1" />
  <sodipodi:namedview
     id="namedview1"
     pagecolor="#ffffff"
     bordercolor="#111111"
     borderopacity="1"
     inkscape:showpageshadow="0"
     inkscape:pageopacity="0"
     inkscape:pagecheckerboard="1"
     inkscape:deskcolor="#d1d1d1"
     showgrid="true"
     inkscape:zoom="24.820186"
     inkscape:cx="23.750829"
     inkscape:cy="13.497079"
     inkscape:window-width="1392"
     inkscape:window-height="773"
     inkscape:window-x="27"
     inkscape:window-y="53"
     inkscape:window-maximized="0"
     inkscape:current-layer="svg1">
    <inkscape:grid
       id="grid1"
       units="px"
       originx="0"
       originy="0"
       spacingx="1"
       spacingy="1"
       empcolor="#0099e5"
       empopacity="0.30196078"
       color="#0099e5"
       opacity="0.14901961"
       empspacing="2"
       dotted="false"
       gridanglex="30"
       gridanglez="30"
       visible="true" />
  </sodipodi:namedview>
  <circle
     style="fill:#c8c8e9;stroke:#000000;stroke-width:2.00001;stroke-linejoin:round;stroke-opacity:0;paint-order:fill markers stroke;fill-opacity:1"
     id="path2"
     cx="24"
     cy="23"
     r="18.999996" />
  <path
     id="path1"
     style="fill:#000000;fill-opacity:1;stroke-width:1"
     d="M 32.720018,4.961813 31.97275,6.5075318 c 1.802486,0.8688787 3.468022,2.0548817 4.988808,3.5756702 3.552864,3.552862 5.329441,7.872994 5.329441,12.961557 0,5.080004 -1.776577,9.398596 -5.329441,12.955718 -3.552862,3.557158 -7.872996,5.33528 -12.961557,5.33528 -5.080006,0 -9.398596,-1.778122 -12.955718,-5.33528 -3.5571594,-3.557122 -5.3352803,-7.875714 -5.3352803,-12.955718 0,-5.088563 1.7781209,-9.408695 5.3352803,-12.961557 1.519949,-1.5181295 3.184348,-2.7015355 4.982968,-3.5698307 L 15.360768,4.955242 C 13.03747,6.0775969 11.640862,7.1477655 9.8744528,8.8977996 8.0565196,10.698918 6.6224264,12.816271 5.5727496,15.251085 c -1.0496395,2.434812 -1.5727494,5.035669 -1.5727494,7.801459 0,2.7572 0.5240561,5.344238 1.5746959,7.762531 1.0506396,2.418295 2.4859965,4.537298 4.3055961,6.355231 1.8196378,1.817932 3.9404808,3.252027 6.3610708,4.301703 2.420552,1.04964 5.009188,1.572749 7.766423,1.572749 2.765755,0 5.365016,-0.524055 7.797567,-1.574695 2.432518,-1.05064 4.548032,-2.485996 6.347446,-4.305596 1.799414,-1.819637 3.224776,-3.940482 4.274452,-6.361071 C 43.476891,28.382844 44,25.794208 44,23.036973 44,20.271219 43.475945,17.671958 42.425305,15.239406 41.374665,12.806888 39.948042,10.691374 38.146959,8.8919595 36.390752,7.1374145 34.962531,6.124762 32.720018,4.961813 Z"
     sodipodi:nodetypes="ccsscscscccccssccscccsccc" />
  <path
     style="fill:none;stroke:#000000;stroke-width:2.00001;stroke-linecap:butt;stroke-linejoin:miter;stroke-dasharray:none;stroke-opacity:1"
     d="M 24,36.000001 V 10.8"
     id="path3"
     sodipodi:nodetypes="cc" />
  <path
     style="fill:none;stroke:#000000;stroke-width:1.5;stroke-linecap:round;stroke-linejoin:miter;stroke-dasharray:none;stroke-opacity:1"
     d="M 24,9.35 12.071278,22.75"
     id="path4"
     sodipodi:nodetypes="cc" />
  <path
     style="fill:none;stroke:#000000;stroke-width:1.5;stroke-linecap:round;stroke-linejoin:miter;stroke-dasharray:none;stroke-opacity:1"
     d="m 24,9.35 11.928722,13.4"
     id="path4-6"
     sodipodi:nodetypes="cc" />
</svg>
