<?xml version="1.0" encoding="UTF-8" standalone="no"?>
<svg
   height="48"
   viewBox="0 -960 1920 1920"
   width="48"
   fill="#000000"
   version="1.1"
   id="svg1"
   sodipodi:docname="SlicerLoadFromCloud.svg"
   inkscape:version="1.4 (e7c3feb1, 2024-10-09)"
   xml:space="preserve"
   xmlns:inkscape="http://www.inkscape.org/namespaces/inkscape"
   xmlns:sodipodi="http://sodipodi.sourceforge.net/DTD/sodipodi-0.dtd"
   xmlns="http://www.w3.org/2000/svg"
   xmlns:svg="http://www.w3.org/2000/svg"><defs
     id="defs1" /><sodipodi:namedview
     id="namedview1"
     pagecolor="#ffffff"
     bordercolor="#111111"
     borderopacity="1"
     inkscape:showpageshadow="0"
     inkscape:pageopacity="0"
     inkscape:pagecheckerboard="1"
     inkscape:deskcolor="#d1d1d1"
     showgrid="true"
     inkscape:zoom="9.625"
     inkscape:cx="29.662338"
     inkscape:cy="27.064935"
     inkscape:window-width="1200"
     inkscape:window-height="763"
     inkscape:window-x="192"
     inkscape:window-y="25"
     inkscape:window-maximized="0"
     inkscape:current-layer="layer1"><inkscape:grid
       id="grid2"
       units="px"
       originx="0"
       originy="0"
       spacingx="80"
       spacingy="80"
       empcolor="#0099e5"
       empopacity="0.30196078"
       color="#0099e5"
       opacity="0.14901961"
       empspacing="2"
       enabled="true"
       visible="true" /></sodipodi:namedview><g
     inkscape:groupmode="layer"
     id="layer1"
     inkscape:label="LightThemeEnabledLayer"
     style="fill:#000000"
     sodipodi:insensitive="true"><path
       d="m 260,-200 q -74.85,0 -127.42,-52.23 Q 80,-304.46 80,-379.31 q 0,-68.77 47,-122.07 47,-53.31 116.85,-57.24 10.07,-74.3 74.61,-136.61 64.54,-62.31 141.54,-62.31 16.08,0 28.04,11.96 11.96,11.96 11.96,28.04 v 291.23 l 82.46,-82 L 610.77,-480 480,-349.23 349.23,-480 l 28.31,-28.31 82.46,82 v -291.23 q -75.23,3.23 -127.62,65.42 Q 280,-589.92 280,-520 h -20 q -58,0 -99,41 -41,41 -41,99 0,58 41,99 41,41 99,41 h 480 q 42,0 71,-29 29,-29 29,-71 0,-42 -29,-71 -29,-29 -71,-29 h -60 v -80 q 0,-49.54 -22,-91.04 -22,-41.5 -58,-68.96 v -47.62 q 56.31,31.16 88.15,86.97 Q 720,-584.85 720,-520 v 40 h 24.62 q 57.46,1.85 96.42,42.19 38.96,40.35 38.96,97.81 0,58.85 -40.58,99.42 Q 798.85,-200 740,-200 Z m 220,-298.77 z"
       id="path1"
       style="fill:#000000"
       transform="matrix(2,0,0,2,1.55844,875.46208)" /></g></svg>
