<?xml version="1.0" encoding="UTF-8" standalone="no"?>
<svg
   height="48"
   viewBox="0 0 48 48"
   width="48"
   version="1.1"
   id="svg1"
   sodipodi:docname="SlicerSaveV8.svg"
   inkscape:version="1.3 (0e150ed, 2023-07-21)"
   inkscape:export-filename="PNG/SlicerLoadV4-48.png"
   inkscape:export-xdpi="96"
   inkscape:export-ydpi="96"
   xmlns:inkscape="http://www.inkscape.org/namespaces/inkscape"
   xmlns:sodipodi="http://sodipodi.sourceforge.net/DTD/sodipodi-0.dtd"
   xmlns="http://www.w3.org/2000/svg"
   xmlns:svg="http://www.w3.org/2000/svg">
  <defs
     id="defs1" />
  <sodipodi:namedview
     id="namedview1"
     pagecolor="#ffffff"
     bordercolor="#111111"
     borderopacity="1"
     inkscape:showpageshadow="0"
     inkscape:pageopacity="0"
     inkscape:pagecheckerboard="1"
     inkscape:deskcolor="#d1d1d1"
     showgrid="true"
     inkscape:zoom="9.6170655"
     inkscape:cx="26.931292"
     inkscape:cy="20.796364"
     inkscape:window-width="1392"
     inkscape:window-height="773"
     inkscape:window-x="61"
     inkscape:window-y="25"
     inkscape:window-maximized="0"
     inkscape:current-layer="svg1"
     showguides="true">
    <inkscape:grid
       id="grid1"
       units="px"
       originx="0"
       originy="0"
       spacingx="1"
       spacingy="1"
       empcolor="#0099e5"
       empopacity="0.30196078"
       color="#0099e5"
       opacity="0.14901961"
       empspacing="2"
       dotted="false"
       gridanglex="30"
       gridanglez="30"
       visible="true" />
  </sodipodi:namedview>
  <path
     id="path2"
     style="fill:#c8c8e9;stroke:#000000;stroke-width:2.00001;stroke-linejoin:round;stroke-opacity:0;paint-order:fill markers stroke"
     transform="rotate(45)"
     d="M 52.941124,-5.4402619e-7 A 18.999996,18.999996 0 0 1 33.941128,18.999996 18.999996,18.999996 0 0 1 14.941132,-5.4402619e-7 18.999996,18.999996 0 0 1 33.941128,-18.999997 18.999996,18.999996 0 0 1 52.941124,-5.4402619e-7 Z" />
  <path
     id="path5"
     style="fill:none;stroke:#000000;stroke-width:1.75;stroke-linecap:round;stroke-linejoin:round;stroke-dasharray:none;paint-order:fill markers stroke"
     d="M 42.432719 23.8124 A 18.433674 18.433674 0 0 1 42.433674 24 L 42.433674 24 A 18.433674 18.433674 0 0 1 24 42.433674 A 18.433674 18.433674 0 0 1 5.566326 24 A 18.433674 18.433674 0 0 1 24 5.5663261 " />
  <g
     id="g6">
    <path
       style="fill:none;stroke:#000000;stroke-width:1.80499;stroke-linecap:round;stroke-linejoin:miter;stroke-dasharray:none;stroke-opacity:1"
       d="M 44.953048,3.146952 24.1,24"
       id="path3"
       sodipodi:nodetypes="cc" />
    <path
       style="fill:none;stroke:#000000;stroke-width:1.43922;stroke-linecap:round;stroke-linejoin:miter;stroke-dasharray:none;stroke-opacity:1"
       d="m 45.199148,2.866555 -0.0078,16.040931"
       id="path4"
       sodipodi:nodetypes="cc" />
    <path
       style="fill:none;stroke:#000000;stroke-width:1.4392;stroke-linecap:round;stroke-linejoin:miter;stroke-dasharray:none;stroke-opacity:1"
       d="M 45.190068,2.670728 29.17265,2.662928"
       id="path4-1"
       sodipodi:nodetypes="cc" />
  </g>
</svg>
